/* XPM */
static char *alydn_x33jj[] = {
/* columns rows colors chars-per-pixel */
"50 50 162 2 ",
"   c None",
".  c #010102",
"X  c #04050B",
"o  c #07080D",
"O  c #090A0F",
"+  c #040510",
"@  c #070912",
"#  c #0B0C13",
"$  c #0D0F19",
"%  c #0E111C",
"&  c #13151D",
"*  c #18181B",
"=  c #0D1322",
"-  c #131622",
";  c #161923",
":  c #1B1C24",
">  c #161A29",
",  c #191D2C",
"<  c #1A1F30",
"1  c #1E2029",
"2  c #1D2233",
"3  c #1F253A",
"4  c #222127",
"5  c #23232B",
"6  c #2B2A2F",
"7  c #222533",
"8  c #282630",
"9  c #242836",
"0  c #2C2C33",
"q  c #202538",
"w  c #242A3C",
"e  c #292D3C",
"r  c #312F34",
"t  c #302F3A",
"y  c #2E303B",
"u  c #31303B",
"i  c #1F2740",
"p  c #262C41",
"a  c #292F41",
"s  c #273047",
"d  c #2B3245",
"f  c #2E3549",
"g  c #2F384C",
"h  c #343541",
"j  c #373944",
"k  c #3C3A42",
"l  c #30374A",
"z  c #333A4D",
"x  c #3D3E4B",
"c  c #363E52",
"v  c #383E52",
"b  c #3A4155",
"n  c #3E4459",
"m  c #44434D",
"M  c #49464D",
"N  c #4C484E",
"B  c #424452",
"V  c #444857",
"C  c #4D4B53",
"Z  c #40475C",
"A  c #42495E",
"S  c #4E4E5C",
"D  c #514F59",
"F  c #54515B",
"G  c #5A575D",
"H  c #5C585D",
"J  c #454C61",
"K  c #484F64",
"L  c #4A5166",
"P  c #555561",
"I  c #5D5D67",
"U  c #5F5E68",
"Y  c #615F67",
"T  c #605E69",
"R  c #656167",
"E  c #63616B",
"W  c #69666E",
"Q  c #656472",
"!  c #6C6974",
"~  c #6C6C79",
"^  c #716C76",
"/  c #736F79",
"(  c #6F717E",
")  c #75747D",
"_  c #78747D",
"`  c #7D7A7D",
"'  c #727586",
"]  c #7D7A85",
"[  c #767C8C",
"{  c #807D81",
"}  c #817F89",
"|  c #7C8292",
" . c #86848F",
".. c #8A868C",
"X. c #8D8B93",
"o. c #968E96",
"O. c #95939D",
"+. c #9896A0",
"@. c #9C99A1",
"#. c #9B9EA9",
"$. c #A29CA5",
"%. c #A89DA2",
"&. c #A19CA9",
"*. c #A6A2AC",
"=. c #ABA5AC",
"-. c #B0AAAF",
";. c #A9A7B0",
":. c #A5A8B2",
">. c #ACAAB3",
",. c #B0AAB4",
"<. c #BBAFB2",
"1. c #ADB0B9",
"2. c #B8B2B7",
"3. c #B4B4BB",
"4. c #BBB5BB",
"5. c #BEBBC3",
"6. c #C3BEC3",
"7. c #C1C0C7",
"8. c #CAC2C6",
"9. c #C4C2C9",
"0. c #CAC6CC",
"q. c #CDC9CE",
"w. c #CFCBD1",
"e. c #D4CED3",
"r. c #D4D0D6",
"t. c #D3D4D9",
"y. c #DBD5DA",
"u. c #DDD9DE",
"i. c #E2D7DC",
"p. c #E8D9DE",
"a. c #DFDCE0",
"s. c #E3DEE2",
"d. c #E5E1E5",
"f. c #ECE4E7",
"g. c #EBE6E9",
"h. c #EDE9EC",
"j. c #F1E9EC",
"k. c #EFEEF0",
"l. c #F2EDF0",
"z. c #F1EEF0",
"x. c #F5EFF1",
"c. c #FBEDF0",
"v. c #F3F0F2",
"b. c #F4F1F2",
"n. c #F5F3F5",
"m. c #F6F4F5",
"M. c #F9F1F3",
"N. c #F8F3F5",
"B. c #F9F5F6",
"V. c #FAF4F5",
"C. c #FBF7F8",
"Z. c #F9F7F8",
"A. c #FDF9FA",
"S. c #FFFAFB",
"D. c #FDFAFA",
"F. c #FFFBFC",
"G. c #FFFDFD",
"H. c #FEFCFD",
"J. c #FFFEFE",
"K. c #FFFFFF",
"L. c #FFFFFE",
"P. c #FFFEFE",
/* pixels */
"                                                                                                    ",
"                                                                    .                               ",
"                        . . .                                     . . . o $                         ",
"                . & u t # .                                         . X - S ^ m :                   ",
"              - I =. .a 2                                               # d 5.s. .u                 ",
"          . 0 O.v.7.B - e                                             . X x 9.G.C.*.h X             ",
"        . j ,.N.G.0.Q 7 . .                                           . X Q u.G.G.N.+., .           ",
"      . $ @.B.F.M.4.F &                                                 o # ! u.G.G.u.W +           ",
"      . x 0.G.j.$.j @                                                       X { h.G.C.@.% .         ",
"    . . ! s.G.0.C X                                                         . y 3.G.G.5.h .         ",
"    . o o.l.G.@.5 .                                                         . % O.D.G.w.D .         ",
"    . . %.B.G.X.- X                                                         O - +.D.G.6.m X         ",
"      # o.l.G.>.0 .                                                         X w >.G.D.&.> O         ",
"      X / d.G.g._ -                                                       . . W u.G.u.E . X         ",
"      . h 5.G.G.9.C # =                                                 . . y 2.G.x.X.- .           ",
"      . X T y.G.C.0.~ 4 . o       @ o o o @ % & ; : 5 6 0 r 0 6 5 : ; 5 6 P 7.D.l.O.8 .             ",
"        . o P 9.A.G.n.6.{ G e h R ` ..X.O.#.:.1.3.3.7.0.w.r.w.w.7.3.3.5.r.b.G.d.} 5 . .             ",
"          . . 5 _ 0.b.D.G.l.u.a.n.G.G.G.G.G.G.G.G.G.G.G.G.G.G.G.G.G.G.G.G.G.M.] & X O               ",
"              . X 5 W 4.G.G.G.G.G.G.G.G.G.G.G.G.G.G.G.G.G.G.G.G.G.G.G.G.G.G.i.C                     ",
"                  . # ( G.G.G.G.G.G.G.G.G.G.G.G.G.G.G.G.G.G.G.G.G.G.G.G.G.G.y.M                     ",
"                    & [ G.G.G.G.G.G.G.G.G.G.G.G.G.G.G.G.G.G.G.G.G.G.G.G.G.G.y.M                     ",
"                    & | G.G.G.G.G.G.G.G.G.G.G.G.G.G.G.G.G.G.G.G.G.G.G.G.G.D.s.C                     ",
"                    % ' G.G.G.G.G.G.G.G.G.G.G.G.G.G.G.G.G.G.G.G.G.G.G.G.G.G.j.F                     ",
"                    # ! G.G.G.G.G.G.G.G.G.G.G.G.G.G.G.G.G.G.G.D.n.B.G.G.G.G.V.H                     ",
"                    # Y G.G.G.k.u.y.d.C.G.G.G.G.G.G.G.G.G.B.8.) F P ] 9.B.G.D.H                     ",
"                    o D c.g.o.m 5 1 j ] y.F.G.G.G.G.G.G.A.4.: X . . X * ..f.M.G                     ",
"                    X N e.] # . . . . X S r.G.G.G.G.G.G.t.V . . . . . . # <.p.D                     ",
"                    . k &.f . . . . . . . =.F.G.G.G.G.G.9.w . . . . . . . <.*.0                     ",
"                  . X 9 ' Q . . . . . . % 2.G.G.G.G.G.G.d.! . . . . . . 0 q.) #                     ",
"                . X & > m =.5 . . . . : X.g.G.G.G.G.G.G.F.e.U 0 $ # 5 T 5.*.6 .                     ",
"                  . X X # F $.R C G ) 6.m.G.G.G.G.G.G.G.G.G.m.d.>.=.e.w...5 .                       ",
"                      . . O m =.f.B.G.G.G.G.G.G.G.G.G.G.G.F.A.m.f.5.) k O .                         ",
"                          . X 7 x P ] @.=.2.6.8.6.4.-.@...~ P k 0 * .                               ",
"                          . . # - w % , > e 7 & ; , , ; - 7 9 $ . .                                 ",
"                                . o . , f L d # > 3 p c w d J z % . .                               ",
"                                  . @ p L J p # % 2 3 g n 2 , c n & .                               ",
"                                . . 3 K J q d e $ - 3 < z J e > d z X .                             ",
"                                . # n b , e A f % # , p , f J z > 2 o . .                           ",
"                                . - d > d J f w z 1 O 7 z 2 3 b n 9 # . . X o                       ",
"                                . $ - c L f 2 c J 2 . O 7 c a < a b f O . u 7 #                     ",
"                                . $ c J 9 , c A 7 X . . . & l b e 2 d 3 X O : & . .                 ",
"                              . X w Z , > b z ; . . . . . . o , z b l g $ . . . . . .               ",
"                              . X s , > z 9 O . . . . . . . . . o , z A l # .     . . .             ",
"                                . - , d & . . . . . . . . . . . . . X ; 9 O .                       ",
"                                . X 2 $ . . . . . . . . . . . . .       . . .                       ",
"                                . . . . . . . . .     . . . . .           .                         ",
"                                  . .   . . . .         . . . .                                     ",
"                                          . . .         . . .                                       ",
"                                            . .         .                                           ",
"                                                                                                    "
};
