/* XPM */
static char *xw27r_dtv85[] = {
/* columns rows colors chars-per-pixel */
"50 50 181 2 ",
"   c #000000",
".  c #010101",
"X  c #020202",
"o  c #030303",
"O  c #040404",
"+  c #050505",
"@  c #060606",
"#  c #070707",
"$  c #080808",
"%  c #090909",
"&  c #0A0A0A",
"*  c #0B0B0B",
"=  c #0C0C0C",
"-  c #0D0D0D",
";  c #0E0E0E",
":  c #0F0F0F",
">  c #101010",
",  c #111111",
"<  c #121212",
"1  c #131313",
"2  c #151515",
"3  c #171717",
"4  c #181818",
"5  c #191919",
"6  c #1A1A1A",
"7  c #1C1C1C",
"8  c #1D1D1D",
"9  c #1E1E1E",
"0  c #1F1F1F",
"q  c #202020",
"w  c #212121",
"e  c #222222",
"r  c #232323",
"t  c #242424",
"y  c #252525",
"u  c #262626",
"i  c #272727",
"p  c #282828",
"a  c #292929",
"s  c #2A2A2A",
"d  c #2B2B2B",
"f  c #2C2C2C",
"g  c #2D2D2D",
"h  c #2F2F2F",
"j  c #303030",
"k  c #313131",
"l  c #333333",
"z  c #343434",
"x  c #353535",
"c  c #363636",
"v  c #373737",
"b  c #383838",
"n  c #393939",
"m  c #3A3A3A",
"M  c #3B3B3B",
"N  c #3C3C3C",
"B  c #3D3D3D",
"V  c #3E3E3E",
"C  c #3F3F3F",
"Z  c #404040",
"A  c #414141",
"S  c #424242",
"D  c #434343",
"F  c #444444",
"G  c #464646",
"H  c #474747",
"J  c #484848",
"K  c #494949",
"L  c #4A4A4A",
"P  c #4C4C4C",
"I  c #4D4D4D",
"U  c #4E4E4E",
"Y  c #505050",
"T  c #515151",
"R  c #525252",
"E  c #535353",
"W  c #545454",
"Q  c #555555",
"!  c #575757",
"~  c #585858",
"^  c #595959",
"/  c #5A5A5A",
"(  c #5C5C5C",
")  c #5D5D5D",
"_  c #5E5E5E",
"`  c #5F5F5F",
"'  c #606060",
"]  c #616161",
"[  c #636363",
"{  c #656565",
"}  c #666666",
"|  c #686868",
" . c #696969",
".. c #6A6A6A",
"X. c #6B6B6B",
"o. c #6C6C6C",
"O. c #6D6D6D",
"+. c #6E6E6E",
"@. c #6F6F6F",
"#. c #707070",
"$. c #717171",
"%. c #727272",
"&. c #737373",
"*. c #747474",
"=. c #757575",
"-. c #767676",
";. c #777777",
":. c #787878",
">. c #797979",
",. c #7A7A7A",
"<. c #7B7B7B",
"1. c #7C7C7C",
"2. c #7E7E7E",
"3. c #7F7F7F",
"4. c #808080",
"5. c #818181",
"6. c #828282",
"7. c #838383",
"8. c #848484",
"9. c #858585",
"0. c #868686",
"q. c #878787",
"w. c #8F8F8F",
"e. c #909090",
"r. c #929292",
"t. c #939393",
"y. c #949494",
"u. c #959595",
"i. c #969696",
"p. c #989898",
"a. c #999999",
"s. c #9A9A9A",
"d. c #9B9B9B",
"f. c #9F9F9F",
"g. c #A0A0A0",
"h. c #A1A1A1",
"j. c #A2A2A2",
"k. c #A3A3A3",
"l. c #A5A5A5",
"z. c #A6A6A6",
"x. c #A7A7A7",
"c. c #A9A9A9",
"v. c #AAAAAA",
"b. c #ACACAC",
"n. c #AFAFAF",
"m. c #B0B0B0",
"M. c #B1B1B1",
"N. c #B3B3B3",
"B. c #B5B5B5",
"V. c #B6B6B6",
"C. c #B7B7B7",
"Z. c #B8B8B8",
"A. c #B9B9B9",
"S. c #BABABA",
"D. c #BDBDBD",
"F. c gray",
"G. c #BFBFBF",
"H. c #C0C0C0",
"J. c #C1C1C1",
"K. c #C3C3C3",
"L. c #C4C4C4",
"P. c #C5C5C5",
"I. c #C6C6C6",
"U. c #C8C8C8",
"Y. c #CBCBCB",
"T. c #CCCCCC",
"R. c #CDCDCD",
"E. c #CECECE",
"W. c #D4D4D4",
"Q. c #D5D5D5",
"!. c #D6D6D6",
"~. c #D8D8D8",
"^. c #D9D9D9",
"/. c #DADADA",
"(. c #DBDBDB",
"). c #DCDCDC",
"_. c #DDDDDD",
"`. c #DEDEDE",
"'. c #DFDFDF",
"]. c #E2E2E2",
"[. c None",
/* pixels */
"[.[.[.[.[.[.[.[.[.[.[.[.[.[.[.[.[.[.[.[.[.[.[.[.[.[.[.[.[.[.[.[.[.[.[.[.[.[.[.[.[.[.[.[.[.[.[.[.[.[.",
"[.[.[.[.[.[.[.[.[.[.[.[.[.[.[.[.[.[.[.[.[.[.[.[.[.[.[.[.[.[.[.[.[.[.[.[.[.[.[.[.[.[.[.[.[.[.[.[.[.[.",
"[.[.[.[.[.[.[.[.[.[.[.[.[.[.[.[.[.[.[.[.[.[.[.[.[.[.[.[.[.[.[.[.[.[.[.[.[.[.[.[.[.[.[.[.[.[.[.[.[.[.",
"[.[.[.[.[.[.[.[.[.[.[.[.[.[.[.[.[.[.[.[.[.[.[.[.[.[.[.[.[.[.[.[.[.[.[.[.[.[.[.[.[.[.[.[.[.[.[.[.[.[.",
"[.[.[.[.[.[.[.[.[.[.[.[.[.[.[.[.[.[.[.[.[.[.[.[.[.[.[.[.[.[.[.[.[.[.[.[.[.[.[.[.[.[.[.[.[.[.[.[.[.[.",
"[.[.[.[.[.[.[.[.[.[.[.[.[.[.[.[.[.[.[.[.[.[.[.[.[.[.[.[.[.  [.[.[.[.[.[.[.[.[.[.[.[.[.[.[.[.[.[.[.[.",
"[.[.[.[.[.[.[.[.[.[.[.[.[.[.[.[.[.[.[.[.[.[.[.[.[.[.[.  o C t   [.[.[.[.[.[.[.[.[.[.[.[.[.[.[.[.[.[.",
"[.[.[.[.[.[.[.[.[.[.[.[.[.[.[.[.[.[.[.[.[.[.[.[.[.[.[.0 w [ C 8 7 [.[.[.[.[.[.[.[.[.[.[.[.[.[.[.[.[.",
"[.[.[.[.[.[.[.[.[.[.[.[.[.[.[.[.[.[.[.[.[.[.[.[.[.[.9 $.*.*.*.=.T o [.[.[.[.[.[.[.[.[.[.[.[.[.[.[.[.",
"[.[.[.[.[.[.[.[.[.[.[.[.[.[.[.[.[.[.[.[.[.[.[.[.[.a ] ,.F.I.U.f. .T $ [.[.[.[.[.[.[.[.[.[.[.[.[.[.[.",
"[.[.[.[.[.[.[.[.[.[.[.[.[.[.[.[.[.[.[.[.[.[.[.[.t P 3.z.!.)._.J.t...x > [.[.[.[.[.[.[.[.[.[.[.[.[.[.",
"[.[.[.[.[.[.[.[.[.[.[.[.[.[.[.[.[.[.[.[.[.[.[.% J >.u.(./././._.J.1.#.9 [.[.[.[.[.[.[.[.[.[.[.[.[.[.",
"[.[.[.[.[.[.[.[.[.[.[.[.[.[.[.[.[.[.[.[.[.[.X Y O.p.!./.(.).(./.^.L.;.X.r [.[.[.[.[.[.[.[.[.[.[.[.[.",
"[.[.[.[.[.[.[.[.[.[.[.[.[.[.[.[.[.[.[.[.[.[.X E p.K.).W.g.s.L._./.W.M.2.t [.[.[.[.[.[.[.[.[.[.[.[.[.",
"[.[.[.[.[.[.[.[.[.[.[.[.[.[.[.[.[.[.[.[.[.[.7 +.D.`.W.Z.;.+.k.E././.~.0.c 1 [.[.[.[.[.[.[.[.[.[.[.[.",
"[.[.[.[.[.[.[.[.[.[.[.[.[.[.[.[.[.[.[.[.[.* { H.(.(.H.*.%.%.$.h.(./.Q.9.%.b   [.[.[.[.[.[.[.[.[.[.[.",
"[.[.[.[.[.[.[.[.[.[.[.[.[.[.[.[.[.[.[.[.[.* } J.`.A.7.%.%.%.%.<.h./.Q.9.&.b   [.[.[.[.[.[.[.[.[.[.[.",
"[.[.[.[.[.[.[.[.[.[.[.[.[.[.[.[.[.[.[.[.[.* } J.`.n.@.%.%.%.%.@.w./.Q.9.&.b   [.[.[.[.[.[.[.[.[.[.[.",
"[.[.[.[.[.[.[.[.[.[.[.[.[.[.[.[.[.[.[.[.[.* } J.`.m.$.%.%.%.%.o.8.Y.W.9.&.b   [.[.[.[.[.[.[.[.[.[.[.",
"[.[.[.[.[.[.[.[.[.[.[.[.[.    [.[.[.[.[.[.* | P.].N.%.%.%.%.-.S @ h T.0.&.b   [.[.[.[.[.[.[.[.[.[.[.",
"[.[.[.[.[.[.[.[.[.[.[.[.U 3.@.& [.[.[.[.  O s T _ J C %.$.*.H T 3.;.' #.-.n   [.[.[.[.[.[.[.[.[.[.[.",
"[.[.[.[.[.[.[.[.[.[.[.  +.'.v.0 [.[.[.[.3 3 2 1 $ $ u ` 6.{ s { !.G.1 L _ g   [.[.[.[.[.[.[.[.[.[.[.",
"[.[.[.[.[.[.[.[.[..     @.D.&. ., [.  a $.#.#.#.[.[.W 8 G.h F %.t.A.: X o X   [.[.[.[.[.[.[.[.[.[.[.",
"[.[.[.[.[.[.[.[.0 y.8 X.d.8.&.O.,   x ^ [.%.[.%.*.-.O.T b & K =.,.e.p.7 %.Q   [.[.[.[.[.[.[.[.[.[.[.",
"[.[.[.[.[.[.[.u _ v.q i.b.@.X.G *   Z ;.[.%.[.&./ H W X.d # g ) $.4.R.i ` %.S [.[.[.[.[.[.[.[.[.[.[.",
"[.[.[.[.[.[.[.S I.O.7 y.x.@.~ +     m #.%.%.%.+.f   6 X.#.9   j +.4.P.k   @.p.= [.[.[.[.[.[.[.[.[.[.",
"[.[.[.[.[.  j $.#.8 g.i.<.R %       @ l &.%.$.i O   X 3 | | t . a -.5.B.N m a.j.& [.[.[.[.[.[.[.[.[.",
"[.[.[.[.[.  4 v f - V.p.T v k # z <   s &.%.$.7     ; A O.*.a 5 m V %.Y.H z q.t.Z : [.[.[.[.[.[.[.[.",
"[.[.[.[.[.        % l.t.x y ' - [ k O a &.%.$.7 & < f &.%.&.i x Q , +.S.Z d ` ) ( 0 [.[.[.[.[.[.[.[.",
"[.[.[.[.[.[.[.[.[.@ ' ;.v t _ - ] %.h i &.%.$.6 C $.@.%.%.&.i l R , X.-.u   O o * ` w [.[.[.[.[.[.[.",
"[.[.[.[.[.[.[.[.[.+ ) :.b y ' - ] *.' ) &.*.%./ { &.%.%.*.-.p x Q , O.&.t   [.[.[.q & [.[.[.[.[.[.[.",
"[.[.[.[.[.[.[.[.[.+ _ ( t 4 C * ] *._ ( ..T O.~ [ &.%.+.Y I e d v * K o.y [.[.[.[.    [.[.[.[.[.[.[.",
"[.[.[.[.[.[.[.[.[.+ _ u     . : ` *.z s ~ > ` 8 D *.%.] , O [.[.    + _ u [.[.[.[.[.[.[.[.[.[.[.[.[.",
"[.[.[.[.[.[.[.[.[.+ _ u   [.w z.s ! @.F e / 7 U @.;./ e c.=.y   [.[.+ _ u [.[.[.[.[.[.[.[.[.[.[.[.[.",
"[.[.[.[.[.[.[.[.[.+ ` u [.[.p P.w i N t = z $ f M b F %.j.5.a   [.[.+ ` u [.[.[.[.[.[.[.[.[.[.[.[.[.",
"[.[.[.[.[.[.[.[.[.O Y t [.[.y C.n #               $ L K.:.{ u [.[.[.+ E q [.[.[.[.[.[.[.[.[.[.[.[.[.",
"[.[.[.[.[.[.[.[.[.  O [.[.[.2 >.K.M [.[.[.[.[.[.  Q D.:.$.7 [.[.[.[.[.@ X [.[.[.[.[.[.[.[.[.[.[.[.[.",
"[.[.[.[.[.[.[.[.[.    [.[.[.[.g q.f [.[.[.[.[.[.  B r.o.g [.[.[.[.[.[.    [.[.[.[.[.[.[.[.[.[.[.[.[.",
"[.[.[.[.[.[.[.[.[.    [.[.[.[.# G 3 [.[.[.[.[.[.  0 T L & [.[.[.[.[.[.    [.[.[.[.[.[.[.[.[.[.[.[.[.",
"[.[.[.[.[.[.[.[.[.    [.[.[.[.[.    [.[.[.[.[.[.        [.[.[.[.[.[.[.      [.[.[.[.[.[.[.[.[.[.[.[.",
"[.[.[.[.[.[.[.[.[.  [.[.[.[.[.[.[.[.[.[.[.[.[.[.[.[.[.[.[.[.[.[.[.[.[.[.    [.[.[.[.[.[.[.[.[.[.[.[.",
"[.[.[.[.[.[.[.[.[.[.[.[.[.[.[.[.[.[.[.[.[.[.[.[.[.[.[.[.[.[.[.[.[.[.[.[.[.[.[.[.[.[.[.[.[.[.[.[.[.[.",
"[.[.[.[.[.[.[.[.[.[.[.[.[.[.[.[.[.[.[.[.[.[.[.[.[.[.[.[.[.[.[.[.[.[.[.[.[.[.[.[.[.[.[.[.[.[.[.[.[.[.",
"[.[.[.[.[.[.[.[.[.[.[.[.[.[.[.[.[.[.[.[.[.[.[.[.[.[.[.[.[.[.[.[.[.[.[.[.[.[.[.[.[.[.[.[.[.[.[.[.[.[.",
"[.[.[.[.[.[.[.[.[.[.[.[.[.[.[.[.[.[.[.[.[.[.[.[.[.[.[.[.[.[.[.[.[.[.[.[.[.[.[.[.[.[.[.[.[.[.[.[.[.[.",
"[.[.[.[.[.[.[.[.[.[.[.[.[.[.[.[.[.[.[.[.[.[.[.[.[.[.[.[.[.[.[.[.[.[.[.[.[.[.[.[.[.[.[.[.[.[.[.[.[.[.",
"[.[.[.[.[.[.[.[.[.[.[.[.[.[.[.[.[.[.[.[.[.[.[.[.[.[.[.[.[.[.[.[.[.[.[.[.[.[.[.[.[.[.[.[.[.[.[.[.[.[.",
"[.[.[.[.[.[.[.[.[.[.[.[.[.[.[.[.[.[.[.[.[.[.[.[.[.[.[.[.[.[.[.[.[.[.[.[.[.[.[.[.[.[.[.[.[.[.[.[.[.[.",
"[.[.[.[.[.[.[.[.[.[.[.[.[.[.[.[.[.[.[.[.[.[.[.[.[.[.[.[.[.[.[.[.[.[.[.[.[.[.[.[.[.[.[.[.[.[.[.[.[.[.",
"[.[.[.[.[.[.[.[.[.[.[.[.[.[.[.[.[.[.[.[.[.[.[.[.[.[.[.[.[.[.[.[.[.[.[.[.[.[.[.[.[.[.[.[.[.[.[.[.[.[."
};
