/* XPM */
static char *aamsq_3u6r4[] = {
/* columns rows colors chars-per-pixel */
"50 50 139 2 ",
"   c None",
".  c #000000",
"X  c #010101",
"o  c #020202",
"O  c #030303",
"+  c #040404",
"@  c #050505",
"#  c #060606",
"$  c #070707",
"%  c #080808",
"&  c #090909",
"*  c #0A0A0A",
"=  c #0B0B0B",
"-  c #0C0C0C",
";  c #0D0D0D",
":  c #0E0E0E",
">  c #0F0F0F",
",  c #101010",
"<  c #111111",
"1  c #121212",
"2  c #131313",
"3  c #141414",
"4  c #151515",
"5  c #161616",
"6  c #171717",
"7  c #181818",
"8  c #191919",
"9  c #1A1A1A",
"0  c #1B1B1B",
"q  c #1C1C1C",
"w  c #1D1D1D",
"e  c #1E1E1E",
"r  c #1F1F1F",
"t  c #202020",
"y  c #212121",
"u  c #222222",
"i  c #232323",
"p  c #242424",
"a  c #252525",
"s  c #262626",
"d  c #272727",
"f  c #282828",
"g  c #292929",
"h  c #2A2A2A",
"j  c #2B2B2B",
"k  c #2C2C2C",
"l  c #2D2D2D",
"z  c #2E2E2E",
"x  c #2F2F2F",
"c  c #303030",
"v  c #313131",
"b  c #323232",
"n  c #333333",
"m  c #343434",
"M  c #353535",
"N  c #363636",
"B  c #373737",
"V  c #383838",
"C  c #393939",
"Z  c #3A3A3A",
"A  c #3B3B3B",
"S  c #3C3C3C",
"D  c #3D3D3D",
"F  c #3E3E3E",
"G  c #3F3F3F",
"H  c #404040",
"J  c #414141",
"K  c #424242",
"L  c #434343",
"P  c #444444",
"I  c #454545",
"U  c #464646",
"Y  c #474747",
"T  c #484848",
"R  c #494949",
"E  c #4A4A4A",
"W  c #4B4B4B",
"Q  c #4C4C4C",
"!  c #4D4D4D",
"~  c #4E4E4E",
"^  c #505050",
"/  c #515151",
"(  c #525252",
")  c #535353",
"_  c #545454",
"`  c #555555",
"'  c #575757",
"]  c #595959",
"[  c #5C5C5C",
"{  c #5E5E5E",
"}  c #646464",
"|  c #686868",
" . c #6B6B6B",
".. c #6D6D6D",
"X. c #777777",
"o. c #787878",
"O. c #797979",
"+. c #7C7C7C",
"@. c #838383",
"#. c #8F8F8F",
"$. c #919191",
"%. c #959595",
"&. c #969696",
"*. c #9C9C9C",
"=. c #9F9F9F",
"-. c #A3A3A3",
";. c #A4A4A4",
":. c #A8A8A8",
">. c #ACACAC",
",. c #AEAEAE",
"<. c #AFAFAF",
"1. c #B8B8B8",
"2. c #BBBBBB",
"3. c #C3C3C3",
"4. c #C8C8C8",
"5. c #C9C9C9",
"6. c #D1D1D1",
"7. c #D2D2D2",
"8. c #D4D4D4",
"9. c #D6D6D6",
"0. c #D9D9D9",
"q. c #DCDCDC",
"w. c #E1E1E1",
"e. c #E5E5E5",
"r. c #E7E7E7",
"t. c #E9E9E9",
"y. c #EDEDED",
"u. c #EEEEEE",
"i. c #EFEFEF",
"p. c #F0F0F0",
"a. c #F1F1F1",
"s. c #F4F4F4",
"d. c #F8F8F8",
"f. c #F9F9F9",
"g. c #FBFBFB",
"h. c #FCFCFC",
"j. c #FDFDFD",
"k. c #FEFEFE",
"l. c #FFFFFF",
/* pixels */
"                                                                                                    ",
"                                    _ / / / / / / / / / / / S                                       ",
"                        S y B U E U U ~ / / / / / / / / / / ~ E / _ /                               ",
"                    c E B , = = = = = , y B j y r y j B U _ _ _ / E ~ / / /                         ",
"                # j B B l y 3 r y , # X X # # , X = j V U / ~ E U V B V l j c E                     ",
"              y r B J V l y l l c y 3 ; # X X r ] E c y j l r 8 p p r y 8 , 3 r S /                 ",
"          B p , , 3 , r j j j c V c p , = # B >.s.t.$.8 X X X X # = = ; # # X X = p E               ",
"        j S j r j c j 8 c B V U J V l y 8 _ 9.j.j.j.f.1.B X X X X X X X X X X X X X y J             ",
"        ; S E / ~ E J l S S c B l c l j O.q.j.j.j.j.j.j.0.} , # ; , r p p r y y y , ; 8             ",
"      # 3 j j c l 8 3 = = ; ; ; # # , +.a.j.j.j.j.j.j.j.j.u.@.8 y p c J ~ / / / _ ~ J c r           ",
"    X 3 3 r = X X X X X X X X X X X _ a.j.j.j.j.j.j.j.j.j.j.u.| , p p 3 r y p B V V J U E U         ",
"    X X X X X X X X X X X X X X X # &.j.j.r.;.O...X.#.4.f.j.j.7.p p p , ; X X # # # ; 3 p j p       ",
"  X X X X X X X X X X X X X X X X = >.j.j.:.8 X X X # [ u.j.j.s.[ 8 y y j 8 = X X X X X X # =       ",
"  X X X X X X X X X X X X X X X X X _ s.j.s.4.;.&.&.>.r.j.j.j.w.J # = , r y j ; ; = # X X = 8       ",
"  X X X X X X X X X X X X X X X X X 8 3.j.j.j.j.j.j.j.j.j.j.u.[ X X X X X # = = , 8 ; # # r l p     ",
"  X X X X X X X X X X # X X X X X X X E r.j.j.j.j.j.j.j.j.u.O.# X X X X X X X X X X X # # 3 l V     ",
"    X X X X X X # ; j y = # X X X X X X | 9.f.j.j.j.j.f.2.~ # X X X X X X X X X X # , 3 , B / _     ",
"    X # , 3 y c c J U r = = X X X X X X X j =.f.j.j.q.+.3 X X X X X X X # # # = 8 p B E J ~ / /     ",
"    X X ; p E / _ / S p 3 X X X X X X X X X ; | 7.=.j X X X X X X X X = 3 8 y c l l V U J J / _ /   ",
"    X X X , y j S c r , X X X X X X X X X X X X 8 = X X X X X X X X X X ; ; ; ; , , ; 8 y p c U /   ",
"    X X X X X X # # X X X X X X X X X X X X X X X X X X X X X X X X X X # X X X X X X X = # X 8 j   ",
"    X X X X X X X X # X # # ; = X = , 3 ; = ; = X X X X X X X X X # = X # # X X X X X X X X X X     ",
"      X X X X X X X = X X X , 3 = 3 l J S J E J l ; # X X X X X X X X X X # X X X X X X X X X X     ",
"      X X X X X X X X X X X X X X X # , 8 j l U / E B y ; # 8 p p y ; X X X X X X X X X X X X =     ",
"      X X X X X X X X X X X X X X X X X X X X ; y S U J p y l E _ / S # X X X X X # ; = # X X X     ",
"        X # X X X X X X X X X X X X X X X X X X X = , 3 j E ~ / ~ J           X # X # # X X X X     ",
"        X r j 8 = X               X X X X X X X X X X X ; y B c y               X X X X X X # 3     ",
"          c J U V                   X X X X X X X X # # X # = =                   X X X X # r B     ",
"          c c l p                   X X X X X X X X # # X X X                       X X X = j       ",
"          ; , #                     X X X X X X X X X # X X X                         X X # 3       ",
"          X ; ;                     X X X X X X X X X X X X                           X X X X       ",
"            8 3                     X X X X X X X X # # ; X                             X # 8       ",
"            =                         X X X X X X X X X X                                 X         ",
"                                      X X X X X X X X X X                                           ",
"                                      X X X X X X X X X X                                           ",
"                                      X X X X X X X X X                                             ",
"                                      X X X X X # # ; ;                                             ",
"                                      X X = r 8 j V J                                               ",
"                                      = = p j J / / _                                               ",
"                                      # 3 V J E / / /                                               ",
"                                        X 8 l p c J J                                               ",
"                                        X = 3 ; 8 r                                                 ",
"                                        X ; , , ; r                                                 ",
"                                          , r r ;                                                   ",
"                                          # y B 3                                                   ",
"                                          = r c                                                     ",
"                                          X # ,                                                     ",
"                                            X                                                       ",
"                                                                                                    ",
"                                                                                                    "
};
