/* XPM */
static char *ayq6r_lcerm[] = {
/* columns rows colors chars-per-pixel */
"50 50 64 1 ",
"  c #0F0E0E",
". c #100F0F",
"X c #101010",
"o c #111010",
"O c #121111",
"+ c #131212",
"@ c #131313",
"# c #141212",
"$ c #141313",
"% c #151313",
"& c #151414",
"* c #151515",
"= c #161515",
"- c #171515",
"; c #161616",
": c #171616",
"> c #181616",
", c #181717",
"< c #191717",
"1 c #191818",
"2 c #1A1818",
"3 c #1A1919",
"4 c #1B1919",
"5 c #1B1A1A",
"6 c #1C1A1A",
"7 c #1C1B1B",
"8 c #1D1B1B",
"9 c #1D1C1C",
"0 c #1E1C1C",
"q c #1E1D1D",
"w c #1F1D1D",
"e c #1E1E1E",
"r c #1F1E1E",
"t c #201E1E",
"y c #201F1F",
"u c #211F1F",
"i c #212020",
"p c #222020",
"a c #222121",
"s c #232121",
"d c #232222",
"f c #242222",
"g c #242323",
"h c #252323",
"j c #252424",
"k c #262424",
"l c #262525",
"z c #272525",
"x c #272626",
"c c #282626",
"v c #282727",
"b c #292727",
"n c #292828",
"m c #2A2828",
"M c #2B2929",
"N c #2B2A2A",
"B c #2C2A2A",
"V c #2C2B2B",
"C c #2D2B2B",
"Z c #2D2C2C",
"A c #2E2C2C",
"S c #2E2D2D",
"D c #2F2D2D",
"F c #313030",
/* pixels */
"lgr,++$,5ralZFZa:+,rar:+:rar:++$:5ralZFZa:+,rar:+ ",
"gar,++:55ralNZBa,$,ra6:+:rar,++:,5ralNZBa,$,rar:+.",
"rr5:$:,5rryallly5,56r5::5ala5::,5rryallly5,56r5:++",
",,:::,6ryrrrrrrrrr55,:::rlNlr,,6ryrrrrrrrrr55,::::",
"++$:55raar55:::5ry6:$$:5ycBNa55raar55:::5ry6:$$:,5",
"++:5ryyrrr65:+$,rr5:$:,6alNlr555rrr65:+$,rr5:$:556",
"$:5ally556rr5:::,,:::5ryaaar5:::,5rrr5:::,,:::5rry",
":5rlBcr::5yyr5::$$::56raar6,:++++:6yyr5::$$$:56yaa",
",5rgcg6:$5rrr65:$+$:,5rayr5,$+.++:5rrr65:$+$:,5raa",
"556rrr5:::55rrr5::$$:,5rrrr5:++++::55rrr5::$$:,6rr",
"55,:::::::$:5yar5::++:,5ryar:++$:::$:5yar5::++:,55",
":::$+:565:$:5ryr5:::$::,5rr6:$:565:$:5ryr5:::$::::",
"$$$+:5rga6::5rr5:::55,:::,5,::5yga6::5rr5:::55,:$$",
"+++$:rlNca5,555:$$,rr5:+++$$:,rlNca5,555:$$,rr5:++",
"$$$:,rlNNgr5,,::::5ryr,$$::::,rlNNgr5,,::::5ryr,:+",
"55,::5yllgy65::5ryyyrr556rr6,:5yglay6,::5ryyyrr555",
"yr6:$:5ryaar5::rlcly66rygcNg6::5ryaar5::rlclr6rryy",
"aar5:$:,5rar5::rcNlr55ralNBlr:$::5ray5::rcNlr56raa",
"ayr55::::5rr655raay655ryalcgr5::::5rr655raay655rry",
"66rrr5:$$:5rrrrr55555556rryyyr6:+$:5rrrr655,555566",
",55rar5:+:,5ryy5:$::,5555556rar5:$::5ryy5:$::,5555",
"$:,rrr65::::55655::::,565::,6rr65::::55655::::,5rr",
"++:56rrr6,$++::5rr5:$,rr6:$:,6rrr6,$++::5rr5:$,raa",
"++$:,5rar5:+++:5ry5:$,ryr,$$:56rar5:+++:5ry5:$,raa",
":::::,6rr5,,556rrr55,56r65,:::,6rr6,,556rrr55,56rr",
"rr5:$:,5rrrralgy5,56r65,56r5:$:,5rrryalgy5,56r65,:",
"aar,++:56ragNBNa,:5ry6:$:ryr,++:56ragNBNa,:,ry6:++",
"rr5:$:,5rryalcly5:5rr5:$:5r5:$:5ryaaalcly5:56r5:++",
":::::56rrrrrrrrrr655,:::::,:::5allarrrrrrr655,::::",
"+$$:,5raar55:::5rr6:$$:,::+$:,rlNNgr5:::5ry6:+$:,5",
"55,:,56rrr65:+$,rr5:$:555:++$:6allar5:+$,rr5:+:556",
"lgy5:::,5rrr5:::,,:::5rr6,:$$::5rryrr5:::,,:::5rry",
"ZBl6$+++:6yar5::$$$:56yay65:$+++$,6yar5::$$::56raa",
"ZBl6+..+:5rrr65:$++:,5raayr5:+..+:5rrr65:$+$:,5raa",
"lgy,+.++::55rrr5::$$:,5ralla5+.++::55rrr5::$$:,5rr",
"r65:++$:::$:5yar5::++$:5acBl6$+$:::$:5yyr5::++:,55",
",::$+:565:$:5ryr5::::::,rlNg6::,65:$:5ryr5::::::::",
"+$$$:5yga6::5rr5:::55,::,ryr5:5yga6::5rr5:::55,:$$",
"+++:,rlNNa5,,55:+$,rr5:++::::,rlNca5,555:$$,rr5:++",
"$$$:,rlNNgr5,,::::5ryr,$++$::,rlNNgr5,,::::5ryr,:+",
"55,::5yllgy65::5ryyyrr5555,:::5yllay65::5ryyyrr555",
"ar6:$:5ryaar5::rlcly6rryyyr5:$:5ryaar5::rlcly6rryy",
"aar5$$:,5ray5::rcNlr56raaaar5:$:,5ray5::rcNlr56raa",
"yyr55::::5rr655raay655rryyyr65::::5rr655raay655rry",
"66rrr6:$$:5rrrr655,55555666rrr6:$$:5rrrrr55,555556",
",55rar5:$:,5ryr5:$::,5555556rar5:$:,5ryy5:$::,5555",
"::56rr65::::5665,::::5565,:,6rr65::::5665,::::,56r",
"++:55rrr6,:+$:,5665::,rr6,$:,5rrr6,$+$:,5665::,6ya",
"+++:56yar5$+.+:5ya6:+,rar:++:56yar5$+.+$5ya6:+,rag",
".++:,6yay5+. .+5aa6:+,rar:++$,6aaa5+. .+5aa6:+:ral"
};
