/* XPM */
static char *atd6y_n7t2b[] = {
/* columns rows colors chars-per-pixel */
"50 50 172 2 ",
"   c None",
".  c #010102",
"X  c #06060A",
"o  c #07080C",
"O  c #090A0D",
"+  c #070811",
"@  c #0B0C13",
"#  c #0C0F19",
"$  c #0F1016",
"%  c #0E111A",
"&  c #111115",
"*  c #12141C",
"=  c #18171D",
"-  c #16181F",
";  c #131622",
":  c #151925",
">  c #1B1C24",
",  c #161B2A",
"<  c #1A1E2B",
"1  c #201F24",
"2  c #1E212E",
"3  c #1D2233",
"4  c #1F263A",
"5  c #23242D",
"6  c #28272F",
"7  c #29282E",
"8  c #222634",
"9  c #242835",
"0  c #2C2C34",
"q  c #232739",
"w  c #242B3C",
"e  c #2C2D3A",
"r  c #2F303B",
"t  c #313037",
"y  c #33333C",
"u  c #252D41",
"i  c #2A2F40",
"p  c #2C3245",
"a  c #2E3649",
"s  c #333542",
"d  c #3B3B43",
"f  c #31364A",
"g  c #343A4D",
"h  c #3C3D4B",
"j  c #373F53",
"k  c #3B3F51",
"l  c #3C4155",
"z  c #3E455A",
"x  c #444146",
"c  c #43434C",
"v  c #454652",
"b  c #474855",
"n  c #4B4A55",
"m  c #404659",
"M  c #43495E",
"N  c #4B4C59",
"B  c #504F59",
"V  c #53515B",
"C  c #5B585D",
"Z  c #454C61",
"A  c #484F64",
"S  c #4A5066",
"D  c #4E5469",
"F  c #555462",
"G  c #575867",
"H  c #5B5A64",
"J  c #54576A",
"K  c #5E5E6B",
"L  c #615F6E",
"P  c #62606B",
"I  c #68656C",
"U  c #646474",
"Y  c #6A6770",
"T  c #6C6A72",
"R  c #6C6B79",
"E  c #716E7A",
"W  c #75727C",
"Q  c #79767D",
"!  c #767483",
"~  c #797586",
"^  c #7C7A84",
"/  c #7B7D89",
"(  c #817D8A",
")  c #84828C",
"_  c #89858D",
"`  c #868793",
"'  c #898690",
"]  c #8D8B95",
"[  c #8D8E9B",
"{  c #928E96",
"}  c #918D98",
"|  c #95929B",
" . c #99959E",
".. c #9C989F",
"X. c #A1989F",
"o. c #9895A0",
"O. c #9B99A2",
"+. c #A19DA5",
"@. c #A39EA8",
"#. c #A3A0A7",
"$. c #A5A3AB",
"%. c #A8A5AD",
"&. c #AEA9AF",
"*. c #AAA7B2",
"=. c #AEAAB2",
"-. c #AFADB8",
";. c #B2AEB6",
":. c #B3AFB8",
">. c #B8B2B7",
",. c #B5B3BB",
"<. c #BAB5BC",
"1. c #BCB8BE",
"2. c #BEBBC2",
"3. c #C4BDC3",
"4. c #C5C2C7",
"5. c #C8C1C4",
"6. c #C5C2CA",
"7. c #C9C5CB",
"8. c #CBC9CE",
"9. c #CECCD2",
"0. c #D2CED3",
"q. c #D5D1D6",
"w. c #D5D4DA",
"e. c #D9D5DA",
"r. c #DBD9DD",
"t. c #E2DEE2",
"y. c #E3E0E5",
"u. c #E7E2E5",
"i. c #E5E1E4",
"p. c #E5E1E5",
"a. c #E6E4E8",
"s. c #EAE7E9",
"d. c #E9E7EA",
"f. c #EAE7EA",
"g. c #E9E7EA",
"h. c #EBEAEC",
"j. c #EEEBEE",
"k. c #EDECEF",
"l. c #ECE9EC",
"z. c #F2ECEF",
"x. c #F3EDF0",
"c. c #F5EEF1",
"v. c #F2EFF1",
"b. c #F3F0F2",
"n. c #F2F0F2",
"m. c #F6F4F6",
"M. c #F7F6F7",
"N. c #F4F2F4",
"B. c #F9F1F2",
"V. c #FBF6F7",
"C. c #FAF5F7",
"Z. c #F8F6F7",
"A. c #F8F7F8",
"S. c #F9F7F8",
"D. c #FAF8F9",
"F. c #FAF9F9",
"G. c #FBFAFB",
"H. c #FBF9FA",
"J. c #FDFAFB",
"K. c #FFFAFB",
"L. c #FCFBFC",
"P. c #FDFCFD",
"I. c #FDFCFD",
"U. c #FFFCFD",
"Y. c #FFFDFD",
"T. c #FEFDFD",
"R. c #FEFDFE",
"E. c #FEFEFE",
"W. c #FFFEFE",
"Q. c #FFFEFF",
"!. c #FFFFFF",
"~. c #FFFFFF",
/* pixels */
"                                                                                                    ",
"                          . . > d h @ .               . O t d & X                                   ",
"                      . X > T <.;.F @                   X n @.;.Q d & .                             ",
"                    . O d +.s.M.$.e X                   . @ B 3.b.q.) 0 X .                         ",
"                  . X B 2.A.!.!.0.W * .                 . * G 6.M.!.b.,.c @ .                       ",
"                . X N ,.J.!.J.2.H $ X                     @ d O.s.!.!.M.6.N @ .                     ",
"                . ; +.c.!.A.,.c . .                           > T 8.J.!.H.;.c . .                   ",
"                X y <.J.!.i.U * .                             . X I 0.!.!.C.;.n X .                 ",
"                @ H 0.!.H.0.c o .                               . 5 ' B.!.!.v...- .                 ",
"                @ H q.!.H.0.x X .                               . + H 0.H.!.!.1.t X                 ",
"                O h 4.!.!.t.K * .                               . @ P e.J.!.!.4.h O                 ",
"                X e <.!.!.M.*.d . .                             . 9 ] c.!.!.!.<.s X                 ",
"                . * _ y.!.!.k.] 0 . .                       . X > ^ w.!.!.!.t._ * .                 ",
"                  X b ;.H.!.!.i.#.H x y 0 0 0 0 0 0 7 7 t x C ^ 1.h.!.!.!.M.+.s X                   ",
"              . * V O.r.!.!.!.!.!.C.s.w.9.8.9.0.9.8.8.7.9.i.C.!.!.!.!.!.L.<.n . .                   ",
"          . O x $.a.!.!.!.!.!.!.!.!.!.!.!.!.!.!.!.!.!.!.!.!.!.!.!.!.!.s.=.b y h 0 O                 ",
"        . o V <.L.!.!.!.!.!.!.!.!.!.!.!.!.!.!.!.!.!.!.!.!.!.!.!.!.l.;.H 5 e { t.4.H = .             ",
"        X r %.!.!.!.!.!.!.!.!.!.!.!.!.!.!.!.!.!.!.!.!.!.!.!.!.!.!.9.! v ^ 4.b.!.J.r.P @ .           ",
"      . O H 8.!.!.!.!.!.!.!.!.!.!.!.!.!.!.!.!.!.!.!.!.!.!.!.!.!.!.H.l.s.H.!.!.!.!.A.[ 0 . .         ",
"      . @ E w.!.!.!.!.!.!.!.!.!.!.!.!.!.!.!.!.!.!.!.!.!.!.!.!.!.!.!.!.!.!.!.!.!.!.!.,.N . .         ",
"      . * | s.!.!.!.!.!.!.!.!.!.!.!.!.!.!.!.!.!.!.!.!.!.!.!.!.!.!.!.!.!.!.!.!.!.!.!.t.^ # .         ",
"      . > | 3.0.v.!.!.!.!.!.!.!.!.b.e.<.$.=.8.b.!.!.!.!.!.!.!.!.!.!.!.!.!.!.!.!.!.!.c.| 2 X         ",
"      . % i 5 y ] h.!.!.!.!.!.b.2.U 0 * X O 0 } t.!.!.!.!.!.!.!.!.!.!.!.!.!.!.!.!.!.M. .5 X         ",
"      . X + . @ b 0.H.!.!.!.J.,.n . . . . . X 5 | l.!.!.!.!.!.!.!.!.!.!.!.!.!.!.!.!.z.{ > .         ",
"      . o o . O v 0.H.!.!.!.h.^ > . . . . . . . H 6.!.!.!.!.!.!.!.!.!.!.!.!.!.!.!.!.i.( * .         ",
"      . . . . @ N q.J.!.!.!.b.` 8 . . o X . . . n ,.!.!.!.!.!.!.!.!.!.!.!.!.!.!.!.!.6.H X .         ",
"      . . . . > Y t.!.!.!.!.!.6.K X . . . . . O T 0.!.!.!.!.!.!.!.!.!.!.!.!.!.!.!.v.' 6 . .         ",
"        . % v | e.H.!.!.!.!.!.H.0.) c 6 > > d ^ 8.H.!.!.!.!.!.!.!.!.!.!.!.!.!.H.w.) 0 . . .         ",
"        . X d o.l.!.!.!.!.!.!.!.!.H.s.r.q.q.i.C.!.!.!.!.!.!.!.!.!.!.!.!.!.n.7._ d @ * > @ . .       ",
"            . > H  .8.f.A.!.!.!.!.!.!.!.!.!.!.!.!.!.!.!.!.!.!.H.M.f.q.,.' H 6 O & t s 5 @ . .       ",
"                . O 1 y V T _  .#.&.>.3.7.8.7.5.3.2.>.#.[ / R H b d 0 > * * 6 s h 5 O . .           ",
"                    .   . . . o + @ ; * > 8 2 < ; % @ + # ; * o + 5 c F P R J i + . .               ",
"                          . X $ * * ; X * p z m l p 2 % # , q 4 ; < k U ~ ( ! N @ .                 ",
"                          . > > > 9 2 O o , p Z D D S z p < % % , ; @ ; k G b 5 X .                 ",
"                          X > * 2 g 5 O : p 3 < e l S D D A k 8 % + o X o @ X . .                   ",
"                        . X & * e z < O 8 Z M p , * < p z S D S l q % . . . .                       ",
"                        . X X < k m % X 2 z D D Z g 8 * ; 3 f M S S j 3 o . . .                     ",
"                        . X * s M a O + # : a Z D D S z p 2 ; ; 8 g Z Z i % . . .                   ",
"                        . $ y M g * X , u 3 % < a Z D D J A l p < ; : 9 a u ; . .                   ",
"                        X > l z 8 X X @ < w p < % : u l A D D D S z p 3 : ; , ; . .                 ",
"                        . X < < @ . . . . o : w u 4 ; ; < i l Z D D D D M f 3 # . .                 ",
"                          . + + o . . . . . . X @ < i w 3 ; * : 9 s k z Z S Z g : X .               ",
"                          . . @ @ . . . . . . . . . . # < 4 4 8 2 ; # % : 2 9 8 , X . .             ",
"                            . o o . . . . . . . . . . . . . O % , 3 8 8 8 8 3 3 q w : o . .         ",
"                              . . . . . . . . . . . . . . . . . . . . X @ ; : > < < : @ . .         ",
"                                . . . . . . .     . . . . . . .             . . . .                 ",
"                                  . . . . . .       . . . . . .                                     ",
"                                      . . . .         . . . .                                       ",
"                                          . .         . .                                           ",
"                                                                                                    "
};
