/* XPM */
static char *aku82_2uzdz[] = {
/* columns rows colors chars-per-pixel */
"50 50 151 2 ",
"   c None",
".  c #8085FF",
"X  c #8B87FF",
"o  c #8489FF",
"O  c #888AFF",
"+  c #908EFF",
"@  c #9C8EFF",
"#  c #8D96FF",
"$  c #9697FF",
"%  c #9B91FF",
"&  c #9399FF",
"*  c #9B9BFF",
"=  c #A49CFF",
"-  c #AE9CFF",
";  c #B39CFF",
":  c #BA9DFF",
">  c #96A4FF",
",  c #9DA5FF",
"<  c #9DAAFF",
"1  c #A2A4FF",
"2  c #AAA5FF",
"3  c #A1ABFF",
"4  c #A9ABFF",
"5  c #B3A3FF",
"6  c #BBA4FF",
"7  c #B3AAFF",
"8  c #BBADFF",
"9  c #A3B0FF",
"0  c #ADB1FF",
"q  c #AEBCFF",
"w  c #B2B3FF",
"e  c #BDB3FF",
"r  c #B4BBFF",
"t  c #BCBBFF",
"y  c #C4A4FF",
"u  c #C4A9FF",
"i  c #C9AFFF",
"p  c #D3A8FF",
"a  c #C5B4FF",
"s  c #CAB5FF",
"d  c #C1BBFF",
"f  c #CCBCFF",
"g  c #D2B5FF",
"h  c #D5BCFF",
"j  c #ACC6FF",
"k  c #AFC8FF",
"l  c #B3C1FF",
"z  c #BBC2FF",
"x  c #B7C9FF",
"c  c #BBCCFF",
"v  c #BBD0FF",
"b  c #C3C3FF",
"n  c #CCC5FF",
"m  c #C3CCFF",
"M  c #CDCCFF",
"N  c #D4C5FF",
"B  c #D8C7FF",
"V  c #D4CCFF",
"C  c #DCCDFF",
"Z  c #C4D3FF",
"A  c #CCD2FF",
"S  c #CEDCFF",
"D  c #D3D4FF",
"F  c #DBD4FF",
"G  c #D4DBFF",
"H  c #DCDBFF",
"J  c #E0CCFF",
"K  c #E2D5FF",
"L  c #E3DCFF",
"P  c #E8DBFF",
"I  c #D2E3FF",
"U  c #DCE3FF",
"Y  c #DEE8FF",
"T  c #E3E1FF",
"R  c #E1E3FF",
"E  c #E1E1FF",
"W  c #E4E1FF",
"Q  c #E6E2FF",
"!  c #E3E4FF",
"~  c #E2E5FF",
"^  c #E3E7FF",
"/  c #E5E4FF",
"(  c #E4E5FF",
")  c #E4E6FF",
"_  c #E5E7FF",
"`  c #E6E6FF",
"'  c #E4E3FF",
"]  c #E8E0FF",
"[  c #E8E6FF",
"{  c #EBE7FF",
"}  c #ECE6FF",
"|  c #ECE5FF",
" . c #E2E8FF",
".. c #E3EAFF",
"X. c #E4E8FF",
"o. c #E5E8FF",
"O. c #E4E9FF",
"+. c #E5EBFF",
"@. c #E1EDFF",
"#. c #E3ECFF",
"$. c #E5EEFF",
"%. c #E4EAFF",
"&. c #E8E8FF",
"*. c #E8E9FF",
"=. c #E9E9FF",
"-. c #EBE9FF",
";. c #E9EAFF",
":. c #E9EBFF",
">. c #EAEAFF",
",. c #EBEAFF",
"<. c #EBEBFF",
"1. c #EDE8FF",
"2. c #ECE9FF",
"3. c #EEE8FF",
"4. c #ECEBFF",
"5. c #EFEBFF",
"6. c #EAEDFF",
"7. c #EBEDFF",
"8. c #E9EFFF",
"9. c #ECEDFF",
"0. c #EFEDFF",
"q. c #ECEFFF",
"w. c #ECECFF",
"e. c #F1E7FF",
"r. c #F1E9FF",
"t. c #F1EAFF",
"y. c #F2ECFF",
"u. c #F2EDFF",
"i. c #EAF0FF",
"p. c #EAF1FF",
"a. c #EDF1FF",
"s. c #EEF1FF",
"d. c #F1F1FF",
"f. c #F3F2FF",
"g. c #F4F0FF",
"h. c #F4F3FF",
"j. c #F6F2FF",
"k. c #F0F5FF",
"l. c #F3F5FF",
"z. c #F5F5FF",
"x. c #F7F7FF",
"c. c #F4F3FF",
"v. c #F8F6FF",
"b. c #F5F8FF",
"n. c #F7F8FF",
"m. c #F7F8FF",
"M. c #FAF9FF",
"N. c #FAFAFF",
"B. c #FCFDFF",
"V. c #FEFEFF",
"C. c #FBFBFF",
/* pixels */
"                                                                                                    ",
"                                                                                                    ",
"                                                                                                    ",
"                                                                                                    ",
"                                                                                                    ",
"                                              l                                                     ",
"                        >                     Z w d   e t                                           ",
"                        & >       -           P L M       >                                         ",
"                            z   w n       s C t w r G U                                             ",
"                                F D   p h     q r e B o.$.i.l                                       ",
"                                L / J   X     V D   C B   i.#.S Z               =                   ",
"                  :           K L L q.  *   C t m     ; -     U o.                                  ",
"                    :         P d t d.M [ 1.2 $ U       a a     A U S     r H                       ",
"                      u 6     6 4   P d.L / 1 0 =.U m D F ] Q   d m Z Z 2 7 m                       ",
"                        : 6 h s F g F R t A A D V n.a.G ~ =.d./ n w G m d   j                       ",
"                      e 7 B r.j.Q e M =.~   Z G n 7.R m n M 0 o.M.M ~ G G   9 r                     ",
"                        t h K F F n Q =.=.N G ..G =.=.z B n   =.L 8 b A G   b D                     ",
"                      - 0 d 5 2 d h L =.D n K d.i.A q./ [     d.A e F D =.V n m                     ",
"                    4 a   D r V V h } q.    L 1.7.U =.B.y.V b r.7.d F 1./ m r   q                   ",
"                6 : 7 f f D A o.H n 1.q.    C F Q z.z.n.M.L e L z.V M b 8 b G   m z                 ",
"                      K g   z ../ G M.k.#.1.U b b H B.B.B.j.t 8 =.w   .   n M     Z                 ",
"                      } C   3 U V t 7.7./ ~ I Y d.q.Q z.B.B.z.D ~ F       & r     #.                ",
"                      v.G z r U / F H M.q.G U   R d.=.z.B.M.j.n.M.z.  z   O #       j               ",
"                      y.z.  M H A [ / j.} t D M b F L R z.d.b 1.B.z.1...n                           ",
"                      H o.P 8 b   q.k.z.j.M H R F V K d F H 7.a.B.M.y.S     ,     x                 ",
"                      H m P L A     d.y.[ H [ P L =.d.L R H a.o.a.H ] L   #                         ",
"                      1.~ / q.d.G c k.M.d.z.M.Q M U z.y.z.] S Y b @ s 1.G 2                         ",
"                      J R G B V | / d.z.G b z.j.M H M.B.v.  z 0 < = b U [         q                 ",
"                      y b 7.C K R v.q.] F t } j.K i u.n.R o.D b m G 7.G ~         M a               ",
"                          A d.} 1.[ z.v.| K e.Q | C r.M.U m 2 A G D 1.C G               y :         ",
"                        x G q.1.B.B.B.B.M.P C b M v.M.z.7.G D l , t N u   3 4 &                     ",
"                    j       D a.d.1.q.k.n.z.M.7.D [ M.a.=.q.z , w u s N 2 r                         ",
"                            D U U H ~ / F n F v.F V d.B.7.q.b 7 u ; B 1                             ",
"                        v U c < r N   =.C y b } C G [ e.y.V G K ; % V                               ",
"                            j Z Z R     z     Q D     f y.Q F V 2 %                                 ",
"                                c Y Y c r     M *     D v.| N t q 7                                 ",
"                                    U x S c   w + o   Q j.F       f                                 ",
"                                      2     j S S D G 7 f                                           ",
"                                              n Q $.c >                                             ",
"                                            5 a                                                     ",
"                                                                                                    ",
"                                                                                                    ",
"                                                                                                    ",
"                                                                                                    ",
"                                                                                                    ",
"                                                                                                    ",
"                                                                                                    ",
"                                                                                                    ",
"                                                                                                    ",
"                                                                                                    "
};
