/* XPM */
static char *t2dwv_k67l9[] = {
/* columns rows colors chars-per-pixel */
"50 50 79 1 ",
"  c #8284FF",
". c #8A8DFF",
"X c #9187FF",
"o c #978EFF",
"O c #998EFF",
"+ c #8B91FF",
"@ c #9596FF",
"# c #9D94FF",
"$ c #9A9CFF",
"% c #A594FF",
"& c #AD96FF",
"* c #A699FF",
"= c #AA99FF",
"- c #BD9DFF",
"; c #95A5FF",
": c #9FA5FF",
"> c #9DAAFF",
", c #9EB3FF",
"< c #A5A6FF",
"1 c #AAA0FF",
"2 c #A2ABFF",
"3 c #ABADFF",
"4 c #B4A3FF",
"5 c #BEA6FF",
"6 c #B4ABFF",
"7 c #BCACFF",
"8 c #A2B4FF",
"9 c #ADB5FF",
"0 c #A3BDFF",
"q c #ABB9FF",
"w c #B4B4FF",
"e c #BBB3FF",
"r c #B5BBFF",
"t c #BBBCFF",
"y c #C4A3FF",
"u c #C3ADFF",
"i c #C2B4FF",
"p c #CAB5FF",
"a c #C3BCFF",
"s c #CBB9FF",
"d c #D4B6FF",
"f c #AEC0FF",
"g c #B5C6FF",
"h c #BCC4FF",
"j c #BBC9FF",
"k c #BDD2FF",
"l c #C1C4FF",
"z c #CBC3FF",
"x c #C4CBFF",
"c c #CBCCFF",
"v c #D2C5FF",
"b c #DBC7FF",
"n c #D4CDFF",
"m c #DBCDFF",
"M c #C5D2FF",
"N c #CCD3FF",
"B c #CFD8FF",
"V c #D4D3FF",
"C c #DBD4FF",
"Z c #D5DAFF",
"A c #DDDBFF",
"S c #E2CFFF",
"D c #E1D5FF",
"F c #E4DBFF",
"G c #E9DEFF",
"H c #D4E1FF",
"J c #DDE2FF",
"K c #E4E4FF",
"L c #EAE5FF",
"P c #E6EAFF",
"I c #EBECFF",
"U c #F0E7FF",
"Y c #F1EDFF",
"T c #EDF2FF",
"R c #F3F3FF",
"E c #F8F6FF",
"W c #F7F9FF",
"Q c #FCFCFF",
"! c None",
/* pixels */
"!!!!!!!!!!!!!!!!!!!!!!!!!!!!!!!!!!!!!!!!!!!!!!!!!!",
"!!!!!!!!!!!!!!!!!!!!!!!!!!!!!!!!!!!!!!!!!!!!!!!!!!",
"!!!!!!!!!!!!!!!!!!!!!!!!!!!!!!!!!!!!!!!!!!!!!!!!!!",
"!!!!!!!!!!!!!!!!!!!!!!!!!!!!!!!!!!!!!!!!!!!!!!!!!!",
"!!!!!!!!!!!!!!!!!!!!!!!!<!!!!!!!!!!!!!!!!!!!!!!!!!",
"!!!!!!!!!!!!!!!!!!!!!!!!r!!!!!!!!!!!!!!!!!!!!!!!!!",
"!!!!!!!!!!!!!!!!!!!!!!!!l!!!!!!!!!!!!!!!!!!!!!!!!!",
"!!!!!!!!!!!!!!!!!!!!!!!!V!!!!!!!!!!!!!!!!!!!!!!!!!",
"!!!!!!!!!!!!!!!!!!!!!!!!A!!!!!!!!!!!!!!!!!!!!!!!!!",
"!!!!!!!!!!!!!!!!!!!!!qhNA!!!!!!!!!!!!!!!!!!!!!!!!!",
"!!!!!!!!!!!!!!  !!!!!hqcAfj!!!4!!!!!!!!!!!!!!!!!!!",
"!!!!!!!!!!!!!!! .!!!!A@wx>Mk!Fz!!!!!!!!!!!!!!!!!!!",
"!!!!!!!!!!!!!!!!@rc!Uz!!c!cPRPh!!!!!!!!!!!!!!!!!!!",
"!!!!!!!!!!!!!!!!!JF!R!!!V4zFKWRj!!!!!!!!!!!!!!!!!!",
"!!!!!!!!!!!!!!!!lNRRRAFFAcIJ2rTTH>!!!!!!!!!!!!!!!!",
"!!!!!!!!!!!!!!!$lZQQRPRTRRZj: ;rTJ!!!!!!!!!!!!!!!!",
"!!!!!!!!!!!!!!lxIQQQPPRRWRIIJ<!+thx!!!!!!!!!!!!!!!",
"!!!!!!!!!!!!6sIIVRQWBqhIZxVPQTABJB!!!!!!!!!!!!!!!!",
"!!!!!!!!!!!!e=!JxQRI9VnmzzlPQQTQIJV!!!!!!!!!!!!!!!",
"!!!!!!!!!!!!e!V!xIIWTRRAazzPQQQTZPV9+!!!!!!!!!!!!!",
"!!!!!!!!!!VVzVzhaIQQvaKIRQQQQWQRIKTM;!!g!!!!!!!!!!",
"!!!!!!!!!!!ZALPRQQRPV6nRQQQKRTxhIxJK!gw!!!!!!!!!!!",
"!!!!!!!!!!!YKhLQRQRLERYQQIZrRRZTPgJPV!e!!!!!!!!!!!",
"!!!!!!!!!!!!PhxRZIKJRKIRAmanQRWQJ9KP9C!!!!!!!!!!!!",
"!!!!!!!!!!!!IIeaYQPKIctZvpFERKC!JMATqa!!!!!!!!!!!!",
"!!!!!!!!!!!!PJK!AQVKAncxZzvUYb!!qNYQ3=!!!!!!!!!!!!",
"!!!!!!!!!!!nYDKhxJKmBrzzZVAwCGC!!ATTw&!!!!!!!!!!!!",
"!!!!!!!!!!!lL!tBTRQL!!!eVL!!cLRF!aTPJ-!!!!!!!!!!!!",
"!!!!!!!!!!!!CCrIEREI!!eeZF;2zsz!CVRTxuMq!!!!!!!!!!",
"!!!!!!!!!!!!!GzKRIFEn7CcKI9o=d7!KIQTBZj!!!!!!!!!!!",
"!!!!!!!!!!!!!bLK!YLFKlcELAw<zcAZMHQQIL!!!!!!!!!!!!",
"!!!!!!!!!!!z!eV!!CRCIQIvaZ2tKkTWHPTjAt !!!!!!!!!!!",
"!!!!!!!!!!!!!!zu!eREFK3#aIKRWTQPTEA$N6!!!!!!!!!!!!",
"!!!!!!!!!!!!x!ppdeRYUKvaUREQRFRTFVZrl!!!!!!!!!!!!!",
"!!!!!!!!!!!pw0!bSivLUDr!MRQUnIERCAKIJ!!!!!!!!!!!!!",
"!!!!!!!!!!!!#8!!d!vDuBLJjJRhaREKNPA!!!!!!!!!!!!!!!",
"!!!!!!!!!!!!!#f!!DD!zrILrNKgBWQIAt+!!!!!!!!!!!!!!!",
"!!!!!!!!!!!!!O>!!UL!!!!FpCxcIVACA!!!!!!!!!!!!!!!!!",
"!!!!!!!!!!!!!!ojb!Gc8a!!pmZDaXinm!!!!!!!!!!!!!!!!!",
"!!!!!!!!!!!!!!*z!u7i!!c82ZLCO!!6m!!!!!!!!!!!!!!!!!",
"!!!!!!!!!!!!!!!4!544y!!!!KRJ!!!#!4!!!!!!!!!!!!!!!!",
"!!!!!!!!!!!!!!!!*!!!&!!!!!!M!!!%!&!!!!!!!!!!!!!!!!",
"!!!!!!!!!!!!!!!!s!!!!*!!!!!!!!!!!!!!!!!!!!!!!!!!!!",
"!!!!!!!!!!!!!!!!4!!!!!!!!!!!!!!!!!!!!!!!!!!!!!!!!!",
"!!!!!!!!!!!!!!!!!!!!!!!!!!!!!!!!!!!!!!!!!!!!!!!!!!",
"!!!!!!!!!!!!!!!!!!!!!!!!!!!!!!!!!!!!!!!!!!!!!!!!!!",
"!!!!!!!!!!!!!!!!!!!!!!!!!!!!!!!!!!!!!!!!!!!!!!!!!!",
"!!!!!!!!!!!!!!!!!!!!!!!!!!!!!!!!!!!!!!!!!!!!!!!!!!",
"!!!!!!!!!!!!!!!!!!!!!!!!!!!!!!!!!!!!!!!!!!!!!!!!!!",
"!!!!!!!!!!!!!!!!!!!!!!!!!!!!!!!!!!!!!!!!!!!!!!!!!!"
};
