/* XPM */
static char *cawih_ra36c[] = {
/* columns rows colors chars-per-pixel */
"50 50 84 1 ",
"  c #7E80FF",
". c #8483FF",
"X c #8A86FF",
"o c #8C8BFF",
"O c #948CFF",
"+ c #998DFF",
"@ c #8B91FF",
"# c #9497FF",
"$ c #9B93FF",
"% c #939BFF",
"& c #9A9CFF",
"* c #A692FF",
"= c #A894FF",
"- c #AC9EFF",
"; c #B79AFF",
": c #BF9FFF",
"> c #95A5FF",
", c #9CA4FF",
"< c #9EABFF",
"1 c #A3A4FF",
"2 c #ACA2FF",
"3 c #A3ABFF",
"4 c #ACAAFF",
"5 c #B3A3FF",
"6 c #BDA4FF",
"7 c #B4ADFF",
"8 c #BCACFF",
"9 c #A3B1FF",
"0 c #ACB5FF",
"q c #A2BBFF",
"w c #ABBDFF",
"e c #B4B3FF",
"r c #BAB3FF",
"t c #B2BCFF",
"y c #BCBCFF",
"u c #C2A4FF",
"i c #C4ABFF",
"p c #C9AAFF",
"a c #C2B4FF",
"s c #CBB3FF",
"d c #C3BCFF",
"f c #CBBBFF",
"g c #D2B4FF",
"h c #D2BAFF",
"j c #D9BCFF",
"k c #AEC4FF",
"l c #B5C4FF",
"z c #BCC3FF",
"x c #B4C9FF",
"c c #BCCAFF",
"v c #C4C3FF",
"b c #CEC4FF",
"n c #C3CBFF",
"m c #CBCBFF",
"M c #D4C3FF",
"N c #DAC3FF",
"B c #D3CCFF",
"V c #DBCBFF",
"C c #C4D2FF",
"Z c #CDD4FF",
"A c #CEDCFF",
"S c #D4D4FF",
"D c #DCD4FF",
"F c #D4DCFF",
"G c #DCDCFF",
"H c #E2CCFF",
"J c #E1D4FF",
"K c #E3DDFF",
"L c #EADCFF",
"P c #D3E2FF",
"I c #DDE2FF",
"U c #DEEAFF",
"Y c #E3E3FF",
"T c #EBE4FF",
"R c #E5EAFF",
"E c #ECEBFF",
"W c #F0E5FF",
"Q c #F2ECFF",
"! c #EEF2FF",
"~ c #F4F4FF",
"^ c #F9F6FF",
"/ c #F7F8FF",
"( c #FBFBFF",
") c None",
/* pixels */
"))))))))))))))))))))))))))))))))))))))))))))))))))",
"))))))))))))))))))))))))))))))))))))))))))))))))))",
"))))))))))))))))))))))))))))))))))))))))))))))))))",
"))))))))))))))))))))))))))))))))))))))))))))))))))",
"))))))))))))))))))))))))))))))))))))))))))))))))))",
"))))))))))))))))))))))))))))))))))))))))))))))))))",
")))))))))))))))))))))))),w))))h)))))))))))))))))))",
")))))))))))))))))))))))))l))rYm@@)))))))))))))))))",
")))))))))))))))<)))))=)))nMVMBt)))))))))))))))))))",
")))))))))))))))O3))))8)))DNdmmkA))))))))))))))))))",
"))))))))))))))))oAz%md)g)BMfhe>cI)))))))))))))))))",
"))))))))))))))))O&09YjNyVBr,)=))F/P)))))))))))))))",
")))))))))))))))))&)B^K)KSt3&))*)0PCq))))-)))))))))",
")))))))))))))u)rd1yG^ED4nCy7w))8G)n0zxFI))))))))))",
"))))))))))))))66V5M/(~b)tnlK~z&IE))mm4GY))))))))))",
")))))))))))))));)iM/QYBaMyFmWGzZ(TYGF-)3x)))))))))",
"))))))))))))))))))MYGKKDM)PYG/YG~W^(QyoXq)))))))))",
"))))))))))))6+)*)2MEG)YEBGI~RR~FY)D~B0edyn))))))))",
"))))))))))))M-)23lS~~)TT))CR/(((TeYKD/(S>9))))))))",
"))))))))),,3Yv1mCcR(IF~~IZSUR(/(^YKTKTRe)3))c)))))",
")))))))))))pLGMgfvZ~IJQBmRFvZIAA(((~v7EG7e7)c)))))",
"))))))))))))hBYf6)m!E^LVbEmtRvcP((((G1vIv)))))))))",
")))))))))U!TTTYFBd1Sm(~YVES)Tn0R~IY^FxZ)))))q)))))",
"))))))))))))j)&,75&zSTI!E~S4ySK~(TT^QvSU))))))))))",
"))))))))))))u)MdtM7SJSnYBY!UnySGQEKTKJ7kt)))))))))",
"))))))))))))u))svSKYMvBYTGYGR!YESRTndpiAt&))k)))))",
")))))))))))):)3eG~^~YSGQE^~BcFR~Y(En7lYFy)))t)))))",
")))))))))))sg)r4)Q((E(ELaT(^mcRKD!(RSFI)v)))))))))",
")))))))))))))))%)I~(~Y(LNHN^~KKTE!RnYR))G)))z)))))",
")))))))))))))))wI~!/(~(~TVMBB~(ERTwITD)iz)))s)))))",
"))))))))))))))xCSF!!!T(~QTQYG(ED(InG8f4a0)))))))))",
")))))))))))))k))4S~ZY7KVQQTbY~E~(~Ya)))8w)))))))))",
"))))))))))))))))zR(RRzDbW(W)TRE/~KD7)))5))))))))))",
"))))))))))))))))))R~Sdy0I((QT(/GRd)))Xf)))))))))))",
"))))))))))))))))))C/SD7)c^(~Y~FSm))) O))))))))))))",
")))))))))))))))))))!//~Cm~SKYhv#))3o))))))))))))))",
")))))))))))))))))))cASYGREM)JB))).$4))))))))))))))",
"))))))))))))))))))))<48)VYCxd)pOX+*)))))))))))))))",
")))))))))))))))))))))yr8))))kcGa*)))))))))))))))))",
"))))))))))))))))))))))7-)))))BYC))))))))))))))))))",
")))))))))))))))))))))))))))BS)))))))))))))))))))))",
"))))))))))))))))))))))))))))))))))))))))))))))))))",
"))))))))))))))))))))))))))))))))))))))))))))))))))",
"))))))))))))))))))))))))))))))))))))))))))))))))))",
"))))))))))))))))))))))))))))))))))))))))))))))))))",
"))))))))))))))))))))))))))))))))))))))))))))))))))",
"))))))))))))))))))))))))))))))))))))))))))))))))))",
"))))))))))))))))))))))))))))))))))))))))))))))))))",
"))))))))))))))))))))))))))))))))))))))))))))))))))",
"))))))))))))))))))))))))))))))))))))))))))))))))))"
};
