/* XPM */
static char *eev50_9wu3f[] = {
/* columns rows colors chars-per-pixel */
"50 50 81 1 ",
"  c #8886FF",
". c #8E8CFF",
"X c #9089FF",
"o c #8C95FF",
"O c #8E98FF",
"+ c #9490FF",
"@ c #939CFF",
"# c #9B9DFF",
"$ c #A197FF",
"% c #A896FF",
"& c #A69BFF",
"* c #AA9AFF",
"= c #B19CFF",
"- c #B99CFF",
"; c #96A2FF",
": c #9CA2FF",
"> c #9DABFF",
", c #A0A4FF",
"< c #A8A7FF",
"1 c #A5ACFF",
"2 c #ABABFF",
"3 c #B4A7FF",
"4 c #BBA5FF",
"5 c #B5ADFF",
"6 c #BAAEFF",
"7 c #A6B7FF",
"8 c #ACB4FF",
"9 c #A8B9FF",
"0 c #B1B5FF",
"q c #BCB4FF",
"w c #B4BCFF",
"e c #BBBDFF",
"r c #C4A3FF",
"t c #CBA5FF",
"y c #CBAEFF",
"u c #C3B4FF",
"i c #CDB3FF",
"p c #C2BCFF",
"a c #CABCFF",
"s c #D4B5FF",
"d c #D4BCFF",
"f c #DBBDFF",
"g c #ABC3FF",
"h c #ACC9FF",
"j c #B3C2FF",
"k c #BCC3FF",
"l c #B5CDFF",
"z c #BDCCFF",
"x c #BBD3FF",
"c c #C3C4FF",
"v c #CAC4FF",
"b c #C4CBFF",
"n c #CBCCFF",
"m c #D3C3FF",
"M c #D9C4FF",
"N c #D3CCFF",
"B c #DCCDFF",
"V c #C6D1FF",
"C c #CBD2FF",
"Z c #CFDCFF",
"A c #D3D4FF",
"S c #DBD4FF",
"D c #D5DBFF",
"F c #DBDBFF",
"G c #E2C7FF",
"H c #E4D5FF",
"J c #E9D5FF",
"K c #E4DDFF",
"L c #EADDFF",
"P c #DDE2FF",
"I c #E3E3FF",
"U c #EBE4FF",
"Y c #E4EBFF",
"T c #ECEBFF",
"R c #F0E5FF",
"E c #F3EDFF",
"W c #EEF1FF",
"Q c #F4F3FF",
"! c #F9F6FF",
"~ c #FBFBFF",
"^ c None",
/* pixels */
"^^^^^^^^^^^^^^^^^^^^^^^^^^^^^^^^^^^^^^^^^^^^^^^^^^",
"^^^^^^^^^^^^^^^^^^^^^^^^^^^^^^^^^^^^^^^^^^^^^^^^^^",
"^^^^^^^^^^^^^^^^^^^^^^^^^^^^^^^^^^^^^^^^^^^^^^^^^^",
"^^^^^^^^^^^^^O^^^^^^^^^^^^^^^^^^^^^^^^^^^^^^^^^^^^",
"^^^^^^^^^^^^^;;^^^^^^^^^^^^^^^^^^^^^^^^^^^^^^^^^^^",
"^^^^^^^^^^^^^^8n^^^^^^^^^o^^^^^^^^^^^^^^^^^^^^^^^^",
"^^^^^^^^^^^^^^^Db;O;c^^^^^^@^^^^^^^^^^^^^ ^^^^^^^^",
"^^^^^^^^^^^^^^^^zw^1AFp^^^^^1O^^^^^^^^^^.^^^^^^^^^",
"^^^^^^^^^^^^^^^^qw*mTUS#^^^^^;:j^^^^^^^^^^^^^^^^^^",
"^^^^^^^^^--^^^^^4SMd8pUIn0,^^9j>^^^^^^^^^^^^^^^^^^",
"^^^^^^^^^^--^^^LJKKDAFnQ!TFIIWYk^^^^^^^^^^^^^^^^^^",
"^^^^^^^^^^^-^^REm^YbFSDcF~~!!!~D^^^^^^^^^^^^^^^^^^",
"^^^^^^^^^^^^dfaBFnTYT!P#<TSIIDIPD^^^^^^^^^^^^^^^^^",
"^^^^^^^^^^^^^i=rd^V!U!DeeANNPDPVIb^^^^^^^^^^^^^^^^",
"^^^^^^^^^^^^^Bdt6PwFIPU0eFNSTAzVwj^^^^^^^^^^^^^^^^",
"^^^^^^^^^^^^^UBGSD0FQeDc^Uuc!!8>jc:^^^E^^^^^^^^^^^",
"^^^^^^^^^^^e^KSLNbTQbbKI^J^KTTc^^P1^Q^^^^^^^^^^^^^",
"^^^^^^^^^^>CFQULUKEDvDFDBM^FAkA^^AFF^^^^^^^^^^^^^^",
"^^^^^^^^^^^I!T~~~AIw5STYQBmKFcnF^2Kb^^^^^^^^^^^^^^",
"^^^^^^^^^^^C!L~~~ETnITFETT^^v3Cw@^aD^^^^^^^^^^^^^^",
"^^^^^^^^^^^D~UIJIQAeF!FQEUnFAeFa5qtAY^^^^^^^^^^^^^",
"^^^^^^^^^^^I~QTUW!FAPQQE!QUTFSTdiJMHP^^^^^^^^^^^^^",
"^^^^^^^^^^^SY~QQQUKv^D!IT~EAnw0q*AIKDn^^^^^^^^^^^^",
"^^^^^^^^^^^&c~F!TdU^^AINSE~EI:8^^9bcc7:^^^^^^^^^^^",
"^^^^^^^^^^^X<UQ!EUTI^SnvKK!~YePVj>^;8k8^^^^^^^^^^^",
"^^^^^^^^^^^^&K~~TQT!^IPAQAW~EFWDw^^k8b^^^^^^^^^^^^",
"^^^^^^^^^^^^1Q~~IE!!EKn!!K!!!QYIn^^1w1^^^^^^^^^^^^",
"^^^^^^^^^^^^^!~~!!!~!IEPAPETD~IA^<o>^^^^^^^^^^^^^^",
"^^^^^^^^^^^^^n!~~!SIQII^jnU~HQIAI^^91^^^^^^^^^^^^^",
"^^^^^^^^^^^^^nE!QQFNI!p8pH!IKQAI^^^^A<^^^^^^^^^^^^",
"^^^^^^^^^^^^qCU!KUFkNLJTMaFTIIU^^^^NA^O^^^^^^^^^^^",
"^^^^^^^^^^hZx^^F3HSbSJMRB5p~Sv^^^^ra^^^^O^^^^^^^^^",
"^^^^^^^^^^h^lxlIumSIQm6eKacQ!S^^^r^^^^^^^^^^^^^^^^",
"^^^^^^^^g^^^^^^W!DJpTnq4eKvIUSj^r^^^^^^^^^^^^^^^^^",
"^^^^^^^^^^^^^^^VSAQDSUHrNSJIupAy^^^^^^^^^^^^^^^^^^",
"^^^^^^^^^^^^^^^^^^^^DlCc<BJ^wim^^^^^^^^^^^^^^^^^^^",
"^^^^^^^^^^^^^^^^^3+.^^xTA^^^Nd^^^^^^^^^^^^^^^^^^^^",
"^^^^^^^^^^^^^^^^^^^^^^2a^^^dn^^^^^^^^^^^^^^^^^^^^^",
"^^^^^^^^^^^^^^^^^^^^^$*^^^^s^^^^^^^^^^^^^^^^^^^^^^",
"^^^^^^^^^^^^^^^^^^^^^^^^^^^^^^^^^^^^^^^^^^^^^^^^^^",
"^^^^^^^^^^^^^^^^^^^^^^^^^^^^^^^^^^^^^^^^^^^^^^^^^^",
"^^^^^^^^^^^^^^^^^^^^^^^^^^^^^^^^^^^^^^^^^^^^^^^^^^",
"^^^^^^^^^^^^^^^^^^^^^^^^^^^^^^^^^^^^^^^^^^^^^^^^^^",
"^^^^^^^^^^^^^^^^^^^^^^^^^^^^^^^^^^^^^^^^^^^^^^^^^^",
"^^^^^^^^^^^^^^^^^^^^^^^^^^^^^^^^^^^^^^^^^^^^^^^^^^",
"^^^^^^^^^^^^^^^^^^^^^^^^^^^^^^^^^^^^^^^^^^^^^^^^^^",
"^^^^^^^^^^^^^^^^^^^^^^^^^^^^^^^^^^^^^^^^^^^^^^^^^^",
"^^^^^^^^^^^^^^^^^^^^^^^^^^^^^^^^^^^^^^^^^^^^^^^^^^",
"^^^^^^^^^^^^^^^^^^^^^^^^^^^^^^^^^^^^^^^^^^^^^^^^^^",
"^^^^^^^^^^^^^^^^^^^^^^^^^^^^^^^^^^^^^^^^^^^^^^^^^^"
};
