/* XPM */
static char *aebi3_9it0m[] = {
/* columns rows colors chars-per-pixel */
"50 50 169 2 ",
"   c None",
".  c #010102",
"X  c #05060A",
"o  c #07080C",
"O  c #090A0E",
"+  c #070911",
"@  c #0B0C13",
"#  c #0C0F1A",
"$  c #0F1016",
"%  c #0E111B",
"&  c #101115",
"*  c #12141C",
"=  c #19191E",
"-  c #131621",
";  c #151925",
":  c #1A1C24",
">  c #161C2B",
",  c #1A1D2B",
"<  c #1D212C",
"1  c #1E2333",
"2  c #1E263A",
"3  c #222225",
"4  c #22232C",
"5  c #28272F",
"6  c #29282E",
"7  c #222533",
"8  c #252835",
"9  c #2C2C33",
"0  c #212738",
"q  c #242A3C",
"w  c #2C2E3C",
"e  c #302F37",
"r  c #2F303D",
"t  c #313037",
"y  c #34333C",
"u  c #252D41",
"i  c #292E41",
"p  c #2D3244",
"a  c #2E3548",
"s  c #333542",
"d  c #383641",
"f  c #3B3B43",
"g  c #303649",
"h  c #33394C",
"j  c #3C3E4B",
"k  c #373E52",
"l  c #3A3E51",
"z  c #3C4255",
"x  c #3D4459",
"c  c #3F485D",
"v  c #434146",
"b  c #42424C",
"n  c #49474E",
"m  c #464753",
"M  c #484752",
"N  c #4B4A54",
"B  c #414659",
"V  c #434A5F",
"C  c #4B4B59",
"Z  c #51515A",
"A  c #58565D",
"S  c #444C61",
"D  c #484E63",
"F  c #4A5166",
"G  c #4E546A",
"H  c #545363",
"J  c #575864",
"K  c #5C5A64",
"L  c #5B5C6C",
"P  c #615F6B",
"I  c #65636D",
"U  c #6A666E",
"Y  c #646473",
"T  c #6B6A73",
"R  c #706D7B",
"E  c #75727C",
"W  c #79767D",
"Q  c #767382",
"!  c #797585",
"~  c #7D7A83",
"^  c #7B7D89",
"/  c #827E8B",
"(  c #85838C",
")  c #89858F",
"_  c #868592",
"`  c #888690",
"'  c #8C8A94",
"]  c #8E8E99",
"[  c #918F97",
"{  c #918D98",
"}  c #95929B",
"|  c #98959D",
" . c #99989F",
".. c #A1989F",
"X. c #9A96A1",
"o. c #9B99A2",
"O. c #A09DA6",
"+. c #A29EA8",
"@. c #A4A0A6",
"#. c #A6A4AB",
"$. c #ADA8AF",
"%. c #ABA6B0",
"&. c #AFACB3",
"*. c #B1AEB6",
"=. c #B0AEB9",
"-. c #B4B2BB",
";. c #BAB5BB",
":. c #BCBABE",
">. c #BCB9C0",
",. c #C2BCC2",
"<. c #C4C0C6",
"1. c #C6C3CA",
"2. c #C9C5CB",
"3. c #CBC9CE",
"4. c #CDCBD2",
"5. c #D1CED3",
"6. c #D5D1D6",
"7. c #D5D4DA",
"8. c #D9D5DA",
"9. c #DAD9DE",
"0. c #E2DEE2",
"q. c #E7E2E5",
"w. c #E5E2E5",
"e. c #E4E1E5",
"r. c #E6E4E8",
"t. c #E9E7E9",
"y. c #E9E7EA",
"u. c #EAE7EA",
"i. c #E9E7EA",
"p. c #EBEAED",
"a. c #EEEBEE",
"s. c #ECE9EC",
"d. c #F6EDEF",
"f. c #F1EDF0",
"g. c #F3EDF0",
"h. c #F5EDF0",
"j. c #F4EFF1",
"k. c #F2EFF1",
"l. c #F3F1F3",
"z. c #F2F1F3",
"x. c #F6F3F4",
"c. c #F4F2F4",
"v. c #F7F4F6",
"b. c #F5F3F5",
"n. c #F8F5F7",
"m. c #F9F6F7",
"M. c #FBF6F7",
"N. c #F8F6F7",
"B. c #F7F7F8",
"V. c #F9F7F8",
"C. c #F8F7F8",
"Z. c #F9F7F8",
"A. c #FAF9FA",
"S. c #FAF9FA",
"D. c #FBFAFB",
"F. c #FCFAFB",
"G. c #FFFAFB",
"H. c #FEFBFB",
"J. c #FCFBFC",
"K. c #FEFBFC",
"L. c #FDFCFD",
"P. c #FEFCFD",
"I. c #FEFDFE",
"U. c #FFFDFE",
"Y. c #FEFEFE",
"T. c #FFFEFE",
"R. c #FFFFFF",
"E. c #FFFEFF",
"W. c #FFFFFF",
/* pixels */
"                                                                                                    ",
"                                  X & f t O .               . @ j d = . .                           ",
"                            . & f W *.+.N X                   @ H *.;.T : X .                       ",
"                        . X 9 ( 6.z.1.Z @ .                   X w #.v.y.O.d O .                     ",
"                      . O v -.z.R.C.1.J * .                 . * E 5.R.R.C.:.N X .                   ",
"                    . @ C 1.B.R.R.y.X.f @                     X $ K ,.F.R.F.-.N X .                 ",
"                  . . n *.D.R.J.3.T :                           . X m ;.x.R.d...; .                 ",
"                . X N *.n.R.R.5.U X .                             . * Y q.R.F.;.y o                 ",
"                . : ..g.R.R.d.) 4 .                               . o b 5.D.R.5.K @                 ",
"                X y :.R.R.D.5.K + .                               . X v 5.D.R.6.K @                 ",
"                O j 1.R.R.J.8.I @ .                               . * L 0.R.R.1.j O                 ",
"                X s ;.R.R.R.j.' 8 .                             . . f %.c.R.R.;.w X                 ",
"                . * ) 0.R.R.R.8.~ : X .                       . . 9 ' g.R.R.e.` * .                 ",
"                  X d O.n.R.R.R.p.:.~ A v y 6 6 9 9 9 e 9 9 y v K @.w.R.R.F.*.m X                   ",
"                  . . N ;.J.R.R.R.R.R.x.w.6.2.3.3.4.5.4.3.4.8.y.n.R.R.R.R.F.9.o.Z * .               ",
"                O 9 j r m &.y.R.R.R.R.R.R.R.R.R.R.R.R.R.R.R.R.R.R.R.R.R.R.R.R.R.r.#.v O .           ",
"            . = K <.0.[ w 4 K &.a.R.R.R.R.R.R.R.R.R.R.R.R.R.R.R.R.R.R.R.R.R.R.R.R.D.;.Z o .         ",
"          . @ P 9.F.R.z.1.~ b Q 4.R.R.R.R.R.R.R.R.R.R.R.R.R.R.R.R.R.R.R.R.R.R.R.R.R.J.#.r X         ",
"        . . 9 ] C.R.R.R.R.D.p.a.C.R.R.R.R.R.R.R.R.R.R.R.R.R.R.R.R.R.R.R.R.R.R.R.R.R.R.2.K O .       ",
"        . . N -.D.R.R.R.R.R.R.R.R.R.R.R.R.R.R.R.R.R.R.R.R.R.R.R.R.R.R.R.R.R.R.R.R.R.R.6.R @ .       ",
"        . # ~ 0.R.R.R.R.R.R.R.R.R.R.R.R.R.R.R.R.R.R.R.R.R.R.R.R.R.R.R.R.R.R.R.R.R.R.R.y.} * .       ",
"        X < } j.R.R.R.R.R.R.R.R.R.R.R.R.R.R.R.R.R.R.z.2.$.#.;.8.l.R.R.R.R.R.R.R.R.j.5.,.| : .       ",
"        X <  .v.R.R.R.R.R.R.R.R.R.R.R.R.R.R.R.R.R.0.{ 9 O X % 9 Y >.l.R.R.R.R.R.p.] y 4 w % X       ",
"        . : ] g.R.R.R.R.R.R.R.R.R.R.R.R.R.R.R.R.s.} 4 X . . . . . N -.F.R.R.R.D.5.m @ . + X .       ",
"        . * / w.R.R.R.R.R.R.R.R.R.R.R.R.R.R.R.R.<.A . . . . . . . : ~ a.R.R.R.D.5.n O . o X .       ",
"        . X K 1.R.R.R.R.R.R.R.R.R.R.R.R.R.R.R.R.;.N . . X o X . . 4 _ g.R.R.R.D.5.N @ . X . .       ",
"        . . 5 ` g.R.R.R.R.R.R.R.R.R.R.R.R.R.R.R.5.T O . . . . . + P 1.R.R.R.R.R.0.I = . X . .       ",
"        . . . 9 ( 8.D.R.R.R.R.R.R.R.R.R.R.R.R.R.F.3.~ d : : 5 n ( 5.D.R.R.R.R.R.D.8.} M * .         ",
"      . . + : * @ f ( 2.g.R.R.R.R.R.R.R.R.R.R.R.R.R.n.w.6.5.8.y.D.R.R.R.R.R.R.R.R.a.X.f X .         ",
"      . . @ 4 d y * + 5 K ' -.6.s.v.D.R.R.R.R.R.R.R.R.R.R.R.R.R.R.R.R.R.R.C.s.3.| K : .             ",
"          . . O 4 j d 4 * * : 9 d m J T ^ ] @.;.,.,.<.3.3.2.,.;.$.+.| ) T Z d 3 O .                 ",
"              . . O w L R I H b 7 + o - ; % @ @ % - : 7 7 : - - @ + o . . .   .                     ",
"                . @ C Q / ! Y l , - 1 q , @ % 1 a x B B p * X - & * $ X .                           ",
"                . X 4 m H j - @ % > % % , a V F G G V p , o O 4 7 : : : .                           ",
"                  . . X @ o X o + % 7 k S G G F z q , 1 i ; + 7 j < * : X                           ",
"                      . . X . # q x F G F c p , * > p V S 1 + , x w * & X .                         ",
"                    . . . + 1 k F F V g 1 ; * 7 h S G G x < X % B l < o X .                         ",
"                  . . . % i V S h 1 - * 1 a x F G G S g ; # + O a V s $ X .                         ",
"                  . X - i g 7 ; - , p x D G G G S a , % 1 u > X - k V p $ X                         ",
"                . . - > ; ; 1 p x F G G G S z i ; * < p q > @ X X 7 x k : X                         ",
"                . X # 1 h S F G G G S x p , * - 1 i q ; X . . . . # > , X .                         ",
"              . X ; h S F S x k g 0 ; * ; 1 q w , @ X . . . . . . O @ + .                           ",
"            . . o > 7 8 7 > % # - , 1 2 1 , # X . . . . . . . . . @ @ . .                           ",
"        . . o ; q 0 < < 7 0 q 0 1 ; * O . . . . . . . . . . . . X + X .                             ",
"        . . @ ; , , : : * @ o X . . . . . . . . . . . . . . . . . . .                               ",
"                . . . .             . . . . . . .     . . . . . . .                                 ",
"                                    . . . . . .       . . . . . .                                   ",
"                                      . . . .         . . . .                                       ",
"                                          . .         . .                                           ",
"                                                                                                    "
};
