/* XPM */
static char *aetm2_oshzw[] = {
/* columns rows colors chars-per-pixel */
"50 50 165 2 ",
"   c None",
".  c #010102",
"X  c #05060A",
"o  c #080709",
"O  c #07080E",
"+  c #09090C",
"@  c #070810",
"#  c #0B0C14",
"$  c #0D0F18",
"%  c #0E1017",
"&  c #0E101B",
"*  c #131216",
"=  c #12131B",
"-  c #1B1A1D",
";  c #0F1020",
":  c #121523",
">  c #151824",
",  c #1C1C24",
"<  c #14172A",
"1  c #151A2A",
"2  c #1A1C2B",
"3  c #1B1F31",
"4  c #201F20",
"5  c #1C212F",
"6  c #1D2233",
"7  c #1E2439",
"8  c #1F293D",
"9  c #232327",
"0  c #23232B",
"q  c #28272A",
"w  c #2D2B2F",
"e  c #242330",
"r  c #2B2B34",
"t  c #21273C",
"y  c #23293D",
"u  c #292D38",
"i  c #333237",
"p  c #33333D",
"a  c #242B41",
"s  c #292F43",
"d  c #272F48",
"f  c #2C3245",
"g  c #2B3349",
"h  c #343543",
"j  c #363843",
"k  c #3A3B44",
"l  c #30364B",
"z  c #3A3D4B",
"x  c #2F3850",
"c  c #333B51",
"v  c #413F4C",
"b  c #3A4155",
"n  c #3D455C",
"m  c #3F485F",
"M  c #43414C",
"N  c #48464D",
"B  c #4B484E",
"V  c #444453",
"C  c #494551",
"Z  c #4C4B55",
"A  c #44495F",
"S  c #4B4C5B",
"D  c #4F505F",
"F  c #55525C",
"G  c #5A555E",
"H  c #59585E",
"J  c #4C4E61",
"K  c #485066",
"L  c #515062",
"P  c #5B5661",
"I  c #5C5B65",
"U  c #5E5E6A",
"Y  c #615D63",
"T  c #635F6E",
"R  c #626067",
"E  c #65626C",
"W  c #68666D",
"Q  c #646170",
"!  c #686775",
"~  c #6D6A71",
"^  c #716E74",
"/  c #736D7B",
"(  c #75717C",
")  c #78737F",
"_  c #717481",
"`  c #7B7680",
"'  c #7B7984",
"]  c #807F86",
"[  c #867F8B",
"{  c #87808D",
"}  c #89828C",
"|  c #90898F",
" . c #8E8693",
".. c #8E8B93",
"X. c #848A98",
"o. c #908C95",
"O. c #959097",
"+. c #94929C",
"@. c #99919C",
"#. c #9493A0",
"$. c #9D93A0",
"%. c #9F99A3",
"&. c #A49AA5",
"*. c #A99DA7",
"=. c #AA9DA9",
"-. c #A5A0A6",
";. c #A5A1A9",
":. c #A8A3A9",
">. c #AEA9AE",
",. c #AAA9B4",
"<. c #B0ADB5",
"1. c #B6B1B6",
"2. c #B8B2B7",
"3. c #B9B7BB",
"4. c #B9B8BE",
"5. c #BDBCC2",
"6. c #C2BBC1",
"7. c #C2C2C5",
"8. c #CFC4C7",
"9. c #C5C3C8",
"0. c #C9C6C9",
"q. c #CBC9CE",
"w. c #D3CBCE",
"e. c #D2CDD3",
"r. c #D2D2D5",
"t. c #D8D3D7",
"y. c #D2D2D8",
"u. c #D7D8DB",
"i. c #DCD9DD",
"p. c #E1DCDE",
"a. c #DEDEE3",
"s. c #E4E3E6",
"d. c #EBE3E6",
"f. c #E5E4E8",
"g. c #EDE6E8",
"h. c #ECEAEC",
"j. c #F0EDEE",
"k. c #EFEEF0",
"l. c #F1EFF2",
"z. c #EFF0F2",
"x. c #F2F2F3",
"c. c #F3F3F4",
"v. c #F4F3F5",
"b. c #F3F4F5",
"n. c #F6F4F5",
"m. c #F5F4F6",
"M. c #F7F5F6",
"N. c #F6F6F7",
"B. c #F3F2F3",
"V. c #F8F2F4",
"C. c #F7F6F8",
"Z. c #F9F6F8",
"A. c #F8F7F8",
"S. c #F8F8F9",
"D. c #F9F8F9",
"F. c #F9F9FA",
"G. c #FEFBFB",
"H. c #FCFAFB",
"J. c #FBFBFC",
"K. c #FDFCFC",
"L. c #FEFDFD",
"P. c #FEFDFE",
"I. c #FFFFFF",
"U. c #FEFEFE",
"Y. c #FFFEFF",
/* pixels */
"                                                                                                    ",
"                        . . . .                                                                     ",
"                  . - : + . .                                           o * * .                     ",
"                w W :.p .                                                 = J I q .                 ",
"            . G 7.V.#.-                                                   . z e.9.~ % .             ",
"          X I i.U.U.,.j o .                                             X , ` d.U.h.O.+ .           ",
"        . u t.U.U.e.W * .                                                 9 } g.U.U.h./ o           ",
"      . + %.M.U.i.N X                                                       + Y j.U.U.p.r .         ",
"      . r p.U.Z.E +                                                           * o.U.U.x.} X         ",
"      . F h.U.5.9 .                                                           . k H.U.U.8.X .       ",
"      X ! k.U.X.*                                                               w d.U.U.w.X .       ",
"      X _ z.U.,.-                                                               q i.U.v.+.X .       ",
"      . F h.U.j.Z o                                                           . i j.U.h.Z .         ",
"        # @.M.U.q.B X                                                         # ] U.U.i.- .         ",
"          * ;.M.U.s.^ * . .     . . . . . . . . . . . . . . . . . . .     . * ~ h.U.h.' .           ",
"            - -.k.U.M.2.I 0 - - - u Z I R E E E I Z b z j f r 9 4 4 9 k ) ( 1.x.U.M.&.% .           ",
"            . * E 4.f.H.M.s.q.q.i.h.M.S.S.S.S.S.S.C.M.M.b.c.x.j.h.h.h.j.M.J.U.U.s...1 .             ",
"                . , M q.U.U.U.U.U.U.U.U.U.U.U.U.U.U.U.U.U.U.U.U.U.U.U.U.U.U.c.<.F #                 ",
"                  . $ 5.U.U.U.U.U.U.U.U.U.U.U.U.U.U.U.U.U.U.U.U.U.U.U.U.U.U.u.j .                   ",
"                  . z u.U.U.U.U.U.U.U.U.U.U.U.U.U.U.U.U.U.U.U.U.U.U.U.U.U.U.r.0 .                   ",
"                  . D a.U.U.U.U.U.U.U.U.U.U.U.U.U.U.U.U.U.U.U.U.U.U.U.U.U.U.q.> .                   ",
"                  . U s.U.U.U.U.U.U.U.U.U.U.U.U.U.U.U.U.U.U.U.U.U.U.U.U.U.U.0.= .                   ",
"                  . W f.U.U.U.U.U.U.U.U.U.U.U.U.U.U.U.U.U.U.U.U.U.U.U.U.U.U.0.* .                   ",
"                  . U s.U.U.U.U.U.U.U.U.U.U.U.U.U.U.U.U.U.U.U.U.U.U.U.U.U.U.0.= .                   ",
"                  . S a.U.U.U.U.U.U.U.U.U.U.U.U.U.U.U.U.U.U.U.U.U.U.U.U.U.U.0.* .                   ",
"                  . f y.U.U.U.U.U.U.U.U.U.U.U.U.U.U.U.U.U.U.U.U.U.U.U.U.U.U.9.# .                   ",
"                  . & 7.U.U.U.U.U.U.U.U.U.U.U.U.U.U.U.U.U.U.U.U.U.U.U.U.U.U.7.X .                   ",
"                  . . &.M.U.U.U.U.U.U.U.U.U.U.U.U.U.U.U.U.U.U.U.U.U.U.U.U.H.>..                     ",
"                . o # p :.h.U.U.U.U.U.U.U.U.U.U.U.U.U.U.U.U.U.U.U.U.U.U.U.0.p .                     ",
"                . > L M r Z o.q.e.6.p.U.U.U.U.U.U.U.U.U.U.U.U.U.U.U.U.U.i.I .                       ",
"                  . , v S h > r u , Z 1.x.U.U.J.U.U.U.U.U.U.U.U.U.U.A.0.H +                         ",
"                      . * p S p z S r , F ( E I U E ^ ` o.,.3.3.:.| W r .                           ",
"                          . > / &.*. .F , o # 3 1 2 y 3 2 5 2 = o X                                 ",
"                          . & / *.*.*.&.} C : = 7 b m g x x d g &                                   ",
"                            # e V / o.&.*.&.) p % 5 a g m s 7 c 5 .                                 ",
"                                . # r Z ` @.&.@.E 0 $ 6 g 8 a g 2 .                                 ",
"                                . o : < > p I [ $. .P e # : c m t O                                 ",
"                              . . # f y < 6 2 1 j E } [ F 0 = t f ; .                               ",
"                              . . 2 7 < l K l < > > 0 M Q ) F 0 & # .                               ",
"                              o # < < f A g 7 g b 6 # # % 0 Z T V , o                               ",
"                              . $ ; y l t t g y = . # s g : # > h V 8 &                             ",
"                              . O < 7 7 y t = . . . . % f c y < & : : & o . .                       ",
"                              . > 7 t 6 & X . . . . . . o 1 f f a 3 : o . . . .                     ",
"                              o > > # . . . . . . . . . . . . & 6 s g 6 O                           ",
"                              . o .   . . . . . . . . . . . . . . # < > #                           ",
"                                        . . . .       . . . .                                       ",
"                                        . . . .       . . .                                         ",
"                                          . . .                                                     ",
"                                            .                                                       ",
"                                                                                                    "
};
