/* XPM */
static char *x32qu_ynlrj[] = {
/* columns rows colors chars-per-pixel */
"50 50 43 1 ",
"  c #190F1A",
". c #1D121D",
"X c #1F1621",
"o c #201622",
"O c #231A25",
"+ c #251D29",
"@ c #291F2E",
"# c #29212E",
"$ c #2D2432",
"% c #2E2936",
"& c #2F2D3A",
"* c #312C37",
"= c #312D39",
"- c #31303D",
"; c #38313E",
": c #343440",
"> c #393641",
", c #373844",
"< c #3A3B46",
"1 c #3C3E48",
"2 c #3E414B",
"3 c #41444E",
"4 c #444750",
"5 c #474B53",
"6 c #494E56",
"7 c #4A5057",
"8 c #4B5158",
"9 c #52565D",
"0 c #57585F",
"q c #565C62",
"w c #5C5D64",
"e c #5B6167",
"r c #5E656A",
"t c #616467",
"y c #64666B",
"u c #626A6E",
"i c #656D71",
"p c #6A7275",
"a c #6E7679",
"s c #737C7E",
"d c #757E80",
"f c #7A8485",
"g c None",
/* pixels */
"..XXXXXXoXXoooooooooooooooooooooooXooooooooooooo..",
".*4555555545545545545544555544556444555545545545*.",
".*77rde7667666679aa866777858778aa8667776885edr77*.",
".=5138<*====**=<5336<**=*****<5336<=**=****<8314*.",
".*6655;$gggggg$>6556;$gggggg#;7556>$gggggg$-6666*.",
".&7786,&gggggg=<7786<*gggggg=<78761&gggggg&<6688*.",
".*77771-gggggg-16776<-gggggg-<77771:gggggg-<6886*.",
".*77751&gggggg-17786<-gggggg-<58761-gggggg=16666=.",
".*78862-gggggg-17776<-gggggg-<67771&gggggg:<7777=.",
".*7866;-gggggg-17876<-gggggg-167771:gggggg&<6777=.",
".*7786,*#+##@$=167771=$@##@$&167771=$@@@@$&<6777*.",
".*7776,2qewew0<<7776<<0wwww0<<6787<>9wwwwq<<6777*.",
".*686626ippppy53776735ippppu62776635yppppi626777*.",
".*88quq6667766878rr878776686777ry8886667667qrq77*.",
".*629i821<1<1<138ee7411<<1<1137et7412<<12<<9iq45*.",
".*6225;$$$$$$$$>6126;#$$$$$$$:6225>#$$$@$$$=5216-.",
".&7876:%gggggg%<6886:%gggggg%>6777<%gggggg%>6777*.",
".&7776,&gggggg=167771-gggggg-177771-gggggg&<7777*.",
".&6776<:gggggg-17876<-gggggg:<77761-gggggg-<6777*.",
".*7776<&gggggg-177761-gggggg&<77761-gggggg-<6777*.",
".*7876<:gggggg-167771=gggggg-167861-gggggg&<6777*.",
".*7876<&gggggg-177761&gggggg&167861-gggggg=<7777*.",
".*6877<=;;;;>;=277761:=::;:=&167861=-;;;;--<6777*.",
".*6876<6sffffa3<677714sffffd41678613sffffd6<6777*.",
".*6778778898887669886688889666698876888888778877*X",
".*65rde6666666659ap866666766668pa8666766665ede77*.",
".*6228,%*%%=%*%<6126>%=%%=%**>6226<%&******,82<5*.",
".*7666;$gggggg$>6666>$gggggg$;6667;$gggggg$;6;;5*X",
".*7886,*gggggg&<6786<:gggggg=<77862&gggggg-&#;2#o.",
".&7776<-gggggg:16876<&gggggg=<7786<-gggggg-$XOO...",
".*7776<-gggggg:16786<:gggggg:<77662-gggggg-&##%#O.",
".*7776,-gggggg=16876<:gggggg&<77662-gggggg-%#9e#..",
".*68862-gggggg-16866<-gggggg=167771-gggggg:$Xrp# .",
".*6886;*#$###$&268861=$@$@@$&167771&$@#@@$=%$69$oX",
".*8886;2euuyuw1<6886<1wuyyyw1<67771<wyyyye2%$33*O.",
".*688827riuuir53866645riuiir63666645yiuuiy7,*>>*O.",
".*78qiq8668667888uu868767666888uu86867666691+%%@o.",
".*728u7,<<<><,<36qq63<<,<<<<>36qq73,<<<<<<<*.OO...",
".*7222,#$$$$$##>6336;$$$$$#$$;6326,$$$#$$##**-=-#.",
".*7897,*gggggg*<6866>%gggggg%>6887<%gggggg%,7887*.",
".&7776<:gggggg-177761=gggggg:<68771-gggggg:<6776*.",
".&7776,-gggggg-17786<:gggggg&<68761-gggggg=<6776*.",
".&7776<&gggggg-16776<:gggggg:,68861-gggggg-<7777*.",
".*7776<-gggggg-178761&gggggg:<68861;gggggg=16777*.",
".*7886<=gggggg=167772=gggggg=<68761=gggggg&16777*X",
".*6866<-><>><>:16776<;><<><>><68771:><<>>,:<6776*.",
".*789925sffffa41699614affffs4<60q714affffd519877*.",
".*65ese6698888669pp968876788659pp8677778877ede67%.",
".*4,2565555555564<<565555556565<<465656465565<>5*.",
".#$$$$%%*$*$$*$**$$$$*%%*$*$$$*$%%$%$%%%%$$*$$$*@."
};
