/* XPM */
static char *orb11677847518[] = {
/* columns rows colors chars-per-pixel */
"95 90 115 2 ",
"   c None",
".  c #7F7FFF",
"X  c #7F80FF",
"o  c #8283FF",
"O  c #8A85FF",
"+  c #8489FF",
"@  c #8C8BFF",
"#  c #948CFF",
"$  c #9A8DFF",
"%  c #8790FF",
"&  c #8A92FF",
"*  c #8F9AFF",
"=  c #9593FF",
"-  c #9C92FF",
";  c #939CFF",
":  c #9D9AFF",
">  c #A28FFF",
",  c #A492FF",
"<  c #AA95FF",
"1  c #A39CFF",
"2  c #AE9BFF",
"3  c #B397FF",
"4  c #B59BFF",
"5  c #BC9DFF",
"6  c #95A3FF",
"7  c #9DA4FF",
"8  c #9BABFF",
"9  c #9DB3FF",
"0  c #9FB8FF",
"q  c #A3A5FF",
"w  c #ACA4FF",
"e  c #A5ACFF",
"r  c #ACABFF",
"t  c #B3A3FF",
"y  c #BCA5FF",
"u  c #B4ADFF",
"i  c #BBACFF",
"p  c #A3B3FF",
"a  c #ABB3FF",
"s  c #A3BCFF",
"d  c #ABBDFF",
"f  c #B4B3FF",
"g  c #BBB3FF",
"h  c #B4BBFF",
"j  c #BCBBFF",
"k  c #C09FFF",
"l  c #C2A3FF",
"z  c #CAA4FF",
"x  c #C4ABFF",
"c  c #CBABFF",
"v  c #D1A7FF",
"b  c #D3AAFF",
"n  c #DAAEFF",
"m  c #C3B5FF",
"M  c #CCB4FF",
"N  c #C3BCFF",
"B  c #CCBBFF",
"V  c #D4B3FF",
"C  c #DAB4FF",
"Z  c #D3BBFF",
"A  c #D9BCFF",
"S  c #A6C2FF",
"D  c #AAC4FF",
"F  c #AECAFF",
"G  c #B4C3FF",
"H  c #BAC4FF",
"J  c #B4CCFF",
"K  c #BBCCFF",
"L  c #BCD2FF",
"P  c #BED8FF",
"I  c #C3C3FF",
"U  c #CBC3FF",
"Y  c #C5CCFF",
"T  c #CBCCFF",
"R  c #D4C5FF",
"E  c #DCC4FF",
"W  c #D3CBFF",
"Q  c #DCCBFF",
"!  c #C3D3FF",
"~  c #CCD4FF",
"^  c #C5DAFF",
"/  c #CCDBFF",
"(  c #D3D4FF",
")  c #DCD3FF",
"_  c #D4DBFF",
"`  c #DCDCFF",
"'  c #E3C6FF",
"]  c #E3CCFF",
"[  c #E9CDFF",
"{  c #E3D5FF",
"}  c #EAD5FF",
"|  c #E4DBFF",
" . c #EBDBFF",
".. c #F4D5FF",
"X. c #F0DEFF",
"o. c #CDE1FF",
"O. c #D5E4FF",
"+. c #DCE4FF",
"@. c #D7EAFF",
"#. c #DCEAFF",
"$. c #E3E3FF",
"%. c #EBE4FF",
"&. c #E4ECFF",
"*. c #ECECFF",
"=. c #F1E4FF",
"-. c #F9E7FF",
";. c #F3ECFF",
":. c #FAECFF",
">. c #E6F1FF",
",. c #ECF2FF",
"<. c #ECF9FF",
"1. c #F4F4FF",
"2. c #FAF5FF",
"3. c #F5FAFF",
"4. c #FEFEFF",
/* pixels */
"                                                                                                                                                                                              ",
"                                                                                                                                                                                              ",
"                                                                                                                                                                                              ",
"                                                                                                                                                                                              ",
"                                                                                                                                                                                              ",
"                                                                                                                                                                                              ",
"                                                                                                              5                                                                               ",
"                                                                                                                                                                                              ",
"                                    6                                                   S                   y                                                                                 ",
"                                      6 6                             - & &             S                                                                                                     ",
"                                          6                         <         & & & & & _ e & &           k                                                                                   ",
"                                            6 6                     <                   / Y & & h %.1.r u U                                                                                   ",
"                                              6 6         &       < <                     #.&.[ C       m g H ; & & &                                                                         ",
"                                              O 6 6 ;       @     <         &           Q 4.%.$.d       k     9                                                                               ",
"                                                    6 K         I <             & j [ b C 3.4   o./ J N         9                                                                             ",
"                                                O     e &.    & ` B             v [ ;.W = J 1 ,   ! ,.4.^         9                                                                           ",
"                                                  O       1.  g :./         n =.b v     & +.H - ,     ` 3.<./       9                                                                         ",
"                                                  O         ,.)  .d     v v V R           K H q | B c     +.3.3.+.  9 9                                                                       ",
"                              4                     O         4.` ! } v b     .           H _ b   %.1.M       +.3.3.#.D 9   s                             ,                                   ",
"                                4           4         O     < { 3.4.3.      . o       u A 2.+.      m ) |         +.3.4.,.,.D                           y @                                   ",
"                                  5 5       4 5              .4. .` $.      o       { ' Q q ^         , , 2           O.4.4.,.                        { r                                     ",
"                                    4 4       5         m ;.2.I & 1.3.1.h + H i A  .}   @ = +.          > , t M       s K H 4.3.O.                W 1.                                        ",
"                                      5 4       4         } | W # w 4.4.T r 4.4.4.4.; o O f 3.              B B ,   s     H ( #.3.O.f     +   H T %.                                          ",
"                                          4 l     '       ) R ;     ` 4.2.4.4.2.,.$.+ + + _ 4.&.a a         E Z R ,.      W +.G D F 3.s   + o _ |                                             ",
"                                            E 4      .  < 3 w 8     l 2.4.1.4.m 4._ @ + & _ %.4.*.Y r j ~ j Q | 4.%.Q q   R q 1.d G ~   ^ I # t d                                             ",
"                                            4 5 5   B V y <   Y c z z =.4.e 1 : *.4.{ ` *.( U 4.4.3.3.3.4.4.4.4.,.3.4.*.# B & Y / H 1.f q g 4   ! S                                           ",
"                                            4   4 4 < Z :.y N 1.:.c   $.3.*.u I a H L H +.m i 1.4.,.    p d 1.` ` 2.4.4.3.%.T @ q ,.&.s ` T       F                                           ",
"                                            4       A ;.2.;.2.2.| u o %.$.2.1.`     s >.    g I 4.4.` ( +.H  .N _ q j 3.4.4.4.q _ 4.&.Y ,.        p s                                         ",
"                                          a { @ B ) %.4.4.4.4.Y 1 c   $.$._ 3._       >./   E _ &.4.( h / @  .Q Y + + H 3.4.4.*.f 4.&.~ _ !     & 7 O.7                                       ",
"                                            ;.      } 4.*.M 3.{ > ;.u 1.$.W 4.` M M D &.3.K U ` %.1.3.e     V U         2.;.%.> $ Y _ ~ 3.p     Y h ~ ` z                                     ",
"                                            B p B z l y 4 t ( 1.m | %.4.4.4.4.3.Q ) ;.{ 3.&.,.  %.3.4.%.a   :.T         4.j f , y W & ; 3.,.a = U E | 3.e                                     ",
"                                        o   4 q K H i   - t ; t B   l +.U ,.T r N W B 2.4.4.3.$.h  .4.4.( ` 4.          4./ 6   R 2.g ( 4._ %.C %.Y ~ ! s                                     ",
"      6 6 6 6 6 6 6 7 6 6               o 2 4   * Y ;.e - m ~   v   { *.$.3.        [ Z 1.` >.O.J 7 1.4.4.1.{     a   W 4.3.G   U 4.$.) 4.2.$.*.K 7 o   0                                     ",
"                            6 6 6 6 6 p _ $.R     $.~   a 1.$.  c C | 4.4.$.      j 4.1.4.` ,.>.1.( 4.4.4.4.=.R T g T :.:.4.+.= i m } 4.4.3.a H H q     0 s                 $ $               ",
"                                        o 2 B W 7 3.T 6   %.4.H   ..g 4.4.I       z E $._ 4.4.1.3.3.;.+.4.4.4.) _ y { 3.%.4.1.z 4.$.T _ ;.w ;   $.`   $ I ,.N ( $ $ $ $ $                     ",
"                      k 5 k k y l 5 k k m ` Z V   W &.3.~ O.4._ 8 Z Q 4.4.+.      V O.V   j | 1.4.4.4.1.3.3.4.1.    # ]   4.3.m %.q     - 2 { H ` &.1     Y d G                               ",
"                                        m 4.' ' l     8 H ,.4.,.! +.4.4.4.3.<.^  .|       i : q Y 4.4.4.4.4.4.4.} # - x   4.+.e @     + +   3 T 1.7         J J                               ",
"                                          2.M z         G 4.1.;.~ / 4.4.4._ @.3.4.3.&.P h $.Y +.$.4.4.4.4.4.4.4.4.%.N 2   4.I q u     +       f 3.a         / #.                              ",
"                                          *.} M         e 3.~ < m @ Y 4.4._ ( 4.1.! @.#.<.4.%.3.*._ 2.4.4.4.4.3.4.4.4.I 7 3._ | _     +       o h _         O.<.                              ",
"              S S J ^ @.#.>.>.<.<.<.<.,.,.4.4.,.! $.* ; h 3.+.1.)   ~ 4.4.$.R :._ G     ! &.4.4.4.T M j 4.4.4.3.4.4.4.1._ 4.*.%.$.    &       . * ;           3.                              ",
"                                          ;.4.` 6 I H   h 1.+.$.*.) T 1.4.4.4.2.G <.+.      ( 4.4.3.4.4.1.3.4.3.4.4.4.4.4.4.4.1.4.    p     o   * &           ^ s                             ",
"                                          %.4.%.    W a ,.3.H &.3.B q ( 2.4.4.| Y W %.$.%.Y j | $.T 3.4.3.3.4.4.;.i { 3.4.4.4.2.2.4.*.,.    =                 S 9                             ",
"                                          | 4.4.    {     1.p _ 3.4.,.4.| 4. .  w h W I Y g i  .) U ;.( _ *.4.4.,.e 1 { 4.4.4.4.W 1.W 3.&.B R   :             s                               ",
"                                          Q 4.*.=.  { ,   %.+   j 4.1.,.1.4.1.  T w ;.j ~ _ j g W ` ] U u R 1.%.4.O.&.1.4.4.4.4.4.4.*.D           * &         S                               ",
"                                        * M 4.~ ,.=.Q < q +.r     $.4.&.=.4.4.;.+.I 4.*.1.4.;.j U 1.] U - { $.= 1.4.1.+.3.4.4.4.X.&.3./ S       a a         G #.o                             ",
"                                          T 4.h Y ..2.{ w T Y       1.4.2.2.] 3._ M ) 4.%.} 3.1.$.4.4.| $.2.*.1 1.4.1._ 3.4.#.4.;.;.W ;.#.    % 7             s     . o o                     ",
"                                          T 4.; p  . .2.3.Y $.      ( 4.2.Q _ ;.2.N 3.4.R t { T 4.4.4.m %.4.T $.4.3.O.^ 4._   t U =.3.Q K   & &               s           o . o o             ",
"                                            4.1.,.4.4.&.4.4.3.s ^ s ,.4.4.4.3.1.4.4.2.4.%.j f U I 1.4.*.| 4.4.1.R   G <.4.h   $ $   ' 2.<.~ H 1               S                     o .       ",
"                                        < } 4.4.I H 4.R | ;.4.Q Y s 2.4.4.4.1.1.*.1.4.4.3.4.#.1.&.$.4.4.4.4.4.)     #.( $.6   $ $     %.4.1.1 3               s                               ",
"                                  4 3     ] | 4.H p 4.A t B 4.' =.%.4.;.4.4.&.6     ;.4.2.{ e W $.4.4.2.4.4.;.    p d : h 6   $ $   ! ,.,.2.y                 s                               ",
"                                          z l %.,.&.3.c 4 m ,.=.:.4.4.Y $.| ;.~ @ w 4.2.4.R   y x 2.4.4.4.4.1._ *.O.1 @ 6     h *.+.+.7 $.4.            k k j G                               ",
"                                          z   & _ 4.4.m E =.4.H   4.4.;.T :.| H   R ;.) 4.4.2.l 5 Z 4.4.3.U ` *.3.$.4.%._ h G d 4.4.+.) :.!                 W 1.5 k                           ",
"                                          c     o ~ 4.*.;.*.4.N *.$.1.4. .4.2.Q M R 2.4.2.1.2.    Z 4.4.;.  K _   # f N 3.4.4.3.4.$.%.1.$./                   s     k k l k                   ",
"                                          c     + ! 4.4.)  .4.4.{   ,.4.4.4.4.R  .4.:.2.B    .}   B 4.4.4.+.3.K   O q 9 4.! q a $.2.) l g &.+.&       o       S           5 k 5 5             ",
"                                              F ,.L 3.4.Y { 4.4.    3.4.3.4.4.:.=.V y { -   i 4.2.3.4.4.3.4.+.    $.O.9 ^ & & 7 %.%.  l     ! & 7 T @         s                   5 k         ",
"                                          Y D D h   ~ 4.4.3.4.4.4.4.4.4.4.4.4.4.:.U W ;.` 0 H 4.4.4.4.| 3.3.1.a +.4.G   G & 7 ] y ,   l   i D & = Y 6 &       s                               ",
"                                      F S F         o K 4.&.H 4.4.3.1.,.4.,.4.4.4.4.4.4.4.h ) m { 4.4.$.4.j 4.1.1.H   % H 7 Q 5   , } {     ,.q         * &                                   ",
"                                  D D F             q ` 4.3.,.1.=.1 $._ 4.&.+.4.*.4.4.4.4.3.4.Y 1.3.4.4.4.O.3.4.*.  % & q Q 4     Q ;.  . o ~                                                 ",
"                              D D                   +.T 4.3._ ,.4.*.&.$.3.( x 3.w f ' X.4.;.j u W H 4.4.4.1._ 3.3.+.; : R 4   4 4 A | . .     s                                               ",
"                            F                       3.8 d 8 ; H 1.<     $.;.V A C q @ | 4.%.  ;.f &.4.1.4.*.  %.j 1.*.B k z 4 4 @ ;.N o       s                                               ",
"                                              S O.>./     6 ; 8 4.3       >.%.  b   N 4.;.' ' w %.3.W   X.4.  | I ; 1.1.' 4 , . : 2.          s                                               ",
"                                              p @.J O.S S K D ; 1.R       *._   b   4 a 4.U *.1.#.  Q   z *.2.` ) ) :.:.{ @ o . i V                                                           ",
"                                                      S S #.3.S &.3.i     Q 6     Q     %.3.h H       + R ;.4.*.} 1.M - ` _ .   k                                                             ",
"                                                            <.L O.4.3.K     e     n     $.( +           ( 4.2.2.2.x R | j Y 8   l                                                             ",
"                                                            9 9 F O.4.O.O.S Y D         Y < o o         h 4.4. .R ;.N @     6 g l                                                             ",
"                                                              6     _ 3.D D ,.&.K D     f -   + +     Y 2.4.4.2.( &           {                                                               ",
"                                                                      ) 6 H _ J o.S S S K q     + q $.4.{ { 4.r               z                                                               ",
"                                                                        ; 2       S S F <.3.S     2.3.B # = }                                                                                 ",
"                                                                          m             P ,./ 3.4.1.f + .   z                                                                                 ",
"                                                                          l             w R 2.1._ F ^ s       z                                                                               ",
"                                                                          5           m B R A         S S S   c                                                                               ",
"                                                                          5       < < w x                     `                                                                               ",
"                                                                          5                                                                                                                   ",
"                                                                        5                                                                                                                     ",
"                                                                        5                                                                                                                     ",
"                                                                        5                                                                                                                     ",
"                                                                        5                                                                                                                     ",
"                                                                        5                                                                                                                     ",
"                                                                      5                                                                                                                       ",
"                                                                      5                                                                                                                       ",
"                                                                      y                                                                                                                       ",
"                                                                      4                                                                                                                       ",
"                                                                                                                                                                                              ",
"                                                                                                                                                                                              ",
"                                                                                                                                                                                              ",
"                                                                                                                                                                                              ",
"                                                                                                                                                                                              ",
"                                                                                                                                                                                              ",
"                                                                                                                                                                                              ",
"                                                                                                                                                                                              "
};
