/* XPM */
static char *_2fa75570e9544ca9d046adcf68450da1DW4OnEIeqHSeLJg[] = {
/* columns rows colors chars-per-pixel */
"39 73 141 2 ",
"   c None",
".  c #010101",
"X  c #05050A",
"o  c #06080E",
"O  c #090A0D",
"+  c #020511",
"@  c #060911",
"#  c #0B0C13",
"$  c #0D0E1C",
"%  c #0E111D",
"&  c #101216",
"*  c #13141C",
"=  c #19181E",
"-  c #071221",
";  c #0F1320",
":  c #111423",
">  c #151A24",
",  c #1A1C25",
"<  c #131629",
"1  c #141829",
"2  c #1A1D2B",
"3  c #161E33",
"4  c #1A1E32",
"5  c #1D1F39",
"6  c #1E222D",
"7  c #1C2234",
"8  c #1D263D",
"9  c #21222C",
"0  c #232533",
"q  c #252834",
"w  c #2B2B34",
"e  c #22273B",
"r  c #252B3E",
"t  c #2A2C39",
"y  c #312E35",
"u  c #2F313D",
"i  c #34323C",
"p  c #2A2E44",
"a  c #263045",
"s  c #2C3244",
"d  c #25334C",
"f  c #2C344A",
"g  c #333543",
"h  c #3D3940",
"j  c #333649",
"k  c #34394D",
"l  c #3C3D4B",
"z  c #2C3951",
"x  c #333D54",
"c  c #374157",
"v  c #3E4154",
"b  c #364159",
"n  c #3C455B",
"m  c #3F485E",
"M  c #434454",
"N  c #484651",
"B  c #464857",
"V  c #424659",
"C  c #44495D",
"Z  c #4B4B5A",
"A  c #4C505E",
"S  c #52525E",
"D  c #444C62",
"F  c #494F64",
"G  c #4B5167",
"H  c #4E5469",
"J  c #595767",
"K  c #5B5966",
"L  c #52566A",
"P  c #5C5C6C",
"I  c #5D5D71",
"U  c #625F6C",
"Y  c #615E70",
"T  c #5D6276",
"R  c #676572",
"E  c #696675",
"W  c #666579",
"Q  c #6E6B7C",
"!  c #716C7A",
"~  c #77727D",
"^  c #6C6F85",
"/  c #747383",
"(  c #797585",
")  c #7E7A87",
"_  c #7C7788",
"`  c #7D798A",
"'  c #807C8B",
"]  c #83808C",
"[  c #8A868F",
"{  c #868391",
"}  c #888695",
"|  c #898799",
" . c #8C8A98",
".. c #938E9C",
"X. c #93919D",
"o. c #9195A3",
"O. c #9A94A0",
"+. c #9B99A6",
"@. c #A199A5",
"#. c #A39DA9",
"$. c #A7A0AB",
"%. c #ABA6B0",
"&. c #AFA9B7",
"*. c #B4ACB5",
"=. c #B2ADB8",
"-. c #B3B0BC",
";. c #B9B2BD",
":. c #C0B9BF",
">. c #BAB7C1",
",. c #BEB8C3",
"<. c #C2BBC4",
"1. c #C3BFC8",
"2. c #CBC3CB",
"3. c #CDC9CF",
"4. c #D2C9CF",
"5. c #CDCAD1",
"6. c #D3CCD4",
"7. c #D7D1D7",
"8. c #DCD1D6",
"9. c #DCD4DA",
"0. c #DCD9DE",
"q. c #E1D4D9",
"w. c #E4DBDF",
"e. c #E9D9DD",
"r. c #DFDDE1",
"t. c #E3DDE2",
"y. c #EADEE2",
"u. c #E5E2E6",
"i. c #EAE2E6",
"p. c #E5E5E9",
"a. c #ECE6E9",
"s. c #EEEAEC",
"d. c #F4E5E8",
"f. c #F2EBED",
"g. c #FBECED",
"h. c #F3EFF1",
"j. c #F5F3F5",
"k. c #FBF4F5",
"l. c #F7F7F8",
"z. c #FAF7F8",
"x. c #FFFFFF",
/* pixels */
"                                                                              ",
"                            . . .               . X . .                       ",
"                          . O / = .           . @ ^ i . .                     ",
"                      . . N 1.*.#               X ` s.R X .                   ",
"                    . X ! h.a.B .               . 9 t.s.A . .                 ",
"                  . . J f.x.#.X .               . j u.x.8.t .                 ",
"                  . 9 r.x.x.<.k X             . # 2.x.x.x.$.. .               ",
"                . @ +.x.x.x.w.j .               . 2 9.x.x.a.b .               ",
"                . M h.x.x.h.A .                   . Z k.x.x.@.X .             ",
"              . . ..x.x.k.( X                     . X #.z.x.e.> .             ",
"              . l i.x.x.6.# .                       . L k.x.d.q .             ",
"            . X *.x.x.x.~ .                         . p a.x.g.N .             ",
"            . , q.x.x.d.j .                         . , 0.x.x.! .             ",
"            . y h.x.x.2., .                         . = 7.x.x.! .             ",
"            . l l.x.x.,.* .                         . 0 u.x.x.S .             ",
"            . M z.x.x.6.9 .                         . v f.x.z.l .             ",
"            . v k.x.x.i.j .                       . . ) z.x.k.g .             ",
"            . 9 t.x.x.z.! . .                     . > 2.x.x.u.0 .             ",
"            . # &.x.x.x.6.2 . .                 . . K z.x.x.=.# .             ",
"              X E z.x.x.x.1.M & X . . . . X . X O 6 :.x.x.l.Q X               ",
"              . , 7.x.x.x.x.z.8.O.( ( { } { / | <.g.x.x.x.f.T X .             ",
"              . . ] x.x.x.x.x.x.x.z.x.z.x.x.x.x.x.x.x.x.x.x.h.{ @ .           ",
"            . & 4 q 6.x.x.x.x.x.x.x.x.x.x.x.x.x.x.x.x.x.x.x.x.z.X.O .         ",
"          . # #.=.# g 3.x.x.x.x.x.x.x.x.x.x.x.x.x.x.x.x.x.x.x.x.h.Z . .       ",
"        . X / z.z.K X 6 2.x.x.x.x.x.x.x.x.x.x.x.x.x.x.x.x.x.x.x.x.<.% .       ",
"        . 9 w.x.x.h.~ $ } x.x.x.x.x.x.x.x.x.x.x.x.x.x.x.x.x.x.x.x.l.l .       ",
"        . M j.x.x.x.l.7.s.x.x.x.x.x.x.x.x.x.x.x.x.x.x.x.x.x.x.x.x.z.Q .       ",
"      . . T z.x.x.x.x.x.x.x.x.x.x.x.x.x.x.x.x.x.x.x.x.x.x.x.x.x.x.x.` X .     ",
"      . . } z.x.x.x.x.x.x.x.x.x.x.x.x.x.x.x.x.x.x.x.x.x.x.x.x.x.x.x. .X .     ",
"      . $ <.x.x.x.x.x.x.x.x.x.x.x.x.x.x.x.x.x.x.x.x.x.x.x.x.x.x.x.x.%.X .     ",
"      . 7 8.x.x.x.x.x.x.x.x.x.x.x.x.x.x.x.x.x.x.x.x.x.x.x.x.x.x.x.x.3.# .     ",
"      . u y.x.x.x.x.x.x.x.x.x.x.x.x.x.x.x.6.#.*.i.x.x.x.x.x.x.x.k.3.2.* .     ",
"      . u a.x.x.x.x.x.x.x.x.x.x.x.x.x.x.4.0 . + s =.z.x.x.x.x.x.#., V : .     ",
"      . q p.x.x.x.x.x.x.x.x.x.x.x.x.x.k.W X . . . % 1.x.x.x.x.s.v . $ o .     ",
"      . 0 0.x.x.x.x.x.x.x.x.x.x.x.x.x.5.> . . . . . E z.x.x.x.r.w . @ X .     ",
"      . 9 7.x.x.x.x.x.x.x.x.x.x.x.x.x.X.X . . . . . i u.x.x.x.u.w . o X .     ",
"      . % <.x.x.x.x.x.x.x.x.x.x.x.x.x.[ . . X X . . t t.x.x.x.u.i . X . .     ",
"      . X ..x.x.x.x.x.x.x.x.x.x.x.x.x.' . . X # . . C f.x.x.x.u.g . X X .     ",
"      . . U l.x.x.x.x.x.x.x.x.x.x.x.x.X.X . . X . X ' x.x.x.x.s.i . . . .     ",
"        . > 6.x.x.x.x.x.x.x.x.x.x.x.x.w.q . . . . q 0.x.x.x.x.x.X.$ # .       ",
"      . . X l 9.x.x.x.x.x.x.x.x.x.x.x.x.2.M > 0 U 7.x.x.x.x.x.x.z.;.9 .       ",
"    . . o O . l 5.x.x.x.x.x.x.x.x.x.x.x.x.k.i.a.z.x.x.x.x.x.x.x.z.( X .       ",
"    . . 7 P # . : @.h.x.x.x.x.x.x.x.x.x.x.x.x.x.x.x.x.x.x.x.x.z.%.% .         ",
"      . . & U * . X j  .8.z.x.x.x.x.x.x.x.x.x.x.x.x.x.x.x.k.2.J o .           ",
"        . . & I i X . X * 0 B ^ o.>.y.i.d.l.j.d.q.2.;.@.R s & . .             ",
"          . . # F E B t * X . X X # # : > 2 9 6 > # + X . . . .               ",
"            . . p ' ' _ I ; # p 4 o X o * 6 2 X $ X o . .                     ",
"            . : _ ' _ W 4 X f s o X 8 D H H s . > & , . .                     ",
"            . X L ` P $ X a < X ; b H H H n ; . 6 , , , .                     ",
"            . . . s 2 X < @ X 7 F H H H n < : . 0 g & q .                     ",
"              X . . . O X X p G H H H f $ 7 k X 6 V # 9 .                     ",
"                  . X . o z G H H D 8 X < D b X 6 C * = X .                   ",
"                . . X X z H H H b $ . 7 G H D o % F 9 O X .                   ",
"                . . X f H H F 5 o # k G H H x X o G g O X .                   ",
"              . . X 7 G H z $ X 7 n H H H n $ X X m V O X .                   ",
"              . . % D D e X # s G H H H n * @ 3 . 8 G q X .                   ",
"              . X x s @ X 5 D H H H H c # @ z d . % G v & .                   ",
"            . . 8 ; X < x H H H H G d o # x s $ X X b F 6 .                   ",
"            . X $ ; x F H H H H m 2 X : n p X X . . 4 s O .                   ",
"            . X ; m H H H H D f # X 7 c 7 X . . . X $ < . .                   ",
"          . . * D G H G D f $ . % z v $ . . . . . . # # .                     ",
"          . . f D F d ; X . # d m 3 X . . . . . . . $ X .                     ",
"        . . X @ X X X X 1 k x 4 X . . . . . . . . . ; . .                     ",
"      . . o f e 6 r k b f < o . . . . . . . . . . X # .                       ",
"      . X 8 k k j r 1 o . . X . . . . . . . . . . X . .                       ",
"      . . . . . . . . . .   . . . . . . . . . . . . .                         ",
"            . . .           . . . . .     . . . . .                           ",
"                            . . . . .     . . . . .                           ",
"                            . . . .       . . . .                             ",
"                              . . .       . . .                               ",
"                                . .       . .                                 ",
"                                                                              ",
"                                                                              "
};
