/* XPM */
static char *f9e1646aa2f94046c431fbea1061a71agGUJFtUL2JHRs88t[] = {
/* columns rows colors chars-per-pixel */
"46 75 158 2 ",
"   c #010104",
".  c #0A0907",
"X  c #03030B",
"o  c #08070D",
"O  c #06080C",
"+  c #0A090B",
"@  c #020413",
"#  c #050914",
"$  c #0C0D12",
"%  c #000618",
"&  c #040A1C",
"*  c #0A0E1B",
"=  c #100E11",
"-  c #110F1A",
";  c #0D1116",
":  c #0E111B",
">  c #121214",
",  c #14141A",
"<  c #18171C",
"1  c #171A1F",
"2  c #1A1A1C",
"3  c #060E21",
"4  c #0C0F20",
"5  c #0D1321",
"6  c #121423",
"7  c #161922",
"8  c #1D1D22",
"9  c #111629",
"0  c #161B2A",
"q  c #1B1D29",
"w  c #171E31",
"e  c #191E31",
"r  c #201F24",
"t  c #1D212B",
"y  c #1D2334",
"u  c #232326",
"i  c #24242A",
"p  c #28272C",
"a  c #25282F",
"s  c #2B2B2D",
"d  c #222632",
"f  c #262A36",
"g  c #2B2C33",
"h  c #20273A",
"j  c #232939",
"k  c #2A2D3B",
"l  c #302F35",
"z  c #302E3C",
"x  c #2D313D",
"c  c #323234",
"v  c #34353A",
"b  c #3B3A3D",
"n  c #282F42",
"m  c #2C3142",
"M  c #323644",
"N  c #363944",
"B  c #3D3D42",
"V  c #30374A",
"C  c #343A4B",
"Z  c #3A3E4A",
"A  c #3A3F51",
"S  c #413F45",
"D  c #3D404F",
"F  c #3E4355",
"G  c #3E4558",
"H  c #424244",
"J  c #45454A",
"K  c #4A4A4D",
"L  c #434654",
"P  c #464956",
"I  c #4C4C52",
"U  c #404759",
"Y  c #444B5D",
"T  c #4A4E5C",
"R  c #4E525E",
"E  c #525254",
"W  c #585657",
"Q  c #55555B",
"!  c #58575D",
"~  c #5A5A5D",
"^  c #474E60",
"/  c #494E61",
"(  c #4C5264",
")  c #4F5668",
"_  c #515566",
"`  c #585664",
"'  c #5E5D62",
"]  c #51566A",
"[  c #53596C",
"{  c #575E70",
"}  c #585F71",
"|  c #605F65",
" . c #605D6E",
".. c #596072",
"X. c #626264",
"o. c #65656A",
"O. c #64686B",
"+. c #6B6B6D",
"@. c #6E6D73",
"#. c #706F75",
"$. c #6E7176",
"%. c #737375",
"&. c #757579",
"*. c #78777C",
"=. c #7B7B7C",
"-. c #747280",
";. c #7D7C82",
":. c #7E7C88",
">. c #828185",
",. c #85838B",
"<. c #88878F",
"1. c #8B8A8D",
"2. c #848192",
"3. c #8E8E91",
"4. c #8F8D98",
"5. c #939395",
"6. c #959499",
"7. c #98979C",
"8. c #9A9A9C",
"9. c #9E9EA1",
"0. c #A3A2A4",
"q. c #A6A5AA",
"w. c #ABAAAD",
"e. c #AEB0AF",
"r. c #AEADB2",
"t. c #B0AFB4",
"y. c #B3B3B5",
"u. c #B5B5B9",
"i. c #B8B7BC",
"p. c #BBBBBD",
"a. c #BEBDC1",
"s. c #C0BFC4",
"d. c #C3C3C5",
"f. c #C6C6C9",
"g. c #C8C5CC",
"h. c #CBCBCE",
"j. c #CECED1",
"k. c #D0CFD4",
"l. c #D3D3D4",
"z. c #D6D5DA",
"x. c #D8D7DC",
"c. c #D7D8DA",
"v. c #DBDADD",
"b. c #DEDEE1",
"n. c #E3E2E4",
"m. c #E6E5E9",
"M. c #E8E7EC",
"N. c #EBEBED",
"B. c #EEEEF2",
"V. c #F0EFF6",
"C. c #EFF0F5",
"Z. c #F4F4F5",
"A. c #F6F8F5",
"S. c #F9FAF7",
"D. c #F6F6F9",
"F. c #F9F7FD",
"G. c #F7F8FC",
"H. c #FEFEFE",
/* pixels */
"H.H.H.H.H.H.H.H.S.H.H.S.H.S.H.H.V.~ < g w.D.H.H.H.D.k.2 X o #.V.H.V.H.H.S.H.H.H.H.H.H.H.H.H.",
"H.H.H.H.H.H.H.H.H.H.S.H.H.Z.H.f.- < >., ! F.D.H.G.H.*.+ #.N $ J M.H.Z.H.H.Z.H.H.H.H.H.H.H.H.",
"H.H.H.H.H.H.H.H.S.Z.H.H.H.N.I 2 I g.w.o 3.F.H.H.H.D.t.< >.n.' X E A.H.Z.H.H.S.H.H.H.H.H.H.H.",
"H.H.H.H.H.H.H.H.H.H.H.H.Z.K   +.V.m.E v m.H.H.Z.S.F.D.v u m.M.!   ' V.H.H.H.H.H.H.H.H.H.H.H.",
"H.S.H.H.H.H.H.H.H.H.H.G.W   X.Z.F.q.o J M.S.H.H.H.H.j.> b m.H.z.v   0.H.Z.H.H.S.H.H.H.H.H.H.",
"H.H.H.H.H.H.H.H.H.H.Z.h.> s z.H.H.t.B   ;.H.G.H.H.G.%.2 a.H.B.H.7.+ J D.H.H.H.H.H.H.H.H.S.H.",
"H.H.H.H.H.H.H.H.G.G.S.u   7.H.S.H.m.B > p.H.S.H.H.H.i.> g k.H.H.N.H + l.H.Z.H.H.H.H.H.H.H.H.",
"H.H.H.H.H.H.H.H.H.H.8.  K Z.H.H.Z.I o ;.H.H.H.H.H.S.H.p.X K G.F.G.0.  +.S.H.H.H.H.H.H.H.H.H.",
"H.H.H.H.H.H.H.H.H.Z.b . 5.F.H.F.%.. 3.M.H.H.H.H.H.H.H.H.o.X 9.H.H.n.$ c B.H.H.S.H.H.H.H.H.H.",
"H.H.H.H.H.H.H.H.G.d.> K x.H.H.h.- I m.H.H.D.H.H.D.G.H.H.f.- | B.H.M.u 2 c.H.H.H.H.H.H.H.H.H.",
"H.H.H.H.H.H.H.H.H.;.  r.H.H.H.&.  9.H.H.H.H.H.S.H.H.S.S.N.2 l M.H.A.K + p.H.H.H.H.H.H.H.H.H.",
"H.H.H.H.H.H.H.H.S.I > M.H.F.B.c + k.H.H.H.D.H.H.S.H.H.S.B.l 8 v.H.H.+.+ y.H.H.H.H.H.H.H.H.H.",
"H.H.H.H.H.H.H.H.v.v p B.H.H.s.r > M.H.G.H.H.H.H.S.H.H.H.H.b < k.H.H.@.+ e.H.H.H.H.H.H.H.H.H.",
"H.H.H.H.H.H.H.H.x.8 B D.H.H.i.< p M.H.H.H.H.H.S.H.H.S.S.S.i u m.H.G.~ + y.S.H.H.H.H.H.H.H.H.",
"H.H.H.H.H.H.H.H.M.r J H.F.H.k.8 8 z.H.H.H.Z.H.H.H.S.H.H.f.= K M.H.S.H + u.S.H.H.H.H.H.H.H.H.",
"H.H.H.H.H.H.H.H.M.S J V.H.H.m.v . f.G.H.H.H.H.H.H.H.H.H.#.X ;.F.H.G.c > d.H.H.S.H.H.H.H.H.H.",
"H.H.H.H.H.H.H.H.M.E u c.H.H.H.@.  @.D.H.H.H.F.H.F.H.H.N.l r s.H.H.v.i u l.H.H.H.H.H.H.H.H.H.",
"H.S.S.H.H.H.H.S.H.%.  p.H.H.Z.z.,   ! 6.w.q.t.t.9.6.>.| o ' V.H.H.d.  H D.H.H.H.H.H.H.H.H.H.",
"H.S.H.H.S.H.H.H.S.u.  o.Z.Z.H.G.h.S , X   X $   o   + $ r t.H.H.N.+.  8.C.G.H.H.H.H.H.H.H.H.",
"H.H.H.H.G.H.H.H.H.N.H 2 h.H.S.H.H.B.z.7.&.#.,.4.,.+.1.h.N.H.H.H.N.o.  2 f.H.H.H.H.H.H.H.H.H.",
"S.H.H.S.H.H.S.G.S.h.t . >.G.H.H.D.H.H.H.H.H.Z.D.H.H.G.G.G.H.H.S.H.Z.1.+ 2 w.Z.H.H.H.H.H.H.H.",
"H.H.S.H.H.H.H.H.f.u = 2 s l.H.S.H.G.D.S.H.H.H.H.H.H.G.H.H.S.H.H.H.H.S.1.  b M.H.H.H.H.H.H.H.",
"H.H.H.H.H.H.H.z.c 2 0.q.> c d.H.H.H.H.H.H.H.H.D.H.H.H.H.S.S.H.Z.H.H.H.S.W   +.D.H.H.H.H.H.H.",
"H.H.Z.H.H.H.B.+.  +.S.H.E + u f.S.H.H.H.H.H.H.H.H.S.H.H.H.H.H.H.H.H.H.F.p.> 2 l.H.H.H.H.H.H.",
"H.S.H.H.A.H.v.> u c.H.H.M.=.> 1.G.H.H.H.H.H.H.H.H.H.H.S.H.H.H.H.H.D.H.H.Z.H   u.H.S.H.H.H.H.",
"H.H.H.H.A.H.8.  H A.H.H.H.D.f.N.H.H.H.H.S.H.H.H.H.H.H.H.H.H.H.H.H.H.H.S.H.o.+ 3.H.H.H.H.H.H.",
"H.H.H.H.H.H.H   o.G.H.H.G.H.H.H.H.H.H.H.H.H.H.H.H.S.A.H.H.H.H.H.H.H.G.Z.H.>.. +.H.S.H.H.H.H.",
"H.H.H.H.H.N.>   1.S.H.H.S.D.H.S.H.H.H.H.H.H.H.H.H.H.H.H.H.H.H.S.H.D.H.H.H.5.  I H.S.H.H.S.H.",
"H.H.S.H.H.f.. > p.H.H.H.H.H.H.H.H.H.H.H.H.H.H.H.Z.H.H.Z.Z.H.H.H.H.H.H.H.Z.0.+ b A.A.H.H.H.H.",
"H.H.H.H.H.0.. u z.H.G.H.H.H.D.H.H.H.H.H.H.H.H.H.H.H.H.H.H.H.H.H.H.H.H.H.H.z.= v N.N.H.H.H.H.",
"H.H.H.H.H.8.  s n.H.H.H.H.H.G.H.H.H.H.H.H.H.H.Z.j.w.w.v.H.H.G.H.H.G.H.Z.h.p.> p n.N.H.H.H.H.",
"H.H.H.H.H.8.  v m.H.H.H.D.H.H.S.H.H.H.H.H.H.Z.c.u     H w.S.H.H.H.S.H.0.2 E = s n.n.S.H.H.H.",
"H.H.S.H.F.0.  i m.G.H.H.H.S.H.S.H.H.H.H.S.H.D.o.X     + + a.H.H.H.H.N.K   > + u n.l.H.H.H.H.",
"S.H.G.H.H.0.  g v.H.S.H.H.A.S.H.S.S.H.H.H.H.g.u   .       o.H.H.H.H.v.r +   . i c.j.H.H.H.H.",
"H.H.H.H.F.t.  q j.H.H.S.H.S.H.H.H.S.H.H.H.H.7.  .     $ $ c x.H.H.H.n.v   + . 2 l.z.H.H.H.H.",
"H.H.H.H.D.x.  8 s.G.H.H.A.H.H.H.H.H.H.H.G.G.1.@     #     g m.H.H.G.n.B   +   s n.n.H.H.H.H.",
"H.H.Z.H.H.n.$ . 6.H.F.H.S.H.D.H.H.S.H.H.H.H.<.  X X * X X S H.F.H.S.n.s + +   K S.S.H.H.H.H.",
"H.H.S.H.H.N.+.  ~ H.H.H.F.H.H.H.H.H.H.H.H.H.6.  @     o   ,.F.H.H.H.N.D   .   ' H.H.H.H.H.H.",
"H.S.H.H.D.H.9.+ u s.F.H.H.H.H.H.H.H.H.H.H.F.g.S   X     u b.H.H.H.H.Z.1.= .   1.H.H.S.H.H.H.",
"H.H.H.S.H.Z.B     S v.H.H.H.H.H.H.H.F.H.H.F.H.s.S r r | v.G.H.G.H.H.H.H.w.i + d.H.H.H.H.H.H.",
"H.H.S.H.S.=.+ . = X b j.H.H.H.F.H.H.H.H.H.G.H.H.G.M.B.G.H.H.H.S.H.H.H.Z.=.  c C.H.H.H.H.H.H.",
"S.H.H.S.H.E   s ' =   r 4.B.V.H.H.H.H.G.H.H.H.G.D.H.H.H.H.H.H.H.H.Z.H.q.$ 2 u.H.H.H.H.H.H.H.",
"H.H.H.H.A.N.+   = ' ,   o B 4.z.D.H.H.H.H.G.F.G.H.H.H.H.H.H.S.A.Z.h.'   . 9.H.H.H.H.H.H.H.H.",
"H.H.H.S.H.H.n.v o ,  .g - @ @ - u K %.6.a.b.B.Z.G.M.B.c.d.e.9.+.H     p y.Z.H.G.H.H.H.H.H.H.",
"Z.H.S.A.S.H.H.N.K   = E @.P m 6 @     X @ # : , 8 a t 8 $ ;       2 %.c.H.H.H.H.H.H.H.H.H.H.",
"S.A.H.H.H.A.H.H.z.2   p 2.-.2. .# 6 d i *   # 7 t f   : X ; $ O.9.v.H.B.H.H.H.H.H.H.H.H.H.H.",
"H.H.H.A.H.H.H.H.3.  r :.:.:. .r * x k @ X d T ( R M X t 1 # ; $.G.H.H.H.D.H.H.H.H.H.H.H.H.H.",
"H.H.A.H.A.H.S.H.,.= X Q :.` 6 @ M : @ 0 A _ _ _ F : X t y 7 8 t Z.H.H.H.G.H.H.H.H.H.H.H.H.H.",
"H.H.H.H.S.H.H.H.A.W   . g i X 9 & X y Y ( ( ] L 4 0 X r x : a O d.H.H.H.H.H.H.S.H.H.H.H.H.H.",
"H.H.H.H.H.S.S.H.H.S.o.  X   @ @ @ m ( ( ( ] C & n M @ j J : t   6.Z.H.H.H.H.H.H.H.H.H.H.H.H.",
"H.H.S.H.S.H.S.H.H.H.H.8.X X # X C / [ } ( e @ 9 L L @ q I , 7   &.Z.H.H.H.H.H.H.H.H.H.H.H.H.",
"H.H.H.H.H.H.H.S.H.A.B.K   X X Z / } ( n 9 @ w ( _ Y @ 6 P t : o o.H.H.H.H.H.H.H.H.H.H.H.H.H.",
"H.H.H.H.H.H.H.H.H.H.d.X X @ Z T ) ^ h % 3 V ( ( [ V @ * T N @ O E H.H.S.H.H.H.H.H.H.H.H.H.H.",
"H.H.H.H.H.H.H.H.S.H.&.  @ q R R A 3 % e G ( [ ^ A 4 @ @ L P # o K H.H.H.H.H.S.H.H.H.H.H.H.H.",
"H.H.H.H.H.H.H.H.H.B.s   : R F j % 3 n ( ) ( ( ^ 9 4 6 @ g T i # I H.H.H.H.H.S.H.H.H.H.H.H.H.",
"H.H.H.H.H.H.H.H.H.d.  $ Z h 5 X y U ] ( ( [ C * @ m F   * Y J * K H.H.H.H.H.H.H.H.H.H.H.H.H.",
"H.H.B.H.H.H.H.H.H.J X f & # 5 G [ ( ( } ( j & # L g 5 @ @ L T 8 ~ S.S.H.H.H.H.H.H.H.H.H.H.H.",
"H.S.H.H.H.H.B.H.v.a   : 5 C Y ^ / [ ) C 0 @ 5 P d * @ X   i z $ X.H.H.H.H.H.H.H.H.H.H.H.H.H.",
"Z.H.H.H.H.H.H.S.w.    t Z ( } [ [ U m 6 # f Z q #     X   # 8   +.G.H.H.H.H.H.H.H.H.H.H.H.H.",
"H.H.H.H.H.A.Z.H.!   t Z ) [ ( G n 6 X * M N 7           X o =   6.S.H.H.H.H.H.H.H.H.H.H.H.H.",
"H.H.H.Z.H.H.S.n.O X x P ( C & & X @ N T t               . = .   l.H.H.H.H.H.H.H.H.H.H.H.H.H.",
"H.D.H.H.B.H.D.H   # X X @ % @ w C Z q     +               =   l Z.H.H.H.H.H.H.H.H.H.H.H.H.H.",
"H.H.H.Z.H.l.v   X x g y h V V m q #                       = + 5.S.H.H.H.H.H.H.H.H.H.H.H.H.H.",
"G.H.H.H.H.8.  . u D x N k 5 3 @   O X                 .   . 2 n.H.H.H.H.H.H.H.H.H.H.H.H.H.H.",
"H.H.H.S.H.l.u             + p | 8.          > > .   .     > w.H.H.H.H.H.H.H.H.H.H.H.H.H.H.H.",
"H.H.H.H.H.H.n.N.w.X.b X.y.Z.D.S.n.;     .   d.a.  .     . 3.H.H.H.H.H.H.H.H.H.H.H.H.H.H.H.H.",
"H.H.H.H.Z.S.H.S.H.Z.H.H.H.H.S.H.Z.H   .   b H.v.      . &.Z.H.S.H.H.H.H.H.H.H.H.H.H.H.H.H.H.",
"H.H.S.H.H.H.H.H.H.H.H.H.S.S.H.H.H.%..   . 8.H.j.  .   o.H.H.H.H.H.H.H.H.H.H.H.H.H.H.H.H.H.H.",
"H.H.H.S.H.S.H.H.Z.H.H.H.H.H.H.S.S.N..   . j.H.d..   2 v.H.H.Z.H.H.H.H.H.H.H.H.H.H.H.H.H.H.H.",
"S.H.H.H.H.H.S.H.H.H.S.H.H.H.H.H.B.H.9.  > n.H.p.. 2 j.H.H.H.H.H.H.H.H.H.H.H.H.H.H.H.H.H.H.H.",
"H.H.H.S.H.H.H.H.H.H.H.H.H.H.H.H.H.S.S.n.n.H.Z.H.v.N.H.H.M.H.H.Z.H.H.H.H.H.H.H.H.H.H.H.H.H.H.",
"H.G.H.H.H.Z.H.H.S.H.H.H.H.A.H.H.S.H.H.M.N.H.H.H.A.S.H.S.H.H.H.H.H.H.H.H.H.H.H.H.H.H.H.H.H.H.",
"H.H.H.H.H.H.H.H.H.H.H.H.H.H.H.H.H.H.H.H.H.H.H.H.H.H.H.H.H.H.H.H.H.H.H.H.H.H.H.H.H.H.H.H.H.H.",
"H.H.H.H.H.H.H.H.H.H.H.H.H.H.H.H.H.H.H.H.H.H.H.H.H.H.H.H.H.H.H.H.H.H.H.H.H.H.H.H.H.H.H.H.H.H.",
"H.H.H.H.H.H.H.H.H.H.H.H.H.H.H.H.H.H.H.H.H.H.H.H.H.H.H.H.H.H.H.H.H.H.H.H.H.H.H.H.H.H.H.H.H.H."
};
