/* XPM */
static char *wall21677771234[] = {
/* columns rows colors chars-per-pixel */
"16 16 5 1 ",
"  c #181425",
". c #262B44",
"X c #3A4466",
"o c #4C5A78",
"O c #5A6988",
/* pixels */
"XooO XXo ..XXXX ",
"XXXXO Xo ..XXX X",
"XXXXXO o ..Xo .X",
"XXXXXXO      ..X",
"XXXXXXO  ooO ..X",
"XXXXXXO XXXXO .X",
"XXXXXo XXXXXXO X",
"XXXXo .XXXXXXXO ",
"XXXo ..XXXXXXXO ",
"     ..XXXXXXo  ",
"XXoO ..XXXXXo XX",
"XXXXO .XXXXX XXX",
"XXXXXO .... XXXX",
"XXXXXXO    XXXXX",
"XXXXXXXO  .XXXXX",
"    XXXO ..XXXXX"
};
