/* XPM */
static char *avn1p_boy6p[] = {
/* columns rows colors chars-per-pixel */
"50 50 132 2 ",
"   c #140F1E",
".  c #15101F",
"X  c #161122",
"o  c #191526",
"O  c #1A1728",
"+  c #1C1A2C",
"@  c #1E1D32",
"#  c #201F33",
"$  c #1F2036",
"%  c #212136",
"&  c #23253B",
"*  c #26283E",
"=  c #292A3E",
"-  c #252740",
";  c #262A43",
":  c #2A2D44",
">  c #2A2E49",
",  c #2E3046",
"<  c #2C314B",
"1  c #31354C",
"2  c #33384F",
"3  c #2E3551",
"4  c #303754",
"5  c #333955",
"6  c #393E56",
"7  c #353D5C",
"8  c #383F5A",
"9  c #373F60",
"0  c #3C435C",
"q  c #374061",
"w  c #3A4467",
"e  c #3A4567",
"r  c #3B4567",
"t  c #3A4466",
"y  c #3B4667",
"u  c #3A4465",
"i  c #3D4765",
"p  c #3A4466",
"a  c #3E4863",
"s  c #3F4965",
"d  c #3F4965",
"f  c #3B4568",
"g  c #3B4668",
"h  c #3C4668",
"j  c #3C4768",
"k  c #3C4769",
"l  c #3D4769",
"z  c #3C476A",
"x  c #3C476B",
"c  c #3B4668",
"v  c #3D4869",
"b  c #3E486A",
"n  c #3E496A",
"m  c #3E496B",
"M  c #3F4A6B",
"N  c #3E496A",
"B  c #404760",
"V  c #404863",
"C  c #414964",
"Z  c #424A64",
"A  c #434B66",
"S  c #424B65",
"D  c #434E6A",
"F  c #434E6B",
"G  c #404C6C",
"H  c #414C6D",
"J  c #414D6D",
"K  c #424D6C",
"L  c #414C6E",
"P  c #414D6F",
"I  c #424D6F",
"U  c #424E6E",
"Y  c #424E6F",
"T  c #454F6D",
"R  c #424D6C",
"E  c #46506E",
"W  c #46526E",
"Q  c #46516D",
"!  c #48526D",
"~  c #424F70",
"^  c #434F70",
"/  c #434F71",
"(  c #434F70",
")  c #445170",
"_  c #445071",
"`  c #465171",
"'  c #445072",
"]  c #465172",
"[  c #455272",
"{  c #465272",
"}  c #465372",
"|  c #475473",
" . c #465374",
".. c #475475",
"X. c #465272",
"o. c #485472",
"O. c #485572",
"+. c #4B5672",
"@. c #485474",
"#. c #495575",
"$. c #485675",
"%. c #4A5674",
"&. c #485476",
"*. c #495676",
"=. c #495777",
"-. c #4A5676",
";. c #4A5776",
":. c #495575",
">. c #4B5977",
",. c #4D5975",
"<. c #4F5A76",
"1. c #4C5876",
"2. c #4A5778",
"3. c #4D5978",
"4. c #4D5B79",
"5. c #4E5B79",
"6. c #4F5B7A",
"7. c #4E5B7B",
"8. c #4F5D7B",
"9. c #4F5D7D",
"0. c #4F5D7E",
"q. c #4D5A79",
"w. c #505C7B",
"e. c #505D7D",
"r. c #515E7D",
"t. c #51607E",
"y. c #53617E",
"u. c #556483",
"i. c #566584",
"p. c #576786",
"a. c #546382",
"s. c #596887",
/* pixels */
"u r b ) >.4.4.4.t.p.s.,.6 % O & 5 f h f f U ;.| 0 : + O $ - ; - ; < 5 q r f r r r r r f h q < % o   ",
"u r b ) ;.>.>.>.9.u.i.,.6 & # - 5 q r r f U ;.| 0 : + O $ - ; - ; < 5 q r f r r r r u r u 7 < % + o ",
"u r b U ) | | | ;.4.9.;.a 1 : : < 4 7 q h ^ ;.+.0 : + O $ - ; ; ; < 5 q r r r r r r u 9 5 3 > & % % ",
"r r h b U U U U U ) ) ) T A 0 1 : - < 7 h ) ;.+.0 : + O $ - ; ; ; < 5 q r r r r f f q 5 > - - > < < ",
"r r r r r h h h h f h U ;.8.+.0 = % - 4 u U ;.+.0 : + + $ - ; ; ; < 5 q r f r r r r 7 , % @ & 3 7 q ",
"r r r r u u u u u u u b ;.9.4.V 1 : : < 5 i ) +.0 : + + % - ; ; ; < 5 q h b b b q 7 3 - @ @ - 5 u b ",
"r r r u u u u u u u u h U  .@.E A 0 1 : : 5 F +.a : + + % - ; ; ; < 5 q b ^ ) U 0 , & % % & > 5 r h ",
"r r r r r r r r u u r r r h U ;.4.+.0 : % , a E 0 : + + $ - ; ; ; < 4 q b ) | F 5 & @ @ % ; 3 7 u f ",
"r r r r u u u r r r r u u u b  .e.4.A 1 = , 0 a 5 & O O @ & & & & - > 4 7 a d 0 < % + @ & ; 3 7 u f ",
"r r r r r r r r r r r u u u f U  .;.T a 0 6 2 , * @ O o O + @ @ @ @ % & : : , , : & $ % - > 3 7 u f ",
"r r r r r r r r r r r r u u r f b U +.,.+.0 , % O o o o O O O O O O + + + @ @ % % & - - - : 3 7 u f ",
"r r r r r r r r r r r r r r u u u b ;.u.y.A : O X X o O + % % % % % % % % + o O @ & ; ; ; : 3 7 u f ",
"r r r r r r r r r r r r r r u u u b 2.i.u.A : o     o + = < 2 2 1 5 5 6 1 & O X + & ; ; ; : 3 7 u f ",
"r r r r r r r r r r u u r r u u u b ;.u.y.A : O   X o & 4 a F F F E +.,.A 1 # O @ & ; ; ; : 3 7 u f ",
"u u r r r r u r r r r u r r u u u b ;.u.y.A : O X o @ : 0 E >.>.;.4.a.u.,.0 : % % & * - - > 3 7 u f ",
"u u r r r r u r r r r r r r u u u b 2.i.u.A : O O @ : 4 u U  . .) ;.q.4.;.F 0 2 : & $ % & > 3 7 u f ",
"r r r r r r r r r r r r r r r u u b 2.u.u.A : + @ ; 5 7 r b b b b b M U / ;.+.F 5 & + @ & > 3 7 u r ",
"r r r r r r r r r r r r r r r r r b ) 4.,.0 : # & 3 q r r r r r r r u r M ;.e.,.0 : % @ & - 3 7 u f ",
"r r r r r u r r r r r r u u r b U U F A 0 5 , : < 7 r h f u u u u u u u h ) q.;.F 0 1 : & % : 5 u h ",
"u r r r r u r r r r r r u u h U ) E 0 1 : : < 5 7 q r r r r r r u u u u r b U ) +.+.A 5 & @ - 4 u h ",
"u r r r r r r r r u r r r r b U ) F 5 & @ & 4 q r r u r r r r r r r r r r u r b ;.e.4.0 : % * 3 7 q ",
"u u r r r r r r u u u r b U U d 0 5 : % @ - 5 r h f r r r r r r r r r r u u u h ) 4.4.F 6 1 , , < < ",
"r r r r r r r r u u u h U ) T 0 , * % % & > 5 r f r r r r r r r r r r r u u u r b U ) ) E A 6 : & % ",
"r r r r r r r r r r r b U ) A 5 & + @ & ; 3 7 u r r r r r r r r r r r r r r r r r r b ;.e.w.V : + X ",
"r r r f f f f f h b U F d a 5 : % @ @ & : 3 7 u r r r r r r r r r r r r r r r u u u b 2.i.i.A : O   ",
"f f f f f f f h M _ ) U 0 , : & & % & - : 3 7 u r r r r r r r r r r r r r r r u u u b 2.i.i.A : O   ",
"q q q q q q q q i U ) A 1 & + @ & - - - ; 3 7 u r r r r r r r r r r r r u u r r r r b ;.e.w.B : O X ",
"3 3 3 3 4 3 3 4 5 0 0 6 : + O @ & ; ; ; ; 3 7 u r r r r r r r r r r r r u u u r h b U T E V 2 & O X ",
"& & & & & & % & & * : & # O O @ & ; ; ; : 3 7 u r r r r r r r r r r r r r u u f U ) E a 5 , & + o X ",
"+ + + + + + + + + + + + O o O @ & ; ; ; : 3 7 u r r r r r r u u r r r r r r r h U ) T 8 : @ O O o o ",
"# # # # # % % & & * * & + O O @ & ; ; ; : 3 7 u r r r r r r r r r r r r r h b b G A 0 1 * # @ @ % % ",
"> > > > > < 4 5 6 0 0 6 = + o @ & ; ; ; ; 3 7 u r r r r r r r r r r r r h U ) U 0 4 , : : > > > , , ",
"7 7 7 7 7 q d T +.8.w.E 5 % O @ & - ; ; : 3 7 u f r r r r r r r r u u r b ^ | F 5 = % - 4 7 9 7 7 7 ",
"r r r r r b U ;.4.a.a.,.0 , & % & & & - : 3 7 r f f r r r r r r r r r r i b A 0 1 & % : 5 r h f r r ",
"f f f f f b G ^ ) ;.2.;.T V 6 , & @ $ & > 3 7 r f f r r r r r r r f f f q 7 1 , : : > 4 9 f h h f f ",
"r r r r r r f h b b b U ;.4.! 6 & + @ & : 3 7 u r r r r r r r r r r f r 7 , & % : 4 7 q u r r r r r ",
"r r r r r r u u u u u M ;.e.4.B , & % & - < 5 7 q q q q q q q q 9 7 7 7 3 - % % : 7 u f r r r r r r ",
"r r r r r u u u u u u h / ;.;.T 0 5 : & $ & < 4 5 5 5 5 5 5 5 5 5 3 < : - - - > 4 9 r f f r r r r r ",
"r r r r r r u u r u r r h b U ;.,.! 6 * + @ & > < < < < < < < < > ; & @ % ; 4 7 q u r r r r r r r r ",
"r r r r r r r r r r r r u u b ;.e.4.V , % % & & & - & - - - - - & & @ @ % > 7 r f r r r r r r r r r ",
"r r r r r r r r r r r u u u h ^ 2.;.E 0 5 : & @ @ @ $ $ $ $ @ @ @ % % & : 4 q f f r r r r r r r r r ",
"r r r r r r r r r r r u u u r h G U @.;.E 0 = + O O O + O O O O O # - 3 7 q u r r r r r r r r r u r ",
"r r r r r r r r r r r r r r r u r b  .e.w.A 1 % + o o o o o o o O % > 7 r r r r r r r r r r r r r u ",
"f f f f f f f f f f f r r r u u u f ^ 2.4.E 0 1 = # o X X X o O @ & < q f f r r r r r r r r r r r r ",
"r r r r f f f f f f f r r r r u u r h G / ) +.F 6 = O X X o O @ % : 4 q r f r r u r u u r u u r r r ",
"9 9 9 9 q q q q q 9 q q q u r r r r u r b ;.e.t.A , + X X O + % - < 5 q r r r r r u u r r r r r r r ",
"< < < < < < < < < < < 3 5 q r r r r u u h ;.u.i.Q , + o O @ % & ; < 5 q r r r r r r r r r r r r r r ",
"% % % % % % % % % % % - < 7 r f r r u u h ;.u.u.F , + O @ & & - ; < 5 q r r r r r r r r r r r r r r ",
"O O O O O O O O o o O @ : 7 r f r r u u h ;.a.u.F , + O @ - - - ; < 5 q r f r r r r r r r r r r r r ",
"X X X X X X X X X . X + ; 7 r f r r u u h ;.a.u.F , + O $ - ; ; ; < 5 q r f r r r r r r r r r r r r "
};
