/* XPM */
static char *_34da00932ca469cca52f036c87ff908W3sZDdgOi2716XLI[] = {
/* columns rows colors chars-per-pixel */
"64 64 44 1 ",
"  c #13100E",
". c #161311",
"X c #1A1614",
"o c #1C1916",
"O c #1E1B18",
"+ c #221E1B",
"@ c #26211D",
"# c #29231F",
"$ c #262220",
"% c #2C2521",
"& c #2F2823",
"* c #322A26",
"= c #362E29",
"- c #382F2A",
"; c #37302B",
": c #3B322D",
"> c #3E3630",
", c #40362F",
"< c #413731",
"1 c #443A34",
"2 c #4A3E37",
"3 c #473E38",
"4 c #4A3F38",
"5 c #4D413A",
"6 c #51453E",
"7 c #534740",
"8 c #554942",
"9 c #5A4D45",
"0 c #5C4F48",
"q c #5D5047",
"w c #5E5149",
"e c #62554C",
"r c #66584F",
"t c #675950",
"y c #6B5D54",
"u c #6F6057",
"i c #6F6258",
"p c #706157",
"a c #72645A",
"s c #77685D",
"d c #786A5F",
"f c #7C6D61",
"g c #7F7164",
"h c #807265",
/* pixels */
"a:>ss626yy5usuuuu0eu->sfw5etpyp-<ufhhy448uw+#2uftyfu099ehu4,wuua",
"y9*yde9pa6eauyuue58e>tdp6256waaw-9ahfstt0<,2eay84wuyte844ya8<244",
"5;3udffsp5iy8588445<rye52224ehdp9-0sfuue*,wafu047yuuphse4448e,<4",
"*%8yaappp855522544-7y9422228ahhsr&4wyye224upyuuweuuuyhhhawwtp4*,",
"X;56etpr66*1221<<1%4y6ee8649shhay-14471*49yyyupappye8eahuuuuw<+*",
"5*22266522-*1;:2112<eyyppuyyshhau8#-,*+*44wtw9eyt964449yuyw8<++-",
"a>;5222225:@<9ydsppw1tppuppuytetu0X%<4**44tyyw47447we424444<-4ts",
"u9:<522222;*tpahhapy16yyute864269-+tsh8%%-449y424wpp044244<+14wy",
"y6e;14442:+5aiahhsyp6,69852241;;-++7fh71,*+#17424epe44442,%+1224",
"y0pe;<1>*-*8pishhsype**12222-%:&X@#4uht9994-**224wt424--4wa9-244",
"ppffe:+%e618pupapyyy92-+%**+%0s7>774wfauppt74#%,1441-++tauhh2*22",
"eysfsy=4a9q5yuit65551,&,8539pfp>92etepuuye72*291-#-70<,d94ua7+*2",
"26ryuy04dfa<6rr62221&*9dhdssaa94y17yiupt42&*9fhhy<9ea02uyyy91+*-",
"224866r2yfa6&252222-*6udapuuue1yf7-0yiy72&,4tfhae4yyp0-7yt44,6uy",
"2222228:8tw4%+:1222&@226rtr06,ehgr=29w91%+,17974,-90w7,*444<-8ty",
":222221+,622*+%&**-@+<226621%1ahfy>>441%1wy1<1<,-*1122<+%2<*2469",
"1-2222:.,441*142111,+@;1441%:6easu0-><%-0ef9+,4ts9-441-1-*%*15ry",
"1+121,+*+--*1tuyyuae@<0<;1%@116q9864%*<<--1,1phhhf7--<rspytw>;8r",
":+@*&-26*+:6uhfdssa61thy7545:,221444-*244411uhhfpe9&4yafhhhfs5-1",
"&22460te&<9shaupue::6dhappyt8+-24441*$*>1:-1eat44221te9wtaffgfr1",
"6yaauup9-4rssyte8*:;*41;11==*-&----:4ye:*<<-ww72442:6222448eyyye",
"rahsreye-469082=*5851%X*546e621114<0fhy8wu<*t422242-11,-:,<12463",
"hhhu648y>:44<&&:0ppr3;;>phhhy9qetu9<uiyyyi8=yy71221&**:64%&%%&&-",
"hhhe224r9+**$+8afgse=r9<phhhauadsfy*49eiy0:<sst9641%19ysa<11115y",
"fhs62426y-=-<*7fhsy>1r0:eshhsdhhhhs2-2794:%rhhauyr63ysfff43840sf",
"rpe22426p4:44,=psy1=20r-6tsashhhhfu9%241-:-tffsuye-8fhhhy<efafhf",
"66222228ue=6r0-:71@=28p<:8rtrrryaau7X&--09<9tyte8-+9sffy58affffy",
":222424ey6&6sa9=.<3*28pr*126222668w4+&9psw<44441&o%6t084%7eyuy07",
"@,2222222%-9hdy1>ai;36tt1&2222222227+4fgsr-122-++4-442<=+<480614",
"e::2222,#-8shdt1ihf3*2552&*222222221>yafy9*<3=*$>y>3>>500:14441<",
"yt<-21&&4eshhy1tggf5O:4421X@12222443<yyte4=%+*t3ry1*7yfff3&11-1w",
"608++#-28etay1efgsy5$+&:,-*++&:--**%*774422:*wa3wy-7sffff4X&>8su",
"222++-22224929psp942+***-0y8%&>----%%44424<*rff126-taffsu17pfgfa",
",,*,2,*,1424*4tt442-1449tafa82w64444<*1441+whhf4<<1yyytt87fhhfpr",
"+*26444,-,14*-4442*<449pffffy<wuyw0tu0-,,-*ehhf0--<66442=yfhfe3*",
"26ruue441---%&--%+<t429sfghfi80hhfutyu8%7y6<wsfs2@12444-3usy9:=4",
"eahhduyr06<7t816*$7y727pffgfuweffhr49tw7aa12wshhu1-1442%10w6*-9p",
"shhhauppp88dhdyp9#0p724yyffauw4tyu842420yw,4epfhff9<<<&&11<&;8up",
"phhhpwtyw<whhutyt*7r744eiyyyp9*4w9444<<042=24qrusfpy<3w04*++16rr",
"2yauw444%<4wr66yu9*<44440e9tp7X-2241>+2821+1444480re3ufsut2+,444",
"%4ww42,+o-44224yyu9*,22244424:-**,-%++141%+*444424419yw0r05%&>:>",
"<,21<,*+-*,12248742*+%**---&-142,*++,,-*&+<-*114221-88411,19yit5",
"w9117yu-291*111,*+*-<79*%:<1444424-*yt11786e<**--*&+11<<2rfhhdiy",
"4tpsfhh817t7,***%,227pp*1444444964-4paaupy1yw411212-&-4eyyypt086",
"44yfhhfe<9dhpyw4-247yhs*<48ettyfr4<1yfhayy3spe9eyyq,11446465422,",
"*46tsir<<yhhfppw-29uafh8=4yfggggdt416eppy0whfyyfhsy::--1,1,:;:::",
"+12497-%2waat99t,2tsfpau1>efghffap41244665fhsysfhsr&ee4--%%-:50r",
"%%122<%%24744241*4tasptwe1we80yyyt-<2242*0hfyyuffs9*6tuyy4*:,:<4",
"46111:te>2441<=+#7yute92we=&==-24-++<<-&-eaaw4tput<*44wyy1eye0<&",
"7sa1%9hh8;<><42*@19t84424w:7t8<$:171&&--,4e044wt8*++%<4617uhhhu4",
"4rht69hhy@O3tytt4*44442414:tat4=tffyw9ww-1424441&$:3---*+4yfffiy",
"14eau5tpe-7ypsdpy6<24422<,ehfy<%2tppuyuu4,4424,10psfpw9w4<9wetw8",
"-12eu90011uusfhfiu41441*1thhu777:>7tuusfy2,21&2yafhhhsppt-14441-",
"8:1ep6wr04rusfhhha0#*#o+4wyy44w244-7tufhhy%+++1wysffsuupp9&11-*1",
"6-2rr:eup0:9eysffu7*-<*$4244<882264>6tshhu-%%<*180tuyuyypy-*-<4w",
",*4r1-6695+*480rt0-49ty4,2442702220<18ysu0&>8e<*2249w949t0*489ef",
"%%1;%*>11=84-44441:tyusu-*14<4t62298-4972*-rsfe**44444444--wupsf",
"*:59tre8->0w;%<44=1ueyst1741-,rt0894%*-%%*18ysu9+-442444-%9pffhs",
"2efft76y7<5570>-*O7y40u80futw-40944-1,-<78,40upw42*-<24-*0ufhhfu",
"4rsye88ry;11sfp8-$4y70u4yfyty1,414<4924eaw-29e9,0sy7*%%&epshhha4",
"4ryupfffp5*1pffpu91u8wy1te6490*11--tt6ehh4,444,#40tyy7*@4tupffe%",
"456epfhgs8%1wypiyt1w94w-4444294&%+1ryyshd1<242+,44467w0$-490we9%",
"22446epye*&148te72+4942+,22222<*2*,468wtr,,24-*222222491,422244-",
"*1222792&*<-:4542-X,42< X<4222-64,,2222421=21+%222222441-4224444"
};
