/* XPM */
static char *aab41d9ca8e14543d7bcfdd113858060536UBhSWsylYMgmG[] = {
/* columns rows colors chars-per-pixel */
"64 64 134 2 ",
"   c #442A27",
".  c #442B29",
"X  c #45322D",
"o  c #4A332F",
"O  c #4C3531",
"+  c #463A30",
"@  c #4C3B35",
"#  c #4F3E39",
"$  c #523B36",
"%  c #533E3A",
"&  c #4C4037",
"*  c #4E4139",
"=  c #5A4136",
"-  c #53433C",
";  c #59443E",
":  c #614B3E",
">  c #564641",
",  c #5B4642",
"<  c #554942",
"1  c #5B4B44",
"2  c #5C4E49",
"3  c #5D5047",
"4  c #5D534B",
"5  c #614B45",
"6  c #634E49",
"7  c #615147",
"8  c #685447",
"9  c #63534C",
"0  c #69554D",
"q  c #64594E",
"w  c #6B5A4E",
"e  c #655651",
"r  c #6A5751",
"t  c #655A53",
"y  c #6B5B54",
"u  c #665D59",
"i  c #6E5E59",
"p  c #715C56",
"a  c #715F59",
"s  c #6C6157",
"d  c #6D625A",
"f  c #6F685F",
"g  c #726055",
"h  c #73645C",
"j  c #79665F",
"k  c #74695E",
"l  c #796C5E",
"z  c #6E6760",
"x  c #6F6A64",
"c  c #756761",
"v  c #796761",
"b  c #756B63",
"n  c #7B6C64",
"m  c #766F68",
"M  c #7A6F68",
"N  c #7D7165",
"B  c #777068",
"V  c #7D736B",
"C  c #7F786F",
"Z  c #7F7871",
"A  c #806E67",
"S  c #816F68",
"D  c #817365",
"F  c #83756C",
"G  c #88766E",
"H  c #85796D",
"J  c #8A7B6D",
"K  c #827770",
"L  c #887770",
"P  c #857B73",
"I  c #8A7D74",
"U  c #867F78",
"Y  c #887F78",
"T  c #878077",
"R  c #8C8176",
"E  c #878079",
"W  c #8C847B",
"Q  c #8F887F",
"!  c #908277",
"~  c #92857B",
"^  c #93897E",
"/  c #998C7F",
"(  c #8F8880",
")  c #918A81",
"_  c #958A80",
"`  c #938C82",
"'  c #948C83",
"]  c #958C83",
"[  c #958D83",
"{  c #958E84",
"}  c #968F85",
"|  c #978F85",
" . c #988C82",
".. c #998D83",
"X. c #988F85",
"o. c #979085",
"O. c #979086",
"+. c #999085",
"@. c #989086",
"#. c #999186",
"$. c #999187",
"%. c #9D9285",
"&. c #9D9187",
"*. c #9A9288",
"=. c #9C9388",
"-. c #9C9488",
";. c #9C9489",
":. c #9D948A",
">. c #9F978B",
",. c #9F978C",
"<. c #9F988C",
"1. c #A09487",
"2. c #A0958B",
"3. c #A1968A",
"4. c #A2978D",
"5. c #A2998D",
"6. c #A0988E",
"7. c #A39A8F",
"8. c #A79B8D",
"9. c #A49C8F",
"0. c #A99F8F",
"q. c #A39B91",
"w. c #A69E91",
"e. c #A59D92",
"r. c #A79E93",
"t. c #A79F93",
"y. c #A89E92",
"u. c #A99F93",
"i. c #A89F94",
"p. c #A9A094",
"a. c #AAA195",
"s. c #ABA297",
"d. c #AFA897",
"f. c #ACA498",
/* pixels */
"e e 2 + , 1 I J I R 8., 4 e e 4 - @ < # k I G R f.J * 9 e e % * < X e y y z W > < e e 4 # X % y y y c P - t u e t < @ . 9 y y y ",
"} ) ( E W F 0.#.-.2.] k O.O.O.( ^ Y U b %.4.} 4.3.V H #.) W W E W t ) } *.*.) f W } ( _ ( d H %.} O.-.( k W ) ) ( ( W r ) #.} O.",
"#.O.O.O.^ h #.#.#.#.^ b O.#.O.O.X.X.X.M I *.#.=.-.n E -.) W ) =.} h _ X.} } X.k } *.} X.} N W #.*.*.} W b %.%.#.} } } b #.} -.#.",
"H ^ O.#.W h } } X.X.I k ] W P O.X.X.=.M P X.] } ` d R O.^ ^ W I ^ h W X.) } I i ^ I X.} O.d d } *.} ] K v #.W W -.#.W 4 H } *.} ",
"p 6 6 F F j , > t t < - G n p 5 y L p @ 1 t t , k n G I I G D y 5 - n D A 7 h n G h r 6 n h a r y S n n 0 L n v 6 r D y h 6 c S ",
"f.4.] s.u.u.y e M P B > -.p.f.-.7.q.S , m Z P < P q.q.s.9.8.q.q.j W =.} 9.I ^ 9.s.s.8.! =.7.u.D ^ } } } n <.q.s.] ^ 7.q.*.D ] } ",
") =.=.}  .#.h P Q W W t P O.] %.( } M b ( ( W c h O.} ` } } #.X.h P E E W b R O.} } #.=.X.} X.v I W U W y P } } %.#.O.} ~ h W W ",
"*.#.*.} #.=.d K W W W m N *.#.O.( ` P d ( U W U s #.#.-.*.#.=.*.b Y E I ^ h W -.*.#.=.#.=.X.=.b W W W ( b Z =.*.*.%.*.#.^ m W W ",
"U I ! ! I a O y K K P b 9 ! I K I d , - F K Z Z 6 D I ^ I Y Y i 1 F F V M ; 6 I ! Y I ~ Y I Y 9 b H H K y 9 ^ R U ^ I W G 9 H V ",
" .^ _ } F $ 0 P I G 3 R !  .~ 6 v ! I S O - e t * 9  ._ L 5 v I I S 7 L I P k S  ._ ~ ~ _ S ; p P I F 1 I ! ^ W I ~ y 5 I G I I ",
"4.=.4.-.} b } } Q 9.G O.4.7.q.4.q.8.7. .9 V E W z y -.7.i.4.*.-.,.I Y _ ( ( M I <.4.4.4.,.] b #.} ^ 7.F *.4.4.-.%.q.n ^ 7.7.=.2.",
"} X.X.X.^ h U U U U i } #.) ] =.#.] #.^ d ( ( W I t _ X.X.X.} *.*.L M W W W n a }  .#.X.*.) g W U U I h } X.X.X.X.X.v ^ #.] -.#.",
"4.X.#.#.( c ( U E W r ] #.-.=.#.-.#.#.W 4 W W W ( z W -.#.*.-.-.*.H K W W ) Y d *.,.#.#.#.W b W U E E r  .#.=.X.=.#.k U 7.%.-.#.",
"P X.i.n % , c h h y . , n P H F G D h ; $ c n n d , r I D N n D F i 0 n n c t = n P -.9.n $ 1 b h d r . 5 M b b D b O > h B D n ",
"2.q.8. ., c M m N M i , ! 2.}  .-.h p %.#. . .~ 5 v X.0.#.N h O.X.=.%.X.#.i j / 4.2.q.p./ , b B M M M u 5 ! ^ M m u 4 i # y Z V ",
"-.#.X.I z ( ( W W ( V h -.-.*.*.-.n ^ -.-.#.-.2.b #.=.=.-.R F <.X.*.X.=.] h #.#.-.-.#.#.G h W ) E ( ( M c -.-.} ) ( } } v W *.} ",
"O.#.O.I n W W W E ) c H -.#.O.#.X.b ^ -.} =.X.-.k ] -.O.#.I N <.} X.#.*.^ n 4.#.-.O.*.} I M W W ( Y ( c G -.,.` Q Q =.*.n Y *.=.",
"R W -.V B Q E W W I u N I W ] #.#.i n -.#.#.X.^ q k I ] ] H C -.=.=.#.#.R u I I W I W *.D m ( U Y W U u D P W R R P a S a n W I ",
"* > y & > 9 q N n k l R O @ u d w X $ 2 t a a 2 t 1 X 2 u < < 7 6 i h h r y - @ 2 - < y # > 4 q n n h b R o y  .^ ^ ! r , D I I ",
"W T C b b f F p.#.-.p.] u P R P m b C 2 b W ^ ) ] m c W T I V d 2 W W W ^ } d m Z W U Z b b k G s.#.2.u.^ s W -.-.4.,.I H *.) ^ ",
"#.] #.*.] R N *.X.*.=.W N -.} ) ^ #.*.n Y #.} X.-.B W -.] X.#.! n -.X.*.X.} c ] -.#.` #.*.#.I F -. .*.=.I F #.O.X.*.-.V M W P U ",
"] #.} *.<.W b -.X.-.*.I B -.] ] ) X.*.n P *.*.*.#.n I #.#.=.*.W h #.-.4.#. .c X.O.} #.*.=.2.R b -.O.=.=.P N -.-.O.-.} V C W P ( ",
"6 ^ q.G b i 9 b b n k 1 y G G n h 5 h p k G M S g 5 n p n G D 9 o j D F A k $ j D 9 b D D j h r D D F h , y G F Y X.1 o r c z y ",
"2.9.8.} 6 c K N V M i 5 ~ 0.1.^ y ^ %.%.%.%.#.G w ^ 2.%.#.#.1.7 I 2.X.X.X.D 9 I 4.%.X.-.R 7  .2.%.} X.y h ~ 0.-.X. .1 2 V V m M ",
"-.#.O.P c W ) E ) ( V h =.-.-.#.k =.=.*.#.-.-.k W =.*.=.#.#.^ n -.-.#.#.-.^ B -.-.*.-.*.P P ,.#.#.O.>.H W -.-.-.=.$.h K W W P ( ",
"O.#.O.I N W E W U ) c K =.=.X.#.k X.#.X.#.%.#.b  .#.-.#.O.O.^ b -.#.} #.-.^ n 4.-.O.O.O.P D 2.} #.O.<.N W -.-.O.X.X.c U W U U U ",
"T W -.V m W W W W P y m P E } W h #.*.*.] #. .u N P I ) #.%.W 7 W -.#.#.] V 4 N I W =.=.M y } #.#.#.^ d t G I P ]  .d I W U W U ",
"* , y @ > 7 9 n n k N ! O - t 4 - 6 1 r i h i e e o 2 2 u i 1 X , , s h i 2 d @ O 9 d u @ O , 4 d g t 4 t X # * 9 2 + 2 d S n M ",
"W W P b B z G u.#.2.p.^ s E W W Z B 1 P ^ Q ^ O.K k Z W E P B B V , T W ) ) ] s K W I Z m Z a t W W }  .R s Y W U V V b ^ q.=.8.",
"#.^ #.#.O.W M -.#.#.-.R B -.} X.#.#.j #.O.#.O.#.H K *.-.( ( ] #.] k #.O.X.#.] k #.X.( W } $.I D *.O.} *.R N -.} } *.*.F P X.} #.",
"^ -.-.-.-.W b *.O.-.*.I n %.` -.-.#.i W -.2.-.#.M I *.#.( ` (  .O.h ] -.#.] ) h } X.( ) ) $.E n *.*.*.*.G m X.] :.*.,.F H =.} %.",
"5 y d D M 0 5 c h h c d h b p h h n ; q d n n F q i G G P G b 6 y , n D n h d y G G L F p 0 9 6 F S b d y k v 6 i c F h y p h b ",
"i.^ G q.~ # 2 c B 1 q p.8.u.s.G S =.4.1.h ^ ( ] ^ S 8.9.8.7.7.-.y n } ) 2.n W 8.p.9.8.4.7.R 9 I  .] %.g -.i.i.u.n ^ i.i.! @ 4 b ",
"X.,.} *.W t E W W V q ` O.#.O.-.-.X.} ^ n W W W P i ` O.} #.*.O.b I ) E ^ P R } #.] #.#.%.) c ) W W #.n _ #.X.X.4.-.X.*.^ y U ( ",
" .*.) W ` i W W W W t W #.} O.-.X.*.X.^ k W W ( U t Q O.#.} #.-.b I E P W h W -.O.O.-.#.*.} h W P U I d #.#.} _ %.X. .*.( d ( W ",
"} W ( P N - H W W W h F ] #.` #.=.} } W a Y U ( W y G =.] #.O.H y I E I W 6 k ^ #.#.] -.^ b h E P U P , P ] *.} ) #.} ) b - K U ",
"H N G a   6 n n n n ; O h L R d.2.j 6 y , r u r , o a I V  .G   O r t r e -   e L H q.s.n O , t t r 4 O O j I F D G y 5 0 0 A A ",
"-.,.7.^ k q.9.2.<.q.n I *.f.q.-.7.F u W E U U U i D 8.s.7.#.~ 3 V ( U P P P r ^ i.i.2.-./ t E W U E U V a =.q.4.4.8.l I i.q.2.2.",
"O.#.] P H -.O.#.#.3.G K ,.} } *.} c P W W E W ( r I #.#.#.*.^ i U ( U U ( P r _ *.O.*.O.H c W W W E ( c c =.X.X.#.} v ] #.} #.#.",
"} O.#.I N q.O.#.#.-.F P -.-.O.O.} n I W ( W W W d X.*.*.#.O.) b ( U U Y ( L b =.-.O.O.O.I N ( W ( W ( c U =.:.$.X.X.b ) -.#.#.X.",
"G W ~ s - P W ! W L 4 > t i d H W 9 B P C H V d q k y s d R B 9 Z V V K V s q t y d n W u d P F C H b 9 k y h I ^ I ; t W W W R ",
"t s u * ; - - d h d b N @ , 4 t 3 @ 2 > b ! I I 9.N @ 4 4 t - > 2 H I I R  .s ; 9 4 t 9 # < , t ! I I ^ %.@ 2 u u 9 @ 2 O 9 h k ",
"O.) W W W F h #.} *.#.I b X.#.( Q W E n %.,.X.-.-.G P } ] ) W ) M 8.,.*.2.-.b W O.O.] Q W W Z I 9.O.-.q.R N X. .Q W W Q p P } } ",
"O.Q W } #.W n O.#.} =.W n -.} O.} O.O.N I =.#.=.#.n I %.O.O.#.#.v ( =.} -.X.b ^ ] -.O.O.} *.I n #.#.-.O.I N -.] W Q *.O.n W #.#.",
"} ^ ^ I I I v ]  .)  .M b ^ F } X.X.*.b P  .( X.) h P I I } } ^ a W } ) } ^ i ^ ^ H ^  .#.] P v #.( ]  .N b #.] _ W L ~ b G ] ] ",
"L I L n r ; 6 D D b 2 b D S p 6 p L y O > t t , b M G n p , n I S 6 - 6 r 4 @ n G h 0 6 J v $ - q t , y N D I I L G h 6 % h D D ",
"u.q.q.q.%.k O.#.X.q.n =.i.i.f.1.4.q.F 2 m P P > L q.u.u.u.^ s.8.i.F 2 m P P < Y p.s.q.O.i._ , z K I u y q.q.s.q.q.q.q.I F -.X. .",
" .X.X.} ^ i E W E W v  .X. .] =.( X.V b ( W W b h O.O. . .1.} } =.S M ) ( U c z o.Q #.] } W i W ( W P q ^ X.] } X.X.*.V m E W U ",
"#.=.*.*. .b W U U W a X.=.=.*.} W ) P d Q W W U u *.*.*.#.#.#.O.*.F b ( E W P d -.-.#.^ W ^ t W W W ( s W -.-.-.O.-.#.G C W P W ",
"W P I F 9 9 H M V c O p I W I V P h ; - V H F F 6 n R W I ] ] I v - > N V I N 5 G W V I b 9 O m V Z Z r p I ~ W R R j 1 h C V V ",
"^ I q h G I ! ! Y I % g !  .^ D 2 D G I I ! ! D ; G ^ ^ W %.I O 2 r y u c y $ w ~ ^ R 7 v G G ! ! ! I , h ! ^ W R ^ 9 : ! ! E I ",
"7.7.A _ 4.*.4.<.4.W b 2.=.i.=.=.n -.2.,.7.#.7.b P 3.2.9.-.O.^ t U ( W E ( E y #.3.7.2.V ^ 2.=.4.-.-.I m >.>.2.-.-.3.n ^ q.>.-.-.",
"] -.n R -.#.} *.-.P L *.#.#.#.X.k #.X.} } -.*.v ^ #.-.#.*.#.^ d W U U U Q P t #.-.O.-.n ) *.} } ,.-.G L *.O.%.#.#.O.c ^ #.] #.#.",
"#.#.B Q -.-.4.#.*.H V } ] =.O.] b =.=.4.*.*.#.b W ] #.#.) *.Q k ( W U ( W V b ] O.O.O.n ) =.=.=.-.*.C H ] ] #.` -.#.h W 7.#.*.-.",
"b k , d c b b b n 9 9 % 1 y b u , k h b b S b 1 7 $ 4 , 1 b q ; h b M c k h 9 * < k f - h h b b M n 6 9 % 2 9 b B j O - k b n n ",
"B B b e ; 9 P H Z I W 3 f m B n d t $ b K K H W F 4 x B B b 4 u w X.X.X.%.7.k s B V B b t % t L K K Y W 2 z B B b f 4 h $ u C P ",
"#.} *.*.n I -.} } *.~ b } -.} } #.o.h ] #.#.#.-.H P #.-.O.O.#.#.b &.*.} *.*.b ] #.#.O.#.-.n I -.#.#.%.W n O.-.#.) ( }  .b ! *.X.",
"*.*.#.=.H P -.=.-.*.^ n %.#.#.*.O.#.k ] -.3.#.#.V I *.%.O.#.#.-.c ^ *.X.=.*.c ^  .#.#.O.-.N P *.-.-.#.~ n #.-.O.( ( =.=.M Y *.=.",
"i I L I 9 > H I I I b y I n b I G G * s P I P I t n I g h I I I r D I P P F 7 I G h I G P 9 1 J I P I k u I I I I L y n y n Y I ",
"^ n 6 I ) _ p h W I R h ^ ^ ^ p p ^ ~ R 9 D R ! G v  .] G 5 W  .X.r o 2 t t + G ] / n 9 I _ ^ p h R I R j ^  . .]  .~ p 5 G I I ",
"4.u.2.*.O.-.D ) ) W ^ k  .4.7.q.-.-.#.o.F ` Q Q Y c *.4.9.-.q.-.7.P s T W W 4 P >.>.s.-.*.#.-.D ) ) W ( h ^ >.-.-.<.-.I H #.) ( ",
" .X.X.#.O.-.b I W W W u S X.X.*.O.O.O.^ h W W W I e W } O.%.] #.#.N m Q W W N y O.] O.o.#.#.#.h R W W W u H #.O.O.#.-.H n E U U ",
"=.%.*.*.-.#.k R W ( ^ N n 1.#.X.%.%.O.^ k Q W ^ Q h W 2.%.O.-.#.} n w Q W W E d %.%.#.-.*.#.X.k W W ( ( N N -.<.O.-.^ N K W P E ",
"D D R J D J 8 k D N n w : J H H R J J D : l l N l : g J D J R J g $ 7 N D H F 5 D J D R J D J 8 k D D N w 5 J D J J w = l V N n "
};
