/* XPM */
static char *_5fb6bb033b541ebd7dda7da889c679buCTTcQ8GEyE6ws10[] = {
/* columns rows colors chars-per-pixel */
"64 64 256 2 ",
"   c black",
".  c #010101",
"X  c #020202",
"o  c gray1",
"O  c #040404",
"+  c gray2",
"@  c #060606",
"#  c #070707",
"$  c gray3",
"%  c #090909",
"&  c gray4",
"*  c #0B0B0B",
"=  c #0C0C0C",
"-  c gray5",
";  c #0E0E0E",
":  c gray6",
">  c #101010",
",  c #111111",
"<  c gray7",
"1  c #131313",
"2  c gray8",
"3  c #151515",
"4  c #161616",
"5  c gray9",
"6  c #181818",
"7  c #191919",
"8  c gray10",
"9  c #1B1B1B",
"0  c gray11",
"q  c #1D1D1D",
"w  c #1E1E1E",
"e  c gray12",
"r  c #202020",
"t  c gray13",
"y  c #222222",
"u  c #232323",
"i  c gray14",
"p  c #252525",
"a  c gray15",
"s  c #272727",
"d  c #282828",
"f  c gray16",
"g  c #2A2A2A",
"h  c gray17",
"j  c #2C2C2C",
"k  c #2D2D2D",
"l  c gray18",
"z  c #2F2F2F",
"x  c gray19",
"c  c #313131",
"v  c #323232",
"b  c gray20",
"n  c #343434",
"m  c #353535",
"M  c gray21",
"N  c #373737",
"B  c gray22",
"V  c #393939",
"C  c #3A3A3A",
"Z  c gray23",
"A  c #3C3C3C",
"S  c gray24",
"D  c #3E3E3E",
"F  c #3F3F3F",
"G  c gray25",
"H  c #414141",
"J  c gray26",
"K  c #434343",
"L  c #444444",
"P  c gray27",
"I  c #464646",
"U  c gray28",
"Y  c #484848",
"T  c #494949",
"R  c gray29",
"E  c #4B4B4B",
"W  c #4C4C4C",
"Q  c gray30",
"!  c #4E4E4E",
"~  c gray31",
"^  c #505050",
"/  c #515151",
"(  c gray32",
")  c #535353",
"_  c gray33",
"`  c #555555",
"'  c #565656",
"]  c gray34",
"[  c #585858",
"{  c gray35",
"}  c #5A5A5A",
"|  c #5B5B5B",
" . c gray36",
".. c #5D5D5D",
"X. c gray37",
"o. c #5F5F5F",
"O. c #606060",
"+. c gray38",
"@. c #626262",
"#. c gray39",
"$. c #646464",
"%. c #656565",
"&. c gray40",
"*. c #676767",
"=. c #686868",
"-. c DimGray",
";. c #6A6A6A",
":. c gray42",
">. c #6C6C6C",
",. c #6D6D6D",
"<. c gray43",
"1. c #6F6F6F",
"2. c gray44",
"3. c #717171",
"4. c #727272",
"5. c gray45",
"6. c #747474",
"7. c gray46",
"8. c #767676",
"9. c #777777",
"0. c gray47",
"q. c #797979",
"w. c gray48",
"e. c #7B7B7B",
"r. c #7C7C7C",
"t. c gray49",
"y. c #7E7E7E",
"u. c gray50",
"i. c #808080",
"p. c #818181",
"a. c gray51",
"s. c #838383",
"d. c #848484",
"f. c gray52",
"g. c #868686",
"h. c gray53",
"j. c #888888",
"k. c #898989",
"l. c gray54",
"z. c #8B8B8B",
"x. c gray55",
"c. c #8D8D8D",
"v. c #8E8E8E",
"b. c gray56",
"n. c #909090",
"m. c gray57",
"M. c #929292",
"N. c #939393",
"B. c gray58",
"V. c #959595",
"C. c gray59",
"Z. c #979797",
"A. c #989898",
"S. c gray60",
"D. c #9A9A9A",
"F. c #9B9B9B",
"G. c gray61",
"H. c #9D9D9D",
"J. c gray62",
"K. c #9F9F9F",
"L. c #A0A0A0",
"P. c gray63",
"I. c #A2A2A2",
"U. c gray64",
"Y. c #A4A4A4",
"T. c #A5A5A5",
"R. c gray65",
"E. c #A7A7A7",
"W. c gray66",
"Q. c #A9A9A9",
"!. c #AAAAAA",
"~. c gray67",
"^. c #ACACAC",
"/. c gray68",
"(. c #AEAEAE",
"). c #AFAFAF",
"_. c gray69",
"`. c #B1B1B1",
"'. c #B2B2B2",
"]. c gray70",
"[. c #B4B4B4",
"{. c gray71",
"}. c #B6B6B6",
"|. c #B7B7B7",
" X c gray72",
".X c #B9B9B9",
"XX c gray73",
"oX c #BBBBBB",
"OX c #BCBCBC",
"+X c gray74",
"@X c gray",
"#X c gray75",
"$X c #C0C0C0",
"%X c #C1C1C1",
"&X c gray76",
"*X c #C3C3C3",
"=X c gray77",
"-X c #C5C5C5",
";X c #C6C6C6",
":X c gray78",
">X c #C8C8C8",
",X c gray79",
"<X c #CACACA",
"1X c #CBCBCB",
"2X c gray80",
"3X c #CDCDCD",
"4X c #CECECE",
"5X c gray81",
"6X c #D0D0D0",
"7X c gray82",
"8X c #D2D2D2",
"9X c LightGray",
"0X c gray83",
"qX c #D5D5D5",
"wX c gray84",
"eX c #D7D7D7",
"rX c #D8D8D8",
"tX c gray85",
"yX c #DADADA",
"uX c gray86",
"iX c gainsboro",
"pX c #DDDDDD",
"aX c gray87",
"sX c #DFDFDF",
"dX c gray88",
"fX c #E1E1E1",
"gX c #E2E2E2",
"hX c gray89",
"jX c #E4E4E4",
"kX c gray90",
"lX c #E6E6E6",
"zX c #E7E7E7",
"xX c gray91",
"cX c #E9E9E9",
"vX c #EAEAEA",
"bX c gray92",
"nX c #ECECEC",
"mX c gray93",
"MX c #EEEEEE",
"NX c #EFEFEF",
"BX c gray94",
"VX c #F1F1F1",
"CX c gray95",
"ZX c #F3F3F3",
"AX c #F4F4F4",
"SX c gray96",
"DX c #F6F6F6",
"FX c gray97",
"GX c #F8F8F8",
"HX c #F9F9F9",
"JX c gray98",
"KX c #FBFBFB",
"LX c gray99",
"PX c #FDFDFD",
"IX c #FEFEFE",
"UX c white",
/* pixels */
"e Z e Z e Z e Z e Z e Z e Z e Z e Z e Z e Z e Z e Z e Z e Z e Z e Z e Z e Z e Z e Z e Z e Z e Z e Z e Z e Z e Z e Z e Z e Z e Z ",
"] ) ] ~ ] ~ ] ~ ] ~ E 9XsXsXsX9XsX9XsXsXsX9XsX9XsXsXsXe Z s.~.|.9X:X9X9X:X9X|.:X~.s.] e U U U U U U U U U U ) ~ ] ~ ] ~ ] ~ ] ~ ",
") ] ) ) ] ) ) ) ] ) U sX9X:X9X|.9X9X9X:X9X9X|.9X9X:Xb.e Z s.:X|.b.~.s.b.b.b.b.s.~.~ Z e Z :.b.b.s.b.b.b.e.:.*.U U U E U U U E U ",
"b.b.s.b.b.b.s.b.e ) E sX:X:X|.9X|.:X:X|.:X:X|.|.9Xb.o.e Z ~.9X~.b.~.b.~.s.~.b.~.s.] Z e Z b.9XsXsXsX9XsX|.|.~.b.s.b.b.b.s.b.b.b.",
"9X9X9X9X|.~.b.s.e ] U sX9X~.~.F.~.b.~.~.~.~.F.~.~.e.) e Z b.|.b.b.s.~.~.~.~.s.b.5.~ Z e Z s.sXsX|.:X|.9XsXsXsX9XsX9X:X9X9X9X:X9X",
"~.~.~.~.F.~.e.5.e ) U NX|.F.~.~.~.~.F.~.b.~.s.~.~.:.) e Z U ~.b.~.~.s.b.F.b.~.:.] ) Z e Z b.9X|.~.b.~.b.~.~.F.b.b.~.b.~.s.~.b.F.",
"|.F.F.F.~.b.e.:.e E U NX9X~.s.~.b.~.b.F.F.F.b.b.~.b.~ e Z U e.b.s.~.b.~.~.s.~.5.Z Z Z e Z s.sX|.b.~.s.F.s.b.b.~.s.b.F.b.~.F.b.F.",
"|.~.s.|.s.F.o.] e Z U NX:Xb.F.b.~.~.F.b.e.b.b.~.b.o.] e Z U U b.~.~.F.b.b.b.~.:.Z Z Z e Z b.sX~.~.s.F.e.~.F.e.b.~.s.~.~.b.e.~.F.",
"F.~.~.b.F.5.U E e e E :X|.~.F.~.s.~.b.F.s.F.b.b.~.:.) e e E ) U e.Z Z Z Z Z Z Z Z e e Z Z 5.sXsXb.~.s.s.F.5.F.b.~.b.b.e.~.~.5.b.",
"b.b.s.b.5.) U U e Z U ~.NX~.F.~.b.b.b.b.b.b.s.~.s.] e.e e Z U Z Z Z Z Z Z Z e Z e e e U U U :X:Xb.b.b.b.F.F.F.s.b.~.b.~.~.s.~.b.",
"5.:.5.5.~ E Z Z e e E b.9Xb.~.b.b.e.b.b.~.s.~.b.~.:.] Z e Z U Z e e e e e e e Z e Z e E ) U :X~.b.~.s.~.b.s.b.5.:.*.o.o.*.o.*.o.",
") ] U U U e e e e Z F 5.sX~.s.F.e.e.e.~.F.b.s.e.b.:.*.Z e Z U U E E 5.e.b.~.F.~.~.F.5.Z ~ E |.b.:.5.*.o.*.] ) ) ) U E U E U U E ",
"e e e e e Z e Z e Z ) U sX:Xb.b.b.F.F.s.b.~.e.b.~.b.~ Z e Z F 5.~.~.9XsXNX9X9X9XF.:.) e ) U b.:.*.o.) E U U Z Z Z Z Z e Z e Z e ",
"e Z e Z e e Z e Z Z ~ U ~.9Xb.~.s.e.b.~.b.s.F.b.s.5.~ Z e e Z ~.|.sX9X|.s.~.b.~.s.5.Z e Z Z Z Z Z Z Z Z Z Z Z e e e e e e e e e ",
"Z Z Z Z Z Z Z Z Z Z E E b.:X~.s.~.F.s.e.b.e.b.~.b.~ ] Z e Z F ~.sX|.~.b.b.b.s.b.b.~ Z e Z e e Z e e Z e e Z e F F Z Z Z Z Z Z Z ",
") E Z Z Z Z Z Z e Z ) U 5.:Xs.~.F.b.~.F.~.s.~.s.~.~ 5.U e e E ~.NX~.b.s.~.b.~.s.~.) Z e Z U ] ) ] ] e U E U U E U U U U U U U F ",
"F.F.b.F.b.F.b.F.F.e e ] U :X|.F.b.s.F.F.5.b.b.b.b.:.] ) e e E ~.NXs.b.~.~.s.~.b.b.~ Z e Z :.~.sX9X] U ) e.F.F.b.F.F.F.b.F.F.F.F.",
"9X:X9X9X:X9X|.~.5.F e ] U b.|.b.~.b.e.b.b.s.~.b.:.b.:.E e e E ~.:X~.~.b.s.~.b.~.s.] Z e Z ~.9X:X~.e U e.:X9XsXsXsX9XsXsXsX9XsX9X",
"~.F.b.~.b.~.~.:.5.Z e ) U 5.F.~.s.~.~.s.~.5.b.:.) 5.) E e e E ~.:X~.b.:.5.5.:.) ] ) Z e Z 9X:X~.s.e E F.9X9X|.|.~.|.|.|.~.|.|.|.",
"~.b.F.b.~.s.b.:.5.Z e U ) U F.b.5.5.:.5.) ) 5.~ 5.) U e e e Z F.b.5.b.:.Z Z Z Z Z Z Z e o.sX~.b.b.e U F.sX~.~.F.~.b.~.b.F.s.F.F.",
"~.b.b.~.s.~.~.:.] Z e U ) U *.) ] ) ] U U U Z e e e e e e e e b.5.Z Z Z e e e e e e e e o.sX~.~.s.e E F.9X~.b.F.s.F.b.F.5.s.b.s.",
"~.b.~.b.~.s.b.5.~ Z e U ) U e Z e Z e e e e e e e e e e e e Z Z ~ Z e e e e e Z e e Z e b.sX~.~.b.e U b.:Xs.~.F.~.b.~.b.F.s.F.F.",
"b.~.5.e.b.b.~.:.] Z e Z ~ ] E Z e e e e e e e e ~ E E ~ E E U b.b.b.~.~.b.b.b.e.] e F *.|.sX~.s.e.e E s.:X~.s.F.b.F.s.F.e.e.b.b.",
"b.s.s.e.b.~.s.*.U Z e Z s.sXsXsX9X:X~.~.b.o.Z E *.e.~.~.|.:X:XsXsXsX9XsXsXsX:XF.*.e Z e.sX:XF.~.5.e U s.|.~.F.b.~.s.~.b.e.e.b.b.",
"b.b.~.~.s.b.b.o.E Z e Z 9X:X~.b.F.F.~.b.F.Z ~ E e.9XNXsXsX:X|.|.:X|.:X|.:X|.:X:.] e Z b.sX~.F.b.:.e E :.:Xs.~.b.b.F.b.s.~.b.~.b.",
"F.~.s.b.~.s.5.) Z Z e Z sXF.b.F.~.~.b.F.~.e ) E F.sX:Xb.~.s.~.F.s.~.F.~.F.b.s.*.U e Z b.NX~.s.~.] e E U b.5.o.] ) ) *.*.:.e.b.s.",
"*.o.*.o.*.) U Z Z Z e Z 9X~.~.~.s.~.b.~.o.e E U F.NX~.F.~.b.e.~.~.b.s.b.~.s.~.] U e Z s.NX~.~.b.] e ) e Z Z U U U U E U U ) ] ) ",
") E U Z Z Z e e e e e Z sXs.~.b.~.~.b.e.o.e E U F.NXs.~.b.F.~.s.b.e.b.~.b.b.b.~ E e Z b.NXs.~.b.~ e ] Z e e e e e e e e e Z Z U ",
"e e e e e e e Z e E E U sX~.F.s.~.b.~.e.o.e Z U F.NXb.b.~.s.b.e.b.e.b.s.b.~.b.~ E e Z s.NX~.~.s.] e ] Z Z Z Z Z Z Z e Z e e e e ",
"U *.*.:.b.F.b.s.b.b.U e sX~.5.F.b.~.s.s.*.Z e U b.NX~.b.s.b.e.b.e.b.~.e.b.s.~.) U e Z b.NXb.~.~.~ e ] U F U ~ ) ~ ] ) ) ] Z Z Z ",
"*.b.|.sX9XsX9X9X:X~.5.e sX~.~.s.e.b.~.s.*.Z e U b.sX|.F.b.~.b.~.5.e.b.e.b.~.s.] Z e Z b.9Xb.b.~.~ e E ~.sX9X|.b.o.] U U E U U ) ",
"*.~.9X:X:X|.~.~.F.~.F e NXb.F.~.e.b.~.F.:.U e E e.9X:X~.s.b.5.b.e.e.~.b.~.s.s.~ Z e Z b.sX~.b.b.) e E sXs.b.|.sXsX9XsXsXsXb.Z ) ",
"*.sX|.~.~.s.~.b.~.s.5.e NXF.~.b.~.~.s.~.:.E e Z ~ :XsX~.~.F.b.~.s.~.e.e.b.~.:.] Z e F b.9Xb.~.b.~ e E sXb.s.~.~.s.b.~.b.s.s.Z ~ ",
"*.9X|.F.s.~.b.~.s.~.5.e NXF.s.F.~.b.~.s.*.) e e ] ~.NX~.~.F.b.b.e.b.e.e.~.s.5.U Z e E b.9X~.~.s.] e U sX~.~.s.b.~.~.s.~.b.o.Z U ",
"*.sX~.b.~.b.~.~.e.~.~ e sX~.~.~.b.b.b.~.*.~ e Z ~ b.NX|.~.b.~.s.b.F.s.~.b.~.o.U e Z F b.9XF.b.~.~ e E :X~.b.~.~.s.b.~.b.~.o.Z U ",
"*.sX~.~.b.b.F.F.~.s.] e sX|.e.F.e.~.~.F.o.] e e E :.9X|.~.b.e.F.s.b.F.b.b.b.o.Z e e E b.9Xb.~.~ ] e E :X~.F.~.b.~.s.b.~.F.] Z U ",
"*.9X|.b.~.~.b.~.s.~.) e :XsXs.F.~.b.b.b.o.] e e E ) |.sX~.s.~.b.~.b.~.s.b.*.) Z e Z U e.~.e.~ Z Z Z F ~.~.b.~.F.b.~.b.s.~.] Z Z ",
"*.sX|.~.F.b.~.b.~.b.~ e |.sXe.~.s.b.b.~.:.] e e Z ~ b.|.~.b.e.*.o.) U E Z Z Z Z e Z F ] Z Z Z Z F U e 5.~ U ) ] ) ] ) ) ] ) Z Z ",
"*.sX~.b.~.~.s.~.e.~.) e F.9XF.e.~.~.s.b.:.] e e Z ) U b.b.o.] U Z e e e e e e e e Z U ~ U U ~ ) ] ) ] e e e e e e e e e e e e Z ",
"*.9X|.b.s.F.~.b.~.s.] e e.sX~.F.~.s.b.~.*.~ e e e ~ U Z e Z e e e e Z e Z e e Z e Z U ) ] U U E U U U E U U Z Z Z Z Z Z Z Z Z Z ",
"*.sX|.~.~.s.F.~.b.~.) e ] NXb.F.b.b.~.s.*.) e e Z U U U Z Z Z Z Z E U E F ~ E U E U U ] ) e.e.e.e.e.e.e.e.e.e.e.e.e.e.e.e.5.Z ~ ",
"*.sX~.b.b.~.s.~.b.:.] e U NX~.b.s.e.b.~.:.] e e e F *.e.e.e.e.e.e.e.e.e.e.e.e.e.b.b.b.F.~.|.~.:X|.:X|.:X|.|.:X|.:X|.:X|.:Xe.Z ~ ",
"*.:X|.~.~.b.~.b.~.~ e e ~ NXF.b.~.b.b.s.*.] Z e e Z e.:X|.:X|.:X|.:X:X|.:X|.:X|.:X|.9XsXsXNXNXNXNXNXNXNXNXNXNXNX9XsX9X9Xb.*.e E ",
"*.9X|.b.~.b.~.~.s.] e Z F NXb.~.e.F.s.~.*.~ Z e e e e.:X:XNXNXNXNXNXsXsXNXNXsXNXNXNXNXNXsXsX9X9X|.|.|.:X|.~.|.:X|.|.:X|.e.] e ~ ",
"*.|.|.~.b.~.s.b.b.~ e Z U sX~.~.s.~.b.b.o.] Z e e e e.:X:X|.:X|.:X|.:X~.|.:X~.|.:X|.|.~.~.F.F.b.b.~.b.~.s.b.b.~.s.~.b.~.:.] Z Z ",
"E :Xs.b.~.s.5.:.5.) e Z U 9Xs.b.~.s.~.b.:.] Z e e e *.|.sX|.b.b.s.b.b.b.~.s.~.~.b.b.F.~.~.~.b.e.F.s.~.~.F.s.~.b.~.~.F.b.:.) e Z ",
"U |.~.~.F.b.] ) ) e e F U |.~.s.b.~.b.s.5.) Z e e e U :XsX|.b.b.b.~.b.F.b.F.~.s.b.F.~.~.s.F.b.F.b.b.e.s.F.F.b.~.s.~.b.~.:.] Z Z ",
"U e.e.e.] ) ] ) ) e Z Z F F.F.~.s.b.b.:.*.) Z e e e e |.sX9X~.~.s.b.b.b.e.b.s.~.b.F.s.~.F.e.s.b.~.s.b.~.b.e.5.b.e.F.b.b.5.) e Z ",
"U Z e e e ] ) ) ] e Z F E e.*.o.*.*.o.*.) ) Z e e e Z ~.9X9Xb.s.~.b.~.s.b.~.b.e.e.F.F.s.~.b.~.b.b.~.s.b.e.b.b.s.~.b.5.s.:.] e Z ",
") ] ) U Z e e e e Z Z F Z Z Z Z Z Z Z Z Z Z Z e e e e b.9X|.~.b.b.~.s.~.e.b.s.F.e.F.b.F.e.~.s.b.e.b.b.b.s.~.b.e.b.b.s.e.:.] e Z ",
"U E U U U E U Z e e Z E Z Z e e e e e e e e e e e e Z s.F.:.5.5.:.5.5.:.~.b.~.~.s.b.e.s.b.b.e.b.b.~.s.~.b.b.~.s.b.b.b.F.:.] e Z ",
"U e.~.~.~.~.b.b.*.E E ) Z Z e e Z e e Z e e Z e Z e Z ) U Z Z e Z e Z e ] 5.:.e.b.e.e.e.e.e.e.e.e.e.e.e.e.e.e.e.e.e.e.e.*.~ e Z ",
"U ~.:X9XsX9XsXsX|.~.~.b.:.o.] E Z Z Z Z Z Z Z Z Z Z F ] U U Z Z Z Z Z Z e E ) ) ] ) ] ) ] ) ] ) ) ) ] ) ] ) ) ] ) ] ) ) ) e Z Z ",
"U ~.9X~.~.b.|.9XsXsXsX|.~.~.~.~.~.~.~.F.b.b.s.e.e.:.*.*.~ ] U U U F U Z Z e Z e Z e Z e Z e Z e Z e e e e e e e e e e e e e Z F ",
"U ~.sX~.~.~.|.~.b.~.|.sXsXsX9XsX9XsX9XsXsXsXsX:X9X:X|.~.~.~.~.~.s.E ) U Z Z Z Z Z Z Z Z Z e e Z e Z e Z e Z e Z e Z e Z Z Z U E ",
"U ~.sX~.s.~.e.e.~.F.b.e.~.s.~.b.~.b.~.~.s.~.b.~.~.~.:X9XsX9X9X|.s.Z U ~ E U U Z Z Z e Z Z Z Z Z Z Z Z Z Z Z Z Z Z Z Z Z F U E ) ",
"U ~.:X~.~.~.b.~.b.b.b.F.~.s.b.~.e.5.b.~.e.b.s.b.~.s.~.b.~.~.~.e.*.e Z ~ E ~.9XsXF.e.E E U ) ) ) U U F U U U F U U F U U ~ ] ) ) ",
"U ~.:X~.s.~.e.e.F.~.s.~.~.F.s.e.~.e.b.e.F.s.~.b.~.b.~.s.~.~.F.*.) e Z U U sX~.~.sXsXsX9X|.) ) E |.sXsX9XsXsXsX9X9X:X~.F.e.E U ) ",
"U ~.s.*.o.*.o.*.o.*.*.o.*.o.*.*.o.*.o.*.o.*.*.o.*.o.*.o.*.o.*.] ) Z e Z U 9X|.~.|.~.|.|.|.o.] e.sXF.~.~.b.~.s.~.F.~.b.~.9XF.e ) ",
"U b.*.Z Z Z Z Z Z Z Z Z Z Z Z Z Z Z Z Z Z Z Z Z Z Z Z Z Z Z Z Z Z Z e e E |.~.|.|.F.o.F.s.*.U |.~.b.~.s.~.~.~.s.~.b.~.s.~.) e ] ",
"U Z e e e e e e e e e e e e e e e e e e e e e e e e e e e e e e e e e e ~ Z U Z ~ *.o.*.*.o.E sXF.F.F.~.~.b.F.~.F.F.~.b.b.~ e ] ",
") E Z Z Z e Z e e Z e e Z e e Z e Z e e Z e e Z e e Z e e Z e e Z e Z e F ~ ] Z Z e e e e e Z ) ] ) ) ) ) ) ] ~ ) ] ) ] ~ ] e ) ",
") ] ~ ) U U U E E U E E Z Z Z Z Z Z Z Z Z Z Z Z Z Z Z Z Z Z Z Z Z Z Z Z Z ~ ] ~ ) Z Z Z Z Z Z ~ ) e e e e e e e e e e e e e e ] ",
"Z Z Z Z Z Z Z Z Z Z Z Z Z Z Z Z Z Z Z Z Z Z Z Z Z Z Z Z Z Z Z Z Z Z Z Z Z Z Z Z Z Z Z Z Z Z Z Z Z Z Z Z Z Z Z Z Z Z Z Z Z Z Z Z "
};
